M48
; DRILL file {KiCad 7.0.7} date Fri Sep  1 02:06:55 2023
; FORMAT={-:-/ absolute / inch / decimal}
; #@! TF.CreationDate,2023-09-01T02:06:55-04:00
; #@! TF.GenerationSoftware,Kicad,Pcbnew,7.0.7
; #@! TF.FileFunction,NonPlated,1,2,NPTH
FMAT,2
INCH
; #@! TA.AperFunction,NonPlated,NPTH,ComponentDrill
T1C0.0866
; #@! TA.AperFunction,NonPlated,NPTH,ComponentDrill
T2C0.1929
%
G90
G05
T1
X1.9288Y-7.725
X2.0226Y-8.475
X2.2101Y-9.225
X2.3462Y-7.725
X2.4399Y-8.475
X2.6274Y-9.225
X2.6788Y-7.725
X2.8663Y-8.475
X3.0962Y-7.725
X3.2413Y-9.225
X3.2837Y-8.475
X3.4288Y-7.725
X3.6163Y-8.475
X3.6587Y-9.225
X3.8462Y-7.725
X3.9913Y-9.225
X4.0337Y-8.475
X4.1788Y-7.725
X4.3663Y-8.475
X4.4087Y-9.225
X4.4601Y-9.975
X4.5962Y-7.725
X4.7413Y-9.225
X4.7837Y-8.475
X4.8774Y-9.975
X4.9288Y-7.725
X5.1163Y-8.475
X5.1587Y-9.225
X5.3462Y-7.725
X5.3976Y-9.975
X5.4913Y-9.225
X5.5337Y-8.475
X5.6788Y-7.725
X5.8149Y-9.975
X5.8663Y-8.475
X5.9087Y-9.225
X6.0962Y-7.725
X6.2413Y-9.225
X6.2837Y-8.475
X6.3351Y-9.975
X6.6587Y-9.225
X6.7524Y-9.975
X8.6788Y-7.725
X8.8663Y-8.475
X9.0962Y-7.725
X9.2413Y-9.225
X9.2837Y-8.475
X9.4288Y-7.725
X9.5226Y-9.975
X9.6163Y-8.475
X9.6587Y-9.225
X9.8462Y-7.725
X9.9399Y-9.975
X9.9913Y-9.225
X10.0337Y-8.475
X10.1788Y-7.725
X10.3663Y-8.475
X10.4087Y-9.225
X10.4601Y-9.975
X10.5962Y-7.725
X10.7413Y-9.225
X10.7837Y-8.475
X10.8774Y-9.975
X10.9288Y-7.725
X11.1163Y-8.475
X11.1587Y-9.225
X11.3462Y-7.725
X11.4913Y-9.225
X11.5337Y-8.475
X11.6788Y-7.725
X11.8663Y-8.475
X11.9087Y-9.225
X12.0962Y-7.725
X12.2413Y-9.225
X12.2837Y-8.475
X12.6587Y-9.225
X12.7101Y-7.725
X12.8038Y-8.475
X12.9913Y-9.225
X13.1274Y-7.725
X13.2212Y-8.475
X13.4087Y-9.225
T2
X2.1375Y-7.725
X2.2312Y-8.475
X2.4187Y-9.225
X2.8875Y-7.725
X3.075Y-8.475
X3.45Y-9.225
X3.6375Y-7.725
X3.825Y-8.475
X4.2Y-9.225
X4.3875Y-7.725
X4.575Y-8.475
X4.6688Y-9.975
X4.95Y-9.225
X5.1375Y-7.725
X5.325Y-8.475
X5.6063Y-9.975
X5.7Y-9.225
X5.8875Y-7.725
X6.075Y-8.475
X6.45Y-9.225
X6.5438Y-9.975
X8.8875Y-7.725
X9.075Y-8.475
X9.45Y-9.225
X9.6375Y-7.725
X9.7312Y-9.975
X9.825Y-8.475
X10.2Y-9.225
X10.3875Y-7.725
X10.575Y-8.475
X10.6687Y-9.975
X10.95Y-9.225
X11.1375Y-7.725
X11.325Y-8.475
X11.7Y-9.225
X11.8875Y-7.725
X12.075Y-8.475
X12.45Y-9.225
X12.9187Y-7.725
X13.0125Y-8.475
X13.2Y-9.225
T0
M30
