%TF.GenerationSoftware,KiCad,Pcbnew,7.0.7*%
%TF.CreationDate,2023-09-01T02:06:52-04:00*%
%TF.ProjectId,rowStaggeredSplit,726f7753-7461-4676-9765-72656453706c,rev?*%
%TF.SameCoordinates,Original*%
%TF.FileFunction,Profile,NP*%
%FSLAX46Y46*%
G04 Gerber Fmt 4.6, Leading zero omitted, Abs format (unit mm)*
G04 Created by KiCad (PCBNEW 7.0.7) date 2023-09-01 02:06:52*
%MOMM*%
%LPD*%
G01*
G04 APERTURE LIST*
%TA.AperFunction,Profile*%
%ADD10C,0.100000*%
%TD*%
G04 APERTURE END LIST*
D10*
X317353750Y-196215000D02*
G75*
G03*
X317353750Y-196215000I-1600000J0D01*
G01*
X344800000Y-245800000D02*
X344800000Y-262500000D01*
X75200000Y-243800000D02*
G75*
G03*
X75200000Y-244800000I0J-500000D01*
G01*
X69227500Y-215265000D02*
G75*
G03*
X69227500Y-215265000I-1600000J0D01*
G01*
X283900000Y-262492893D02*
X283900000Y-245800000D01*
X343800000Y-263500000D02*
G75*
G03*
X344800000Y-262500000I0J1000000D01*
G01*
X255917500Y-205263750D02*
G75*
G03*
X255917500Y-205263750I-1600000J0D01*
G01*
X310500000Y-244800000D02*
G75*
G03*
X310500000Y-243800000I0J500000D01*
G01*
X283900000Y-243800000D02*
X310500000Y-243800000D01*
X44800000Y-187400000D02*
X44800000Y-242800000D01*
X45800000Y-186400000D02*
X343800000Y-186500000D01*
X284900000Y-244800000D02*
G75*
G03*
X283900000Y-245800000I0J-1000000D01*
G01*
X282900000Y-244800000D02*
X282900000Y-261900000D01*
X44800000Y-262100000D02*
X44800000Y-257100000D01*
X343800000Y-263500000D02*
X284900000Y-263492893D01*
X283900000Y-243800000D02*
G75*
G03*
X282900000Y-244800000I0J-1000000D01*
G01*
X44800000Y-242800000D02*
G75*
G03*
X45800000Y-243800000I1000000J0D01*
G01*
X316900000Y-243800000D02*
X343800000Y-243800000D01*
X68800000Y-243800000D02*
X45800000Y-243800000D01*
X344800000Y-187500000D02*
X344800000Y-242800000D01*
X105700000Y-243800000D02*
X75200000Y-243800000D01*
X155905000Y-253365000D02*
G75*
G03*
X155905000Y-253365000I-1600000J0D01*
G01*
X98300000Y-263100000D02*
G75*
G03*
X99300000Y-262100000I0J1000000D01*
G01*
X344800000Y-245800000D02*
G75*
G03*
X343800000Y-244800000I-1000000J0D01*
G01*
X281900000Y-262900000D02*
X107700000Y-262900000D01*
X343800000Y-243800000D02*
G75*
G03*
X344800000Y-242800000I0J1000000D01*
G01*
X316900000Y-243800000D02*
G75*
G03*
X316900000Y-244800000I0J-500000D01*
G01*
X146380000Y-224313750D02*
G75*
G03*
X146380000Y-224313750I-1600000J0D01*
G01*
X68800000Y-244800000D02*
G75*
G03*
X68800000Y-243800000I0J500000D01*
G01*
X99300000Y-245800000D02*
X99300000Y-262100000D01*
X44800000Y-245800000D02*
X44800000Y-257100000D01*
X284900000Y-244800000D02*
X310500000Y-244800000D01*
X99300000Y-245800000D02*
G75*
G03*
X98300000Y-244800000I-1000000J0D01*
G01*
X281900000Y-262900000D02*
G75*
G03*
X282900000Y-261900000I0J1000000D01*
G01*
X283900007Y-262492893D02*
G75*
G03*
X284900000Y-263492893I999993J-7D01*
G01*
X106700000Y-261900000D02*
G75*
G03*
X107700000Y-262900000I1000000J0D01*
G01*
X260680000Y-253365000D02*
G75*
G03*
X260680000Y-253365000I-1600000J0D01*
G01*
X316900000Y-244800000D02*
X343800000Y-244800000D01*
X68800000Y-244800000D02*
X45800000Y-244800000D01*
X45800000Y-186400000D02*
G75*
G03*
X44800000Y-187400000I0J-1000000D01*
G01*
X75200000Y-244800000D02*
X98300000Y-244800000D01*
X106700000Y-261900000D02*
X106700000Y-244800000D01*
X106700000Y-244800000D02*
G75*
G03*
X105700000Y-243800000I-1000000J0D01*
G01*
X53035000Y-234315000D02*
G75*
G03*
X53035000Y-234315000I-1600000J0D01*
G01*
X45800000Y-244800000D02*
G75*
G03*
X44800000Y-245800000I0J-1000000D01*
G01*
X44800000Y-262100000D02*
G75*
G03*
X45800000Y-263100000I1000000J0D01*
G01*
X344800000Y-187500000D02*
G75*
G03*
X343800000Y-186500000I-1000000J0D01*
G01*
X98300000Y-263100000D02*
X45800000Y-263100000D01*
M02*
