M48
; DRILL file {KiCad 7.0.7} date Fri Sep  1 02:06:55 2023
; FORMAT={-:-/ absolute / inch / decimal}
; #@! TF.CreationDate,2023-09-01T02:06:55-04:00
; #@! TF.GenerationSoftware,Kicad,Pcbnew,7.0.7
; #@! TF.FileFunction,Plated,1,2,PTH
FMAT,2
INCH
; #@! TA.AperFunction,Plated,PTH,ViaDrill
T1C0.0157
; #@! TA.AperFunction,Plated,PTH,ComponentDrill
T2C0.0315
; #@! TA.AperFunction,Plated,PTH,ComponentDrill
T3C0.0335
; #@! TA.AperFunction,Plated,PTH,ComponentDrill
T4C0.0394
; #@! TA.AperFunction,Plated,PTH,ComponentDrill
T5C0.0430
; #@! TA.AperFunction,Plated,PTH,ComponentDrill
T6C0.0472
; #@! TA.AperFunction,Plated,PTH,ComponentDrill
T7C0.0630
%
G90
G05
T1
X13.435Y-9.7776
T2
X6.4125Y-7.5375
X6.4125Y-7.8375
X6.5812Y-7.5938
X6.5812Y-7.8937
X6.5812Y-8.3438
X6.5812Y-8.6437
X6.75Y-7.65
X6.75Y-7.95
X6.75Y-8.4
X6.75Y-8.7
X6.9188Y-7.7062
X6.9188Y-8.0062
X6.9188Y-8.4562
X6.9188Y-8.7562
X6.9559Y-8.2866
X6.9562Y-9.0375
X6.9562Y-9.3375
X7.0875Y-7.7625
X7.0875Y-8.0625
X7.0875Y-8.5125
X7.0875Y-8.8125
X7.1063Y-10.1813
X7.1244Y-9.5433
X7.1244Y-9.8433
X7.125Y-9.0938
X7.125Y-9.3937
X7.2559Y-8.2866
X7.2562Y-7.8187
X7.2562Y-8.1188
X7.2562Y-8.5687
X7.2562Y-8.8688
X7.2933Y-9.6
X7.2933Y-9.9
X7.2938Y-9.15
X7.2938Y-9.45
X7.4062Y-10.1813
X7.4618Y-9.6559
X7.4618Y-9.9559
X7.5562Y-10.1813
X7.8563Y-10.1813
X8.0062Y-10.1813
X8.1Y-7.5375
X8.1Y-7.8375
X8.1Y-8.0059
X8.1Y-8.3059
X8.1Y-8.4938
X8.1Y-8.7937
X8.1Y-9.075
X8.1Y-9.2213
X8.1Y-9.5213
X8.2687Y-7.5938
X8.2687Y-7.8937
X8.2687Y-8.061
X8.2687Y-8.361
X8.2687Y-8.55
X8.2687Y-8.85
X8.2687Y-9.2775
X8.2687Y-9.5775
X8.3063Y-10.1813
X8.4Y-9.075
X8.4374Y-8.1188
X8.4374Y-8.4187
X8.4375Y-7.65
X8.4375Y-7.95
X8.4375Y-8.6062
X8.4375Y-8.9062
X8.4375Y-9.3338
X8.4375Y-9.6338
X8.4562Y-10.1813
X8.6062Y-8.6625
X8.6062Y-8.9625
X8.6062Y-9.1312
X8.6062Y-9.39
X8.6062Y-9.69
X8.7562Y-10.1813
X8.775Y-9.4463
X8.775Y-9.7463
X8.9062Y-9.1312
X8.9062Y-10.1813
X8.9437Y-9.5025
X8.9437Y-9.8025
X9.2062Y-10.1813
T3
X11.8624Y-9.7087
X12.0061Y-9.7087
T4
X2.5945Y-9.6969
X2.5945Y-10.2969
X2.6945Y-9.6969
X2.6945Y-10.2969
X2.7945Y-9.6969
X2.7945Y-10.2969
X2.8945Y-9.6969
X2.8945Y-10.2969
X2.9945Y-9.6969
X2.9945Y-10.2969
X3.0945Y-9.6969
X3.0945Y-10.2969
X3.1945Y-9.6969
X3.1945Y-10.2969
X3.2945Y-9.6969
X3.2945Y-10.2969
X3.3945Y-9.6969
X3.3945Y-10.2969
X3.4945Y-9.6969
X3.4945Y-10.2969
X3.5945Y-9.6969
X3.5945Y-10.2969
X3.6945Y-9.6969
X3.6945Y-10.2969
X3.8199Y-9.8994
X3.8199Y-9.9994
X3.8199Y-10.0994
X11.5195Y-9.7104
X11.5211Y-10.3083
X11.6195Y-9.7104
X11.6211Y-10.3083
X11.7195Y-9.7104
X11.7211Y-10.3083
X13.4341Y-9.8626
X13.4341Y-9.9626
X13.4341Y-10.0626
X13.4341Y-10.1626
X13.5177Y-9.8087
X13.5177Y-9.9087
X13.5177Y-10.0087
X13.5177Y-10.1087
X13.5177Y-10.2087
T5
X12.2354Y-9.7079
X12.2354Y-10.3079
X12.3354Y-9.7079
X12.3354Y-10.3079
X12.4354Y-9.7079
X12.4354Y-10.3079
X12.5354Y-9.7079
X12.5354Y-10.3079
X12.6354Y-9.7079
X12.6354Y-10.3079
X12.7354Y-9.7079
X12.7354Y-10.3079
X12.8354Y-9.7079
X12.8354Y-10.3079
X12.9354Y-9.7079
X12.9354Y-10.3079
X13.0354Y-9.7079
X13.0354Y-10.3079
X13.1354Y-9.7079
X13.1354Y-10.0079
X13.1354Y-10.1079
X13.1354Y-10.2079
X13.1354Y-10.3079
X13.2354Y-9.7079
X13.2354Y-10.3079
X13.3354Y-9.7079
X13.3354Y-10.3079
T6
X1.9367Y-7.8785
X1.9875Y-7.625
X2.0305Y-8.6285
X2.0812Y-8.375
X2.1375Y-7.9573
X2.218Y-9.3785
X2.2312Y-8.7073
X2.2375Y-7.525
X2.2687Y-9.125
X2.3312Y-8.275
X2.3344Y-7.5065
X2.4187Y-9.4573
X2.4281Y-8.2565
X2.5187Y-9.025
X2.6156Y-9.0065
X2.6867Y-7.8785
X2.7375Y-7.625
X2.8742Y-8.6285
X2.8875Y-7.9573
X2.925Y-8.375
X2.9875Y-7.525
X3.075Y-8.7073
X3.0844Y-7.5065
X3.175Y-8.275
X3.2492Y-9.3785
X3.2719Y-8.2565
X3.3Y-9.125
X3.4367Y-7.8785
X3.45Y-9.4573
X3.4875Y-7.625
X3.55Y-9.025
X3.6242Y-8.6285
X3.6375Y-7.9573
X3.6469Y-9.0065
X3.675Y-8.375
X3.7375Y-7.525
X3.825Y-8.7073
X3.8344Y-7.5065
X3.925Y-8.275
X3.9992Y-9.3785
X4.0219Y-8.2565
X4.05Y-9.125
X4.1867Y-7.8785
X4.2Y-9.4573
X4.2375Y-7.625
X4.3Y-9.025
X4.3742Y-8.6285
X4.3875Y-7.9573
X4.3969Y-9.0065
X4.425Y-8.375
X4.468Y-10.1285
X4.4875Y-7.525
X4.5187Y-9.875
X4.575Y-8.7073
X4.5844Y-7.5065
X4.6688Y-10.2073
X4.675Y-8.275
X4.7492Y-9.3785
X4.7687Y-9.775
X4.7719Y-8.2565
X4.8Y-9.125
X4.8656Y-9.7565
X4.9367Y-7.8785
X4.95Y-9.4573
X4.9875Y-7.625
X5.05Y-9.025
X5.1242Y-8.6285
X5.1375Y-7.9573
X5.1469Y-9.0065
X5.175Y-8.375
X5.2375Y-7.525
X5.325Y-8.7073
X5.3344Y-7.5065
X5.4055Y-10.1285
X5.425Y-8.275
X5.4562Y-9.875
X5.4992Y-9.3785
X5.5219Y-8.2565
X5.55Y-9.125
X5.6063Y-10.2073
X5.6867Y-7.8785
X5.7Y-9.4573
X5.7062Y-9.775
X5.7375Y-7.625
X5.8Y-9.025
X5.8031Y-9.7565
X5.8742Y-8.6285
X5.8875Y-7.9573
X5.8969Y-9.0065
X5.925Y-8.375
X5.9875Y-7.525
X6.075Y-8.7073
X6.0844Y-7.5065
X6.175Y-8.275
X6.2492Y-9.3785
X6.2719Y-8.2565
X6.3Y-9.125
X6.343Y-10.1285
X6.3937Y-9.875
X6.45Y-9.4573
X6.5438Y-10.2073
X6.55Y-9.025
X6.6437Y-9.775
X6.6469Y-9.0065
X6.7406Y-9.7565
X8.6867Y-7.8785
X8.7375Y-7.625
X8.8742Y-8.6285
X8.8875Y-7.9573
X8.925Y-8.375
X8.9875Y-7.525
X9.075Y-8.7073
X9.0844Y-7.5065
X9.175Y-8.275
X9.2492Y-9.3785
X9.2719Y-8.2565
X9.3Y-9.125
X9.4367Y-7.8785
X9.45Y-9.4573
X9.4875Y-7.625
X9.5305Y-10.1285
X9.55Y-9.025
X9.5812Y-9.875
X9.6242Y-8.6285
X9.6375Y-7.9573
X9.6469Y-9.0065
X9.675Y-8.375
X9.7312Y-10.2073
X9.7375Y-7.525
X9.825Y-8.7073
X9.8312Y-9.775
X9.8344Y-7.5065
X9.925Y-8.275
X9.9281Y-9.7565
X9.9992Y-9.3785
X10.0219Y-8.2565
X10.05Y-9.125
X10.1867Y-7.8785
X10.2Y-9.4573
X10.2375Y-7.625
X10.3Y-9.025
X10.3742Y-8.6285
X10.3875Y-7.9573
X10.3969Y-9.0065
X10.425Y-8.375
X10.468Y-10.1285
X10.4875Y-7.525
X10.5187Y-9.875
X10.575Y-8.7073
X10.5844Y-7.5065
X10.6687Y-10.2073
X10.675Y-8.275
X10.7492Y-9.3785
X10.7687Y-9.775
X10.7719Y-8.2565
X10.8Y-9.125
X10.8656Y-9.7565
X10.9367Y-7.8785
X10.95Y-9.4573
X10.9875Y-7.625
X11.05Y-9.025
X11.1242Y-8.6285
X11.1375Y-7.9573
X11.1469Y-9.0065
X11.175Y-8.375
X11.2375Y-7.525
X11.325Y-8.7073
X11.3344Y-7.5065
X11.425Y-8.275
X11.4992Y-9.3785
X11.5219Y-8.2565
X11.55Y-9.125
X11.6867Y-7.8785
X11.7Y-9.4573
X11.7375Y-7.625
X11.8Y-9.025
X11.8742Y-8.6285
X11.8875Y-7.9573
X11.8969Y-9.0065
X11.925Y-8.375
X11.9875Y-7.525
X12.075Y-8.7073
X12.0844Y-7.5065
X12.175Y-8.275
X12.2492Y-9.3785
X12.2719Y-8.2565
X12.3Y-9.125
X12.45Y-9.4573
X12.55Y-9.025
X12.6469Y-9.0065
X12.718Y-7.8785
X12.7687Y-7.625
X12.8117Y-8.6285
X12.8625Y-8.375
X12.9187Y-7.9573
X12.9992Y-9.3785
X13.0125Y-8.7073
X13.0187Y-7.525
X13.05Y-9.125
X13.1125Y-8.275
X13.1156Y-7.5065
X13.2Y-9.4573
X13.2094Y-8.2565
X13.3Y-9.025
X13.3969Y-9.0065
T7
X2.1833Y-10.0547
X2.2378Y-9.9429
X2.2923Y-10.0547
X2.3469Y-9.9429
X2.4014Y-10.0547
X2.4559Y-9.9429
X2.5104Y-10.0547
X2.565Y-9.9429
X2.6195Y-10.0547
X2.674Y-9.9429
X2.7285Y-10.0547
X2.7831Y-9.9429
X2.8376Y-10.0547
X2.8921Y-9.9429
X2.9467Y-10.0547
X3.0012Y-9.9429
X3.0557Y-10.0547
X3.1102Y-9.9429
X3.1648Y-10.0547
X3.2193Y-9.9429
X3.2738Y-10.0547
X3.3283Y-9.9429
X3.3829Y-10.0547
X3.4374Y-9.9429
X3.4919Y-10.0547
X7.6125Y-7.7786
X7.6125Y-7.8877
X7.6125Y-7.9968
X7.6125Y-8.1058
X7.6125Y-8.2149
X7.6125Y-8.3239
X7.6125Y-8.433
X7.6125Y-8.542
X7.6125Y-8.6511
X7.6125Y-8.7601
X7.6125Y-8.8692
X7.6125Y-8.9782
X7.6125Y-9.0873
X7.7243Y-7.8332
X7.7243Y-7.9422
X7.7243Y-8.0513
X7.7243Y-8.1603
X7.7243Y-8.2694
X7.7243Y-8.3784
X7.7243Y-8.4875
X7.7243Y-8.5966
X7.7243Y-8.7056
X7.7243Y-8.8147
X7.7243Y-8.9237
X7.7243Y-9.0328
X11.585Y-10.0646
X11.6396Y-9.9528
X11.6941Y-10.0646
X11.7486Y-9.9528
X11.8031Y-10.0646
X11.8577Y-9.9528
X11.9122Y-10.0646
X11.9667Y-9.9528
X12.0213Y-10.0646
X12.0758Y-9.9528
X12.1303Y-10.0646
X12.1848Y-9.9528
X12.2394Y-10.0646
X12.2939Y-9.9528
X12.3484Y-10.0646
X12.403Y-9.9528
X12.4575Y-10.0646
X12.512Y-9.9528
X12.5665Y-10.0646
X12.6211Y-9.9528
X12.6756Y-10.0646
X12.7301Y-9.9528
X12.7846Y-10.0646
X12.8392Y-9.9528
X12.8937Y-10.0646
T0
M30
