%TF.GenerationSoftware,KiCad,Pcbnew,7.0.7*%
%TF.CreationDate,2023-09-01T02:06:52-04:00*%
%TF.ProjectId,rowStaggeredSplit,726f7753-7461-4676-9765-72656453706c,rev?*%
%TF.SameCoordinates,Original*%
%TF.FileFunction,Copper,L2,Bot*%
%TF.FilePolarity,Positive*%
%FSLAX46Y46*%
G04 Gerber Fmt 4.6, Leading zero omitted, Abs format (unit mm)*
G04 Created by KiCad (PCBNEW 7.0.7) date 2023-09-01 02:06:52*
%MOMM*%
%LPD*%
G01*
G04 APERTURE LIST*
G04 Aperture macros list*
%AMRoundRect*
0 Rectangle with rounded corners*
0 $1 Rounding radius*
0 $2 $3 $4 $5 $6 $7 $8 $9 X,Y pos of 4 corners*
0 Add a 4 corners polygon primitive as box body*
4,1,4,$2,$3,$4,$5,$6,$7,$8,$9,$2,$3,0*
0 Add four circle primitives for the rounded corners*
1,1,$1+$1,$2,$3*
1,1,$1+$1,$4,$5*
1,1,$1+$1,$6,$7*
1,1,$1+$1,$8,$9*
0 Add four rect primitives between the rounded corners*
20,1,$1+$1,$2,$3,$4,$5,0*
20,1,$1+$1,$4,$5,$6,$7,0*
20,1,$1+$1,$6,$7,$8,$9,0*
20,1,$1+$1,$8,$9,$2,$3,0*%
%AMHorizOval*
0 Thick line with rounded ends*
0 $1 width*
0 $2 $3 position (X,Y) of the first rounded end (center of the circle)*
0 $4 $5 position (X,Y) of the second rounded end (center of the circle)*
0 Add line between two ends*
20,1,$1,$2,$3,$4,$5,0*
0 Add two circle primitives to create the rounded ends*
1,1,$1,$2,$3*
1,1,$1,$4,$5*%
G04 Aperture macros list end*
%TA.AperFunction,ComponentPad*%
%ADD10C,2.400000*%
%TD*%
%TA.AperFunction,ComponentPad*%
%ADD11HorizOval,2.400000X0.999962X0.008727X-0.999962X-0.008727X0*%
%TD*%
%TA.AperFunction,ComponentPad*%
%ADD12RoundRect,0.250000X-0.750000X-0.750000X0.750000X-0.750000X0.750000X0.750000X-0.750000X0.750000X0*%
%TD*%
%TA.AperFunction,ComponentPad*%
%ADD13R,1.600000X1.600000*%
%TD*%
%TA.AperFunction,ComponentPad*%
%ADD14O,1.600000X1.600000*%
%TD*%
%TA.AperFunction,ComponentPad*%
%ADD15R,1.700000X1.700000*%
%TD*%
%TA.AperFunction,ComponentPad*%
%ADD16O,1.700000X1.700000*%
%TD*%
%TA.AperFunction,ComponentPad*%
%ADD17C,1.800000*%
%TD*%
%TA.AperFunction,ComponentPad*%
%ADD18RoundRect,0.450000X0.450000X-0.450000X0.450000X0.450000X-0.450000X0.450000X-0.450000X-0.450000X0*%
%TD*%
%TA.AperFunction,ComponentPad*%
%ADD19R,2.200000X2.200000*%
%TD*%
%TA.AperFunction,ComponentPad*%
%ADD20C,2.200000*%
%TD*%
%TA.AperFunction,ComponentPad*%
%ADD21C,1.752600*%
%TD*%
%TA.AperFunction,SMDPad,CuDef*%
%ADD22R,1.500000X1.000000*%
%TD*%
%TA.AperFunction,SMDPad,CuDef*%
%ADD23R,1.000000X1.500000*%
%TD*%
%TA.AperFunction,ViaPad*%
%ADD24C,0.800000*%
%TD*%
%TA.AperFunction,Conductor*%
%ADD25C,0.250000*%
%TD*%
%TA.AperFunction,Conductor*%
%ADD26C,0.750000*%
%TD*%
%TA.AperFunction,Conductor*%
%ADD27C,0.500000*%
%TD*%
%TA.AperFunction,Conductor*%
%ADD28C,1.000000*%
%TD*%
G04 APERTURE END LIST*
D10*
%TO.P,MX6,1,1*%
%TO.N,col5*%
X145732500Y-193675000D03*
%TO.P,MX6,2,2*%
%TO.N,Net-(D6-A)*%
X149542500Y-202115000D03*
%TO.P,MX6,1,1*%
%TO.N,col5*%
X144442500Y-200115000D03*
D11*
%TO.P,MX6,2,2*%
%TO.N,Net-(D6-A)*%
X153442542Y-190674599D03*
D10*
X152082500Y-191135000D03*
%TD*%
%TO.P,MX24,1,1*%
%TO.N,col11*%
X326707500Y-212725000D03*
%TO.P,MX24,2,2*%
%TO.N,Net-(D24-A)*%
X330517500Y-221165000D03*
%TO.P,MX24,1,1*%
%TO.N,col11*%
X325417500Y-219165000D03*
D11*
%TO.P,MX24,2,2*%
%TO.N,Net-(D24-A)*%
X334417542Y-209724599D03*
D10*
X333057500Y-210185000D03*
%TD*%
%TO.P,MX39,1,1*%
%TO.N,col5*%
X162401250Y-250825000D03*
%TO.P,MX39,2,2*%
%TO.N,Net-(D39-A)*%
X166211250Y-259265000D03*
%TO.P,MX39,1,1*%
%TO.N,col5*%
X161111250Y-257265000D03*
D11*
%TO.P,MX39,2,2*%
%TO.N,Net-(D39-A)*%
X170111292Y-247824599D03*
D10*
X168751250Y-248285000D03*
%TD*%
%TO.P,MX40,1,1*%
%TO.N,col6*%
X243363750Y-250825000D03*
%TO.P,MX40,2,2*%
%TO.N,Net-(D40-A)*%
X247173750Y-259265000D03*
%TO.P,MX40,1,1*%
%TO.N,col6*%
X242073750Y-257265000D03*
D11*
%TO.P,MX40,2,2*%
%TO.N,Net-(D40-A)*%
X251073792Y-247824599D03*
D10*
X249713750Y-248285000D03*
%TD*%
%TO.P,MX14,1,1*%
%TO.N,col1*%
X74295000Y-212725000D03*
%TO.P,MX14,2,2*%
%TO.N,Net-(D14-A)*%
X78105000Y-221165000D03*
%TO.P,MX14,1,1*%
%TO.N,col1*%
X73005000Y-219165000D03*
D11*
%TO.P,MX14,2,2*%
%TO.N,Net-(D14-A)*%
X82005042Y-209724599D03*
D10*
X80645000Y-210185000D03*
%TD*%
%TO.P,MX10,1,1*%
%TO.N,col9*%
X279082500Y-193675000D03*
%TO.P,MX10,2,2*%
%TO.N,Net-(D10-A)*%
X282892500Y-202115000D03*
%TO.P,MX10,1,1*%
%TO.N,col9*%
X277792500Y-200115000D03*
D11*
%TO.P,MX10,2,2*%
%TO.N,Net-(D10-A)*%
X286792542Y-190674599D03*
D10*
X285432500Y-191135000D03*
%TD*%
%TO.P,MX7,1,1*%
%TO.N,col6*%
X221932500Y-193675000D03*
%TO.P,MX7,2,2*%
%TO.N,Net-(D7-A)*%
X225742500Y-202115000D03*
%TO.P,MX7,1,1*%
%TO.N,col6*%
X220642500Y-200115000D03*
D11*
%TO.P,MX7,2,2*%
%TO.N,Net-(D7-A)*%
X229642542Y-190674599D03*
D10*
X228282500Y-191135000D03*
%TD*%
%TO.P,MX11,1,1*%
%TO.N,col10*%
X298132500Y-193675000D03*
%TO.P,MX11,2,2*%
%TO.N,Net-(D11-A)*%
X301942500Y-202115000D03*
%TO.P,MX11,1,1*%
%TO.N,col10*%
X296842500Y-200115000D03*
D11*
%TO.P,MX11,2,2*%
%TO.N,Net-(D11-A)*%
X305842542Y-190674599D03*
D10*
X304482500Y-191135000D03*
%TD*%
%TO.P,MX16,1,1*%
%TO.N,col3*%
X112395000Y-212725000D03*
%TO.P,MX16,2,2*%
%TO.N,Net-(D16-A)*%
X116205000Y-221165000D03*
%TO.P,MX16,1,1*%
%TO.N,col3*%
X111105000Y-219165000D03*
D11*
%TO.P,MX16,2,2*%
%TO.N,Net-(D16-A)*%
X120105042Y-209724599D03*
D10*
X118745000Y-210185000D03*
%TD*%
%TO.P,MX37,1,1*%
%TO.N,col3*%
X114776250Y-250825000D03*
%TO.P,MX37,2,2*%
%TO.N,Net-(D37-A)*%
X118586250Y-259265000D03*
%TO.P,MX37,1,1*%
%TO.N,col3*%
X113486250Y-257265000D03*
D11*
%TO.P,MX37,2,2*%
%TO.N,Net-(D37-A)*%
X122486292Y-247824599D03*
D10*
X121126250Y-248285000D03*
%TD*%
%TO.P,MX33,1,1*%
%TO.N,col8*%
X274320000Y-231775000D03*
%TO.P,MX33,2,2*%
%TO.N,Net-(D33-A)*%
X278130000Y-240215000D03*
%TO.P,MX33,1,1*%
%TO.N,col8*%
X273030000Y-238215000D03*
D11*
%TO.P,MX33,2,2*%
%TO.N,Net-(D33-A)*%
X282030042Y-228774599D03*
D10*
X280670000Y-229235000D03*
%TD*%
%TO.P,MX22,1,1*%
%TO.N,col9*%
X283845000Y-212725000D03*
%TO.P,MX22,2,2*%
%TO.N,Net-(D22-A)*%
X287655000Y-221165000D03*
%TO.P,MX22,1,1*%
%TO.N,col9*%
X282555000Y-219165000D03*
D11*
%TO.P,MX22,2,2*%
%TO.N,Net-(D22-A)*%
X291555042Y-209724599D03*
D10*
X290195000Y-210185000D03*
%TD*%
%TO.P,MX25,1,1*%
%TO.N,col0*%
X57626250Y-231775000D03*
%TO.P,MX25,2,2*%
%TO.N,Net-(D25-A)*%
X61436250Y-240215000D03*
%TO.P,MX25,1,1*%
%TO.N,col0*%
X56336250Y-238215000D03*
D11*
%TO.P,MX25,2,2*%
%TO.N,Net-(D25-A)*%
X65336292Y-228774599D03*
D10*
X63976250Y-229235000D03*
%TD*%
%TO.P,MX2,1,1*%
%TO.N,col1*%
X69532500Y-193675000D03*
%TO.P,MX2,2,2*%
%TO.N,Net-(D2-A)*%
X73342500Y-202115000D03*
%TO.P,MX2,1,1*%
%TO.N,col1*%
X68242500Y-200115000D03*
D11*
%TO.P,MX2,2,2*%
%TO.N,Net-(D2-A)*%
X77242542Y-190674599D03*
D10*
X75882500Y-191135000D03*
%TD*%
%TO.P,MX5,1,1*%
%TO.N,col4*%
X126682500Y-193675000D03*
%TO.P,MX5,2,2*%
%TO.N,Net-(D5-A)*%
X130492500Y-202115000D03*
%TO.P,MX5,1,1*%
%TO.N,col4*%
X125392500Y-200115000D03*
D11*
%TO.P,MX5,2,2*%
%TO.N,Net-(D5-A)*%
X134392542Y-190674599D03*
D10*
X133032500Y-191135000D03*
%TD*%
%TO.P,MX21,1,1*%
%TO.N,col8*%
X264795000Y-212725000D03*
%TO.P,MX21,2,2*%
%TO.N,Net-(D21-A)*%
X268605000Y-221165000D03*
%TO.P,MX21,1,1*%
%TO.N,col8*%
X263505000Y-219165000D03*
D11*
%TO.P,MX21,2,2*%
%TO.N,Net-(D21-A)*%
X272505042Y-209724599D03*
D10*
X271145000Y-210185000D03*
%TD*%
%TO.P,MX1,1,1*%
%TO.N,col0*%
X50482500Y-193675000D03*
%TO.P,MX1,2,2*%
%TO.N,Net-(D1-A)*%
X54292500Y-202115000D03*
%TO.P,MX1,1,1*%
%TO.N,col0*%
X49192500Y-200115000D03*
D11*
%TO.P,MX1,2,2*%
%TO.N,Net-(D1-A)*%
X58192542Y-190674599D03*
D10*
X56832500Y-191135000D03*
%TD*%
%TO.P,MX27,1,1*%
%TO.N,col2*%
X102870000Y-231775000D03*
%TO.P,MX27,2,2*%
%TO.N,Net-(D27-A)*%
X106680000Y-240215000D03*
%TO.P,MX27,1,1*%
%TO.N,col2*%
X101580000Y-238215000D03*
D11*
%TO.P,MX27,2,2*%
%TO.N,Net-(D27-A)*%
X110580042Y-228774599D03*
D10*
X109220000Y-229235000D03*
%TD*%
%TO.P,MX36,1,1*%
%TO.N,col11*%
X331470000Y-231775000D03*
%TO.P,MX36,2,2*%
%TO.N,Net-(D36-A)*%
X335280000Y-240215000D03*
%TO.P,MX36,1,1*%
%TO.N,col11*%
X330180000Y-238215000D03*
D11*
%TO.P,MX36,2,2*%
%TO.N,Net-(D36-A)*%
X339180042Y-228774599D03*
D10*
X337820000Y-229235000D03*
%TD*%
%TO.P,MX13,1,1*%
%TO.N,col0*%
X52863750Y-212725000D03*
%TO.P,MX13,2,2*%
%TO.N,Net-(D13-A)*%
X56673750Y-221165000D03*
%TO.P,MX13,1,1*%
%TO.N,col0*%
X51573750Y-219165000D03*
D11*
%TO.P,MX13,2,2*%
%TO.N,Net-(D13-A)*%
X60573792Y-209724599D03*
D10*
X59213750Y-210185000D03*
%TD*%
%TO.P,MX18,1,1*%
%TO.N,col5*%
X150495000Y-212725000D03*
%TO.P,MX18,2,2*%
%TO.N,Net-(D18-A)*%
X154305000Y-221165000D03*
%TO.P,MX18,1,1*%
%TO.N,col5*%
X149205000Y-219165000D03*
D11*
%TO.P,MX18,2,2*%
%TO.N,Net-(D18-A)*%
X158205042Y-209724599D03*
D10*
X156845000Y-210185000D03*
%TD*%
%TO.P,MX12,1,1*%
%TO.N,col11*%
X324326250Y-193675000D03*
%TO.P,MX12,2,2*%
%TO.N,Net-(D12-A)*%
X328136250Y-202115000D03*
%TO.P,MX12,1,1*%
%TO.N,col11*%
X323036250Y-200115000D03*
D11*
%TO.P,MX12,2,2*%
%TO.N,Net-(D12-A)*%
X332036292Y-190674599D03*
D10*
X330676250Y-191135000D03*
%TD*%
%TO.P,MX9,1,1*%
%TO.N,col8*%
X260032500Y-193675000D03*
%TO.P,MX9,2,2*%
%TO.N,Net-(D9-A)*%
X263842500Y-202115000D03*
%TO.P,MX9,1,1*%
%TO.N,col8*%
X258742500Y-200115000D03*
D11*
%TO.P,MX9,2,2*%
%TO.N,Net-(D9-A)*%
X267742542Y-190674599D03*
D10*
X266382500Y-191135000D03*
%TD*%
%TO.P,MX30,1,1*%
%TO.N,col5*%
X160020000Y-231775000D03*
%TO.P,MX30,2,2*%
%TO.N,Net-(D30-A)*%
X163830000Y-240215000D03*
%TO.P,MX30,1,1*%
%TO.N,col5*%
X158730000Y-238215000D03*
D11*
%TO.P,MX30,2,2*%
%TO.N,Net-(D30-A)*%
X167730042Y-228774599D03*
D10*
X166370000Y-229235000D03*
%TD*%
%TO.P,MX20,1,1*%
%TO.N,col7*%
X245745000Y-212725000D03*
%TO.P,MX20,2,2*%
%TO.N,Net-(D20-A)*%
X249555000Y-221165000D03*
%TO.P,MX20,1,1*%
%TO.N,col7*%
X244455000Y-219165000D03*
D11*
%TO.P,MX20,2,2*%
%TO.N,Net-(D20-A)*%
X253455042Y-209724599D03*
D10*
X252095000Y-210185000D03*
%TD*%
%TO.P,MX38,1,1*%
%TO.N,col4*%
X138588750Y-250825000D03*
%TO.P,MX38,2,2*%
%TO.N,Net-(D38-A)*%
X142398750Y-259265000D03*
%TO.P,MX38,1,1*%
%TO.N,col4*%
X137298750Y-257265000D03*
D11*
%TO.P,MX38,2,2*%
%TO.N,Net-(D38-A)*%
X146298792Y-247824599D03*
D10*
X144938750Y-248285000D03*
%TD*%
%TO.P,MX19,1,1*%
%TO.N,col6*%
X226695000Y-212725000D03*
%TO.P,MX19,2,2*%
%TO.N,Net-(D19-A)*%
X230505000Y-221165000D03*
%TO.P,MX19,1,1*%
%TO.N,col6*%
X225405000Y-219165000D03*
D11*
%TO.P,MX19,2,2*%
%TO.N,Net-(D19-A)*%
X234405042Y-209724599D03*
D10*
X233045000Y-210185000D03*
%TD*%
%TO.P,MX3,1,1*%
%TO.N,col2*%
X88582500Y-193675000D03*
%TO.P,MX3,2,2*%
%TO.N,Net-(D3-A)*%
X92392500Y-202115000D03*
%TO.P,MX3,1,1*%
%TO.N,col2*%
X87292500Y-200115000D03*
D11*
%TO.P,MX3,2,2*%
%TO.N,Net-(D3-A)*%
X96292542Y-190674599D03*
D10*
X94932500Y-191135000D03*
%TD*%
%TO.P,MX32,1,1*%
%TO.N,col7*%
X255270000Y-231775000D03*
%TO.P,MX32,2,2*%
%TO.N,Net-(D32-A)*%
X259080000Y-240215000D03*
%TO.P,MX32,1,1*%
%TO.N,col7*%
X253980000Y-238215000D03*
D11*
%TO.P,MX32,2,2*%
%TO.N,Net-(D32-A)*%
X262980042Y-228774599D03*
D10*
X261620000Y-229235000D03*
%TD*%
%TO.P,MX15,1,1*%
%TO.N,col2*%
X93345000Y-212725000D03*
%TO.P,MX15,2,2*%
%TO.N,Net-(D15-A)*%
X97155000Y-221165000D03*
%TO.P,MX15,1,1*%
%TO.N,col2*%
X92055000Y-219165000D03*
D11*
%TO.P,MX15,2,2*%
%TO.N,Net-(D15-A)*%
X101055042Y-209724599D03*
D10*
X99695000Y-210185000D03*
%TD*%
%TO.P,MX35,1,1*%
%TO.N,col10*%
X312420000Y-231775000D03*
%TO.P,MX35,2,2*%
%TO.N,Net-(D35-A)*%
X316230000Y-240215000D03*
%TO.P,MX35,1,1*%
%TO.N,col10*%
X311130000Y-238215000D03*
D11*
%TO.P,MX35,2,2*%
%TO.N,Net-(D35-A)*%
X320130042Y-228774599D03*
D10*
X318770000Y-229235000D03*
%TD*%
%TO.P,MX29,1,1*%
%TO.N,col4*%
X140970000Y-231775000D03*
%TO.P,MX29,2,2*%
%TO.N,Net-(D29-A)*%
X144780000Y-240215000D03*
%TO.P,MX29,1,1*%
%TO.N,col4*%
X139680000Y-238215000D03*
D11*
%TO.P,MX29,2,2*%
%TO.N,Net-(D29-A)*%
X148680042Y-228774599D03*
D10*
X147320000Y-229235000D03*
%TD*%
%TO.P,MX31,1,1*%
%TO.N,col6*%
X236220000Y-231775000D03*
%TO.P,MX31,2,2*%
%TO.N,Net-(D31-A)*%
X240030000Y-240215000D03*
%TO.P,MX31,1,1*%
%TO.N,col6*%
X234930000Y-238215000D03*
D11*
%TO.P,MX31,2,2*%
%TO.N,Net-(D31-A)*%
X243930042Y-228774599D03*
D10*
X242570000Y-229235000D03*
%TD*%
%TO.P,MX28,1,1*%
%TO.N,col3*%
X121920000Y-231775000D03*
%TO.P,MX28,2,2*%
%TO.N,Net-(D28-A)*%
X125730000Y-240215000D03*
%TO.P,MX28,1,1*%
%TO.N,col3*%
X120630000Y-238215000D03*
D11*
%TO.P,MX28,2,2*%
%TO.N,Net-(D28-A)*%
X129630042Y-228774599D03*
D10*
X128270000Y-229235000D03*
%TD*%
%TO.P,MX4,1,1*%
%TO.N,col3*%
X107632500Y-193675000D03*
%TO.P,MX4,2,2*%
%TO.N,Net-(D4-A)*%
X111442500Y-202115000D03*
%TO.P,MX4,1,1*%
%TO.N,col3*%
X106342500Y-200115000D03*
D11*
%TO.P,MX4,2,2*%
%TO.N,Net-(D4-A)*%
X115342542Y-190674599D03*
D10*
X113982500Y-191135000D03*
%TD*%
%TO.P,MX23,1,1*%
%TO.N,col10*%
X302895000Y-212725000D03*
%TO.P,MX23,2,2*%
%TO.N,Net-(D23-A)*%
X306705000Y-221165000D03*
%TO.P,MX23,1,1*%
%TO.N,col10*%
X301605000Y-219165000D03*
D11*
%TO.P,MX23,2,2*%
%TO.N,Net-(D23-A)*%
X310605042Y-209724599D03*
D10*
X309245000Y-210185000D03*
%TD*%
%TO.P,MX17,1,1*%
%TO.N,col4*%
X131445000Y-212725000D03*
%TO.P,MX17,2,2*%
%TO.N,Net-(D17-A)*%
X135255000Y-221165000D03*
%TO.P,MX17,1,1*%
%TO.N,col4*%
X130155000Y-219165000D03*
D11*
%TO.P,MX17,2,2*%
%TO.N,Net-(D17-A)*%
X139155042Y-209724599D03*
D10*
X137795000Y-210185000D03*
%TD*%
%TO.P,MX8,1,1*%
%TO.N,col7*%
X240982500Y-193675000D03*
%TO.P,MX8,2,2*%
%TO.N,Net-(D8-A)*%
X244792500Y-202115000D03*
%TO.P,MX8,1,1*%
%TO.N,col7*%
X239692500Y-200115000D03*
D11*
%TO.P,MX8,2,2*%
%TO.N,Net-(D8-A)*%
X248692542Y-190674599D03*
D10*
X247332500Y-191135000D03*
%TD*%
%TO.P,MX26,1,1*%
%TO.N,col1*%
X83820000Y-231775000D03*
%TO.P,MX26,2,2*%
%TO.N,Net-(D26-A)*%
X87630000Y-240215000D03*
%TO.P,MX26,1,1*%
%TO.N,col1*%
X82530000Y-238215000D03*
D11*
%TO.P,MX26,2,2*%
%TO.N,Net-(D26-A)*%
X91530042Y-228774599D03*
D10*
X90170000Y-229235000D03*
%TD*%
%TO.P,MX41,1,1*%
%TO.N,col7*%
X267176250Y-250825000D03*
%TO.P,MX41,2,2*%
%TO.N,Net-(D41-A)*%
X270986250Y-259265000D03*
%TO.P,MX41,1,1*%
%TO.N,col7*%
X265886250Y-257265000D03*
D11*
%TO.P,MX41,2,2*%
%TO.N,Net-(D41-A)*%
X274886292Y-247824599D03*
D10*
X273526250Y-248285000D03*
%TD*%
%TO.P,MX34,1,1*%
%TO.N,col9*%
X293370000Y-231775000D03*
%TO.P,MX34,2,2*%
%TO.N,Net-(D34-A)*%
X297180000Y-240215000D03*
%TO.P,MX34,1,1*%
%TO.N,col9*%
X292080000Y-238215000D03*
D11*
%TO.P,MX34,2,2*%
%TO.N,Net-(D34-A)*%
X301080042Y-228774599D03*
D10*
X299720000Y-229235000D03*
%TD*%
D12*
%TO.P,J4,1,Pin_1*%
%TO.N,Net-(J4-Pin_1)*%
X301305000Y-246600000D03*
%TD*%
D13*
%TO.P,D12,1,K*%
%TO.N,row0*%
X214310000Y-213836250D03*
D14*
%TO.P,D12,2,A*%
%TO.N,Net-(D12-A)*%
X214310000Y-206216250D03*
%TD*%
D13*
%TO.P,D23,1,K*%
%TO.N,row1*%
X205740000Y-230505000D03*
D14*
%TO.P,D23,2,A*%
%TO.N,Net-(D23-A)*%
X213360000Y-230505000D03*
%TD*%
D15*
%TO.P,J3,1,Pin_1*%
%TO.N,Net-(J3-Pin_1)*%
X343350000Y-249140000D03*
D16*
%TO.P,J3,2,Pin_2*%
%TO.N,gnd2*%
X343350000Y-251680000D03*
%TO.P,J3,3,Pin_3*%
%TO.N,Net-(J10-Pin_2)*%
X343350000Y-254220000D03*
%TO.P,J3,4,Pin_4*%
%TO.N,Net-(J10-Pin_3)*%
X343350000Y-256760000D03*
%TO.P,J3,5,Pin_5*%
%TO.N,Net-(J10-Pin_4)*%
X343350000Y-259300000D03*
%TD*%
D13*
%TO.P,D33,1,K*%
%TO.N,row2*%
X214312500Y-244697500D03*
D14*
%TO.P,D33,2,A*%
%TO.N,Net-(D33-A)*%
X214312500Y-237077500D03*
%TD*%
D17*
%TO.P,U2,1,D3-TX*%
%TO.N,d3*%
X65900000Y-261540000D03*
%TO.P,U2,2,D2-RX*%
%TO.N,d2*%
X68440000Y-261540000D03*
D18*
%TO.P,U2,3,GND*%
%TO.N,gndPM2*%
X70980000Y-261540000D03*
%TO.P,U2,4,GND*%
%TO.N,unconnected-(U2-GND-Pad4)*%
X73520000Y-261540000D03*
D17*
%TO.P,U2,5,D1*%
%TO.N,d1*%
X76060000Y-261540000D03*
%TO.P,U2,6,D0*%
%TO.N,d0*%
X78600000Y-261540000D03*
%TO.P,U2,7,D4*%
%TO.N,d4*%
X81140000Y-261540000D03*
%TO.P,U2,8,C6*%
%TO.N,c6*%
X83680000Y-261540000D03*
%TO.P,U2,9,D7*%
%TO.N,d7*%
X86220000Y-261540000D03*
%TO.P,U2,10,E6*%
%TO.N,e6*%
X88760000Y-261540000D03*
%TO.P,U2,11,B4*%
%TO.N,b4*%
X91300000Y-261540000D03*
%TO.P,U2,12,B5*%
%TO.N,b5*%
X93840000Y-261540000D03*
%TO.P,U2,13,B0*%
%TO.N,unconnected-(U2-B0-Pad13)*%
X65900000Y-246300000D03*
D18*
%TO.P,U2,14,GND*%
%TO.N,gndPM*%
X68440000Y-246300000D03*
D17*
%TO.P,U2,15,RST*%
%TO.N,rstPM*%
X70980000Y-246300000D03*
%TO.P,U2,16,VCC*%
%TO.N,vccPM*%
X73520000Y-246300000D03*
%TO.P,U2,17,F4*%
%TO.N,f4*%
X76060000Y-246300000D03*
%TO.P,U2,18,F5*%
%TO.N,f5*%
X78600000Y-246300000D03*
%TO.P,U2,19,F6*%
%TO.N,f6*%
X81140000Y-246300000D03*
%TO.P,U2,20,F7*%
%TO.N,f7*%
X83680000Y-246300000D03*
%TO.P,U2,21,B1*%
%TO.N,b1*%
X86220000Y-246300000D03*
%TO.P,U2,22,B3*%
%TO.N,b3*%
X88760000Y-246300000D03*
%TO.P,U2,23,B2*%
%TO.N,b2*%
X91300000Y-246300000D03*
%TO.P,U2,24,B6*%
%TO.N,b6*%
X93840000Y-246300000D03*
%TD*%
D13*
%TO.P,D17,1,K*%
%TO.N,row1*%
X171450000Y-220980000D03*
D14*
%TO.P,D17,2,A*%
%TO.N,Net-(D17-A)*%
X171450000Y-213360000D03*
%TD*%
D13*
%TO.P,D16,1,K*%
%TO.N,row1*%
X175736250Y-222408750D03*
D14*
%TO.P,D16,2,A*%
%TO.N,Net-(D16-A)*%
X175736250Y-214788750D03*
%TD*%
D13*
%TO.P,D25,1,K*%
%TO.N,row2*%
X189530000Y-252880000D03*
D14*
%TO.P,D25,2,A*%
%TO.N,Net-(D25-A)*%
X189530000Y-245260000D03*
%TD*%
D13*
%TO.P,D3,1,K*%
%TO.N,row0*%
X171450000Y-201930000D03*
D14*
%TO.P,D3,2,A*%
%TO.N,Net-(D3-A)*%
X171450000Y-194310000D03*
%TD*%
D13*
%TO.P,D41,1,K*%
%TO.N,row3*%
X214788750Y-258603750D03*
D14*
%TO.P,D41,2,A*%
%TO.N,Net-(D41-A)*%
X222408750Y-258603750D03*
%TD*%
D15*
%TO.P,J6,1,Pin_1*%
%TO.N,unconnected-(J6-Pin_1-Pad1)*%
X297675000Y-246645000D03*
D16*
%TO.P,J6,2,Pin_2*%
%TO.N,Net-(J4-Pin_1)*%
X295135000Y-246645000D03*
%TO.P,J6,3,Pin_3*%
%TO.N,gnd2*%
X292595000Y-246645000D03*
%TD*%
D13*
%TO.P,D31,1,K*%
%TO.N,row2*%
X205740000Y-241840000D03*
D14*
%TO.P,D31,2,A*%
%TO.N,Net-(D31-A)*%
X205740000Y-234220000D03*
%TD*%
D13*
%TO.P,D40,1,K*%
%TO.N,row3*%
X226218750Y-258603750D03*
D14*
%TO.P,D40,2,A*%
%TO.N,Net-(D40-A)*%
X233838750Y-258603750D03*
%TD*%
D13*
%TO.P,D14,1,K*%
%TO.N,row1*%
X184308750Y-225266250D03*
D14*
%TO.P,D14,2,A*%
%TO.N,Net-(D14-A)*%
X184308750Y-217646250D03*
%TD*%
D13*
%TO.P,D20,1,K*%
%TO.N,row1*%
X214312500Y-226218750D03*
D14*
%TO.P,D20,2,A*%
%TO.N,Net-(D20-A)*%
X214312500Y-218598750D03*
%TD*%
D13*
%TO.P,D28,1,K*%
%TO.N,row2*%
X185261250Y-240030000D03*
D14*
%TO.P,D28,2,A*%
%TO.N,Net-(D28-A)*%
X185261250Y-232410000D03*
%TD*%
D15*
%TO.P,J7,1,Pin_1*%
%TO.N,unconnected-(J7-Pin_1-Pad1)*%
X297715000Y-261830000D03*
D16*
%TO.P,J7,2,Pin_2*%
%TO.N,Net-(J7-Pin_2)*%
X295175000Y-261830000D03*
%TO.P,J7,3,Pin_3*%
%TO.N,rst*%
X292635000Y-261830000D03*
%TD*%
D19*
%TO.P,J1,1,1*%
%TO.N,unconnected-(J1-Pad1)*%
X193357500Y-197577500D03*
D20*
%TO.P,J1,2,2*%
%TO.N,col0*%
X193357500Y-200347500D03*
%TO.P,J1,3,3*%
%TO.N,unconnected-(J1-Pad3)*%
X193357500Y-203117500D03*
%TO.P,J1,4,4*%
%TO.N,unconnected-(J1-Pad4)*%
X193357500Y-205887500D03*
%TO.P,J1,5,5*%
%TO.N,col1*%
X193357500Y-208657500D03*
%TO.P,J1,6,6*%
%TO.N,col2*%
X193357500Y-211427500D03*
%TO.P,J1,7,7*%
%TO.N,col3*%
X193357500Y-214197500D03*
%TO.P,J1,8,8*%
%TO.N,col4*%
X193357500Y-216967500D03*
%TO.P,J1,9,9*%
%TO.N,col5*%
X193357500Y-219737500D03*
%TO.P,J1,10,10*%
%TO.N,row3*%
X193357500Y-222507500D03*
%TO.P,J1,11,11*%
%TO.N,unconnected-(J1-Pad11)*%
X193357500Y-225277500D03*
%TO.P,J1,12,12*%
%TO.N,unconnected-(J1-Pad12)*%
X193357500Y-228047500D03*
%TO.P,J1,13,13*%
%TO.N,row1*%
X193357500Y-230817500D03*
%TO.P,J1,14,P14*%
%TO.N,unconnected-(J1-P14-Pad14)*%
X196197500Y-198962500D03*
%TO.P,J1,15,P15*%
%TO.N,unconnected-(J1-P15-Pad15)*%
X196197500Y-201732500D03*
%TO.P,J1,16,P16*%
%TO.N,unconnected-(J1-P16-Pad16)*%
X196197500Y-204502500D03*
%TO.P,J1,17,P17*%
%TO.N,col11*%
X196197500Y-207272500D03*
%TO.P,J1,18,P18*%
%TO.N,col10*%
X196197500Y-210042500D03*
%TO.P,J1,19,P19*%
%TO.N,col9*%
X196197500Y-212812500D03*
%TO.P,J1,20,P20*%
%TO.N,col8*%
X196197500Y-215582500D03*
%TO.P,J1,21,P21*%
%TO.N,col7*%
X196197500Y-218352500D03*
%TO.P,J1,22,P22*%
%TO.N,col6*%
X196197500Y-221122500D03*
%TO.P,J1,23,P23*%
%TO.N,unconnected-(J1-P23-Pad23)*%
X196197500Y-223892500D03*
%TO.P,J1,24,P24*%
%TO.N,row2*%
X196197500Y-226662500D03*
%TO.P,J1,25,P25*%
%TO.N,row0*%
X196197500Y-229432500D03*
%TD*%
D13*
%TO.P,D30,1,K*%
%TO.N,row2*%
X176688750Y-237172500D03*
D14*
%TO.P,D30,2,A*%
%TO.N,Net-(D30-A)*%
X176688750Y-229552500D03*
%TD*%
D21*
%TO.P,U1,1,TX0/P0.06*%
%TO.N,006*%
X310780000Y-261820000D03*
%TO.P,U1,2,RX1/P0.08*%
%TO.N,008*%
X313320000Y-261820000D03*
%TO.P,U1,3,GND*%
%TO.N,Net-(J7-Pin_2)*%
X315860000Y-261820000D03*
%TO.P,U1,4,GND*%
%TO.N,gnd*%
X318400000Y-261820000D03*
%TO.P,U1,5,P0.17*%
%TO.N,017*%
X320940000Y-261820000D03*
%TO.P,U1,6,P0.20*%
%TO.N,020*%
X323480000Y-261820000D03*
%TO.P,U1,7,P0.22*%
%TO.N,022*%
X326020000Y-261820000D03*
%TO.P,U1,8,P0.24*%
%TO.N,024*%
X328560000Y-261820000D03*
%TO.P,U1,9,P1.00*%
%TO.N,100*%
X331100000Y-261820000D03*
%TO.P,U1,10,P0.11*%
%TO.N,011*%
X333640000Y-261820000D03*
%TO.P,U1,11,P1.04*%
%TO.N,004*%
X336180000Y-261820000D03*
%TO.P,U1,12,P1.06*%
%TO.N,106*%
X338720000Y-261820000D03*
%TO.P,U1,13,NFC1/P0.09*%
%TO.N,009*%
X338720000Y-246580000D03*
%TO.P,U1,14,NFC2/P0.10*%
%TO.N,010*%
X336180000Y-246580000D03*
%TO.P,U1,15,P1.11*%
%TO.N,111*%
X333640000Y-246580000D03*
%TO.P,U1,16,P1.13*%
%TO.N,113*%
X331100000Y-246580000D03*
%TO.P,U1,17,P1.15*%
%TO.N,115*%
X328560000Y-246580000D03*
%TO.P,U1,18,AIN0/P0.02*%
%TO.N,002*%
X326020000Y-246580000D03*
%TO.P,U1,19,AIN5/P0.29*%
%TO.N,029*%
X323480000Y-246580000D03*
%TO.P,U1,20,AIN7/P0.31*%
%TO.N,031*%
X320940000Y-246580000D03*
%TO.P,U1,21,VCC*%
%TO.N,Net-(J10-Pin_2)*%
X318400000Y-246580000D03*
%TO.P,U1,22,RST*%
%TO.N,rst*%
X315860000Y-246580000D03*
%TO.P,U1,23,GND*%
%TO.N,gnd2*%
X313320000Y-246580000D03*
%TO.P,U1,24,BATIN/P0.04*%
%TO.N,Net-(J5-Pin_1)*%
X310780000Y-246580000D03*
%TO.P,U1,31,P1.01*%
%TO.N,101*%
X333640000Y-259280000D03*
%TO.P,U1,32,P1.02*%
%TO.N,102*%
X333640000Y-256740000D03*
%TO.P,U1,33,P1.07*%
%TO.N,107*%
X333640000Y-254200000D03*
%TD*%
D13*
%TO.P,D26,1,K*%
%TO.N,row2*%
X185250000Y-251460000D03*
D14*
%TO.P,D26,2,A*%
%TO.N,Net-(D26-A)*%
X185250000Y-243840000D03*
%TD*%
D13*
%TO.P,D5,1,K*%
%TO.N,row0*%
X180022500Y-204787500D03*
D14*
%TO.P,D5,2,A*%
%TO.N,Net-(D5-A)*%
X180022500Y-197167500D03*
%TD*%
D13*
%TO.P,D24,1,K*%
%TO.N,row1*%
X218598750Y-231933750D03*
D14*
%TO.P,D24,2,A*%
%TO.N,Net-(D24-A)*%
X226218750Y-231933750D03*
%TD*%
D13*
%TO.P,D13,1,K*%
%TO.N,row1*%
X176680000Y-210480000D03*
D14*
%TO.P,D13,2,A*%
%TO.N,Net-(D13-A)*%
X184300000Y-210480000D03*
%TD*%
D13*
%TO.P,D21,1,K*%
%TO.N,row1*%
X210026250Y-224790000D03*
D14*
%TO.P,D21,2,A*%
%TO.N,Net-(D21-A)*%
X210026250Y-217170000D03*
%TD*%
D13*
%TO.P,D9,1,K*%
%TO.N,row0*%
X214312500Y-201930000D03*
D14*
%TO.P,D9,2,A*%
%TO.N,Net-(D9-A)*%
X214312500Y-194310000D03*
%TD*%
D13*
%TO.P,D6,1,K*%
%TO.N,row0*%
X184308750Y-206216250D03*
D14*
%TO.P,D6,2,A*%
%TO.N,Net-(D6-A)*%
X184308750Y-198596250D03*
%TD*%
D13*
%TO.P,D34,1,K*%
%TO.N,row2*%
X218598750Y-246126250D03*
D14*
%TO.P,D34,2,A*%
%TO.N,Net-(D34-A)*%
X218598750Y-238506250D03*
%TD*%
D13*
%TO.P,D29,1,K*%
%TO.N,row2*%
X180975000Y-238601250D03*
D14*
%TO.P,D29,2,A*%
%TO.N,Net-(D29-A)*%
X180975000Y-230981250D03*
%TD*%
D13*
%TO.P,D22,1,K*%
%TO.N,row1*%
X205740000Y-223361250D03*
D14*
%TO.P,D22,2,A*%
%TO.N,Net-(D22-A)*%
X205740000Y-215741250D03*
%TD*%
D13*
%TO.P,D39,1,K*%
%TO.N,row3*%
X180498750Y-258603750D03*
D14*
%TO.P,D39,2,A*%
%TO.N,Net-(D39-A)*%
X188118750Y-258603750D03*
%TD*%
D13*
%TO.P,D4,1,K*%
%TO.N,row0*%
X175736250Y-203358750D03*
D14*
%TO.P,D4,2,A*%
%TO.N,Net-(D4-A)*%
X175736250Y-195738750D03*
%TD*%
D13*
%TO.P,D8,1,K*%
%TO.N,row0*%
X210026250Y-200501250D03*
D14*
%TO.P,D8,2,A*%
%TO.N,Net-(D8-A)*%
X210026250Y-192881250D03*
%TD*%
D13*
%TO.P,D15,1,K*%
%TO.N,row1*%
X180022500Y-223837500D03*
D14*
%TO.P,D15,2,A*%
%TO.N,Net-(D15-A)*%
X180022500Y-216217500D03*
%TD*%
D12*
%TO.P,J5,1,Pin_1*%
%TO.N,Net-(J5-Pin_1)*%
X304955000Y-246600000D03*
%TD*%
D13*
%TO.P,D38,1,K*%
%TO.N,row3*%
X191928750Y-258603750D03*
D14*
%TO.P,D38,2,A*%
%TO.N,Net-(D38-A)*%
X199548750Y-258603750D03*
%TD*%
D13*
%TO.P,D19,1,K*%
%TO.N,row1*%
X218598750Y-227647500D03*
D14*
%TO.P,D19,2,A*%
%TO.N,Net-(D19-A)*%
X218598750Y-220027500D03*
%TD*%
D15*
%TO.P,J9,1,Pin_1*%
%TO.N,unconnected-(J9-Pin_1-Pad1)*%
X97025000Y-256525000D03*
D16*
%TO.P,J9,2,Pin_2*%
%TO.N,gndPM2*%
X97025000Y-253985000D03*
%TO.P,J9,3,Pin_3*%
%TO.N,rstPM*%
X97025000Y-251445000D03*
%TD*%
D13*
%TO.P,D1,1,K*%
%TO.N,row0*%
X162877500Y-199072500D03*
D14*
%TO.P,D1,2,A*%
%TO.N,Net-(D1-A)*%
X162877500Y-191452500D03*
%TD*%
D13*
%TO.P,D7,1,K*%
%TO.N,row0*%
X205740000Y-199072500D03*
D14*
%TO.P,D7,2,A*%
%TO.N,Net-(D7-A)*%
X205740000Y-191452500D03*
%TD*%
D13*
%TO.P,D36,1,K*%
%TO.N,row2*%
X227171250Y-248983750D03*
D14*
%TO.P,D36,2,A*%
%TO.N,Net-(D36-A)*%
X227171250Y-241363750D03*
%TD*%
D13*
%TO.P,D11,1,K*%
%TO.N,row0*%
X210026250Y-212370000D03*
D14*
%TO.P,D11,2,A*%
%TO.N,Net-(D11-A)*%
X210026250Y-204750000D03*
%TD*%
D13*
%TO.P,D32,1,K*%
%TO.N,row2*%
X210026250Y-243268750D03*
D14*
%TO.P,D32,2,A*%
%TO.N,Net-(D32-A)*%
X210026250Y-235648750D03*
%TD*%
D15*
%TO.P,J10,1,Pin_1*%
%TO.N,gnd2*%
X341225000Y-250510000D03*
D16*
%TO.P,J10,2,Pin_2*%
%TO.N,Net-(J10-Pin_2)*%
X341225000Y-253050000D03*
%TO.P,J10,3,Pin_3*%
%TO.N,Net-(J10-Pin_3)*%
X341225000Y-255590000D03*
%TO.P,J10,4,Pin_4*%
%TO.N,Net-(J10-Pin_4)*%
X341225000Y-258130000D03*
%TD*%
D13*
%TO.P,D27,1,K*%
%TO.N,row2*%
X180960000Y-250020000D03*
D14*
%TO.P,D27,2,A*%
%TO.N,Net-(D27-A)*%
X180960000Y-242400000D03*
%TD*%
D13*
%TO.P,D18,1,K*%
%TO.N,row1*%
X167163750Y-219551250D03*
D14*
%TO.P,D18,2,A*%
%TO.N,Net-(D18-A)*%
X167163750Y-211931250D03*
%TD*%
D13*
%TO.P,D2,1,K*%
%TO.N,row0*%
X167163750Y-200501250D03*
D14*
%TO.P,D2,2,A*%
%TO.N,Net-(D2-A)*%
X167163750Y-192881250D03*
%TD*%
D13*
%TO.P,D10,1,K*%
%TO.N,row0*%
X205740000Y-210970000D03*
D14*
%TO.P,D10,2,A*%
%TO.N,Net-(D10-A)*%
X205740000Y-203350000D03*
%TD*%
D13*
%TO.P,D35,1,K*%
%TO.N,row2*%
X222885000Y-247555000D03*
D14*
%TO.P,D35,2,A*%
%TO.N,Net-(D35-A)*%
X222885000Y-239935000D03*
%TD*%
D13*
%TO.P,D37,1,K*%
%TO.N,row3*%
X203358750Y-258603750D03*
D14*
%TO.P,D37,2,A*%
%TO.N,Net-(D37-A)*%
X210978750Y-258603750D03*
%TD*%
D22*
%TO.P,JP1,1,A*%
%TO.N,017*%
X338370000Y-257610000D03*
%TO.P,JP1,2,C*%
%TO.N,Net-(J10-Pin_4)*%
X338370000Y-256310000D03*
%TO.P,JP1,3,B*%
%TO.N,101*%
X338370000Y-255010000D03*
%TD*%
D19*
%TO.P,J2,1,1*%
%TO.N,006*%
X294260000Y-255640000D03*
D20*
%TO.P,J2,2,2*%
%TO.N,008*%
X297030000Y-255640000D03*
%TO.P,J2,3,3*%
%TO.N,017*%
X299800000Y-255640000D03*
%TO.P,J2,4,4*%
%TO.N,020*%
X302570000Y-255640000D03*
%TO.P,J2,5,5*%
%TO.N,022*%
X305340000Y-255640000D03*
%TO.P,J2,6,6*%
%TO.N,024*%
X308110000Y-255640000D03*
%TO.P,J2,7,7*%
%TO.N,100*%
X310880000Y-255640000D03*
%TO.P,J2,8,8*%
%TO.N,011*%
X313650000Y-255640000D03*
%TO.P,J2,9,9*%
%TO.N,004*%
X316420000Y-255640000D03*
%TO.P,J2,10,10*%
%TO.N,106*%
X319190000Y-255640000D03*
%TO.P,J2,11,11*%
%TO.N,gnd2*%
X321960000Y-255640000D03*
%TO.P,J2,12,12*%
%TO.N,101*%
X324730000Y-255640000D03*
%TO.P,J2,13,13*%
%TO.N,102*%
X327500000Y-255640000D03*
%TO.P,J2,14,P14*%
%TO.N,gnd2*%
X295645000Y-252800000D03*
%TO.P,J2,15,P15*%
%TO.N,rst*%
X298415000Y-252800000D03*
%TO.P,J2,16,P16*%
%TO.N,vccJ*%
X301185000Y-252800000D03*
%TO.P,J2,17,P17*%
%TO.N,031*%
X303955000Y-252800000D03*
%TO.P,J2,18,P18*%
%TO.N,029*%
X306725000Y-252800000D03*
%TO.P,J2,19,P19*%
%TO.N,002*%
X309495000Y-252800000D03*
%TO.P,J2,20,P20*%
%TO.N,115*%
X312265000Y-252800000D03*
%TO.P,J2,21,P21*%
%TO.N,113*%
X315035000Y-252800000D03*
%TO.P,J2,22,P22*%
%TO.N,111*%
X317805000Y-252800000D03*
%TO.P,J2,23,P23*%
%TO.N,010*%
X320575000Y-252800000D03*
%TO.P,J2,24,P24*%
%TO.N,009*%
X323345000Y-252800000D03*
%TO.P,J2,25,P25*%
%TO.N,107*%
X326115000Y-252800000D03*
%TD*%
D23*
%TO.P,JP3,1,A*%
%TO.N,006*%
X332490000Y-250890000D03*
%TO.P,JP3,2,C*%
%TO.N,Net-(J3-Pin_1)*%
X333790000Y-250890000D03*
%TO.P,JP3,3,B*%
%TO.N,107*%
X335090000Y-250890000D03*
%TD*%
D22*
%TO.P,JP2,1,A*%
%TO.N,020*%
X338380000Y-252960000D03*
%TO.P,JP2,2,C*%
%TO.N,Net-(J10-Pin_3)*%
X338380000Y-251660000D03*
%TO.P,JP2,3,B*%
%TO.N,102*%
X338380000Y-250360000D03*
%TD*%
D19*
%TO.P,J8,1,1*%
%TO.N,unconnected-(J8-Pad1)*%
X55455000Y-255390000D03*
D20*
%TO.P,J8,2,2*%
%TO.N,d3*%
X58225000Y-255390000D03*
%TO.P,J8,3,3*%
%TO.N,unconnected-(J8-Pad3)*%
X60995000Y-255390000D03*
%TO.P,J8,4,4*%
%TO.N,unconnected-(J8-Pad4)*%
X63765000Y-255390000D03*
%TO.P,J8,5,5*%
%TO.N,d2*%
X66535000Y-255390000D03*
%TO.P,J8,6,6*%
%TO.N,d4*%
X69305000Y-255390000D03*
%TO.P,J8,7,7*%
%TO.N,c6*%
X72075000Y-255390000D03*
%TO.P,J8,8,8*%
%TO.N,d7*%
X74845000Y-255390000D03*
%TO.P,J8,9,9*%
%TO.N,e6*%
X77615000Y-255390000D03*
%TO.P,J8,10,10*%
%TO.N,b4*%
X80385000Y-255390000D03*
%TO.P,J8,11,11*%
%TO.N,unconnected-(J8-Pad11)*%
X83155000Y-255390000D03*
%TO.P,J8,12,12*%
%TO.N,unconnected-(J8-Pad12)*%
X85925000Y-255390000D03*
%TO.P,J8,13,13*%
%TO.N,b5*%
X88695000Y-255390000D03*
%TO.P,J8,14,P14*%
%TO.N,gndPM*%
X56840000Y-252550000D03*
%TO.P,J8,15,P15*%
%TO.N,rstPM*%
X59610000Y-252550000D03*
%TO.P,J8,16,P16*%
%TO.N,vccPM*%
X62380000Y-252550000D03*
%TO.P,J8,17,P17*%
%TO.N,f4*%
X65150000Y-252550000D03*
%TO.P,J8,18,P18*%
%TO.N,f5*%
X67920000Y-252550000D03*
%TO.P,J8,19,P19*%
%TO.N,f6*%
X70690000Y-252550000D03*
%TO.P,J8,20,P20*%
%TO.N,f7*%
X73460000Y-252550000D03*
%TO.P,J8,21,P21*%
%TO.N,b1*%
X76230000Y-252550000D03*
%TO.P,J8,22,P22*%
%TO.N,b3*%
X79000000Y-252550000D03*
%TO.P,J8,23,P23*%
%TO.N,unconnected-(J8-P23-Pad23)*%
X81770000Y-252550000D03*
%TO.P,J8,24,P24*%
%TO.N,b2*%
X84540000Y-252550000D03*
%TO.P,J8,25,P25*%
%TO.N,b6*%
X87310000Y-252550000D03*
%TD*%
D24*
%TO.N,gnd2*%
X341250000Y-248350000D03*
%TD*%
D25*
%TO.N,Net-(D39-A)*%
X167286250Y-260340000D02*
X166211250Y-259265000D01*
X188118750Y-258603750D02*
X186382500Y-260340000D01*
X186382500Y-260340000D02*
X167286250Y-260340000D01*
%TO.N,row2*%
X227171250Y-254528750D02*
X227171250Y-248983750D01*
X224975000Y-256725000D02*
X227171250Y-254528750D01*
X193375000Y-256725000D02*
X224975000Y-256725000D01*
X189530000Y-252880000D02*
X193375000Y-256725000D01*
%TO.N,Net-(D1-A)*%
X162877500Y-191452500D02*
X159864042Y-191452500D01*
X158591250Y-199392792D02*
X152544042Y-205440000D01*
X152544042Y-205440000D02*
X73518750Y-205440000D01*
X158591250Y-192725292D02*
X158591250Y-199392792D01*
X159864042Y-191452500D02*
X158591250Y-192725292D01*
X73518750Y-205440000D02*
X70193750Y-202115000D01*
X70193750Y-202115000D02*
X54292500Y-202115000D01*
%TO.N,Net-(D2-A)*%
X152357646Y-204990000D02*
X76217500Y-204990000D01*
X167163750Y-192881250D02*
X167163750Y-190976250D01*
X158115000Y-199232646D02*
X152357646Y-204990000D01*
X167163750Y-190976250D02*
X166211250Y-190023750D01*
X166211250Y-190023750D02*
X160656396Y-190023750D01*
X76217500Y-204990000D02*
X73342500Y-202115000D01*
X160656396Y-190023750D02*
X158115000Y-192565146D01*
X158115000Y-192565146D02*
X158115000Y-199232646D01*
%TO.N,Net-(D3-A)*%
X152171250Y-204540000D02*
X157638750Y-199072500D01*
X92392500Y-202115000D02*
X92577500Y-202115000D01*
X160496250Y-189547500D02*
X170021250Y-189547500D01*
X95002500Y-204540000D02*
X152171250Y-204540000D01*
X170021250Y-189547500D02*
X171450000Y-190976250D01*
X92577500Y-202115000D02*
X95002500Y-204540000D01*
X171450000Y-190976250D02*
X171450000Y-194310000D01*
X157638750Y-192405000D02*
X160496250Y-189547500D01*
X157638750Y-199072500D02*
X157638750Y-192405000D01*
%TO.N,Net-(D4-A)*%
X173831250Y-189071250D02*
X160336104Y-189071250D01*
X175736250Y-190976250D02*
X173831250Y-189071250D01*
X151984854Y-204090000D02*
X113417500Y-204090000D01*
X157162500Y-192244854D02*
X157162500Y-198912354D01*
X175736250Y-195738750D02*
X175736250Y-190976250D01*
X113417500Y-204090000D02*
X111442500Y-202115000D01*
X157162500Y-198912354D02*
X151984854Y-204090000D01*
X160336104Y-189071250D02*
X157162500Y-192244854D01*
%TO.N,Net-(D5-A)*%
X180022500Y-197167500D02*
X180022500Y-190976250D01*
X160175958Y-188595000D02*
X156686250Y-192084708D01*
X180022500Y-190976250D02*
X177641250Y-188595000D01*
X151798458Y-203640000D02*
X132017500Y-203640000D01*
X177641250Y-188595000D02*
X160175958Y-188595000D01*
X156686250Y-198752208D02*
X151798458Y-203640000D01*
X132017500Y-203640000D02*
X130492500Y-202115000D01*
X156686250Y-192084708D02*
X156686250Y-198752208D01*
%TO.N,Net-(D6-A)*%
X157469562Y-190665000D02*
X154542500Y-190665000D01*
X184308750Y-198596250D02*
X184308750Y-190976250D01*
X181451250Y-188118750D02*
X160015812Y-188118750D01*
X184308750Y-190976250D02*
X181451250Y-188118750D01*
X160015812Y-188118750D02*
X157469562Y-190665000D01*
%TO.N,Net-(D7-A)*%
X219682500Y-203966250D02*
X223706250Y-203966250D01*
X218122500Y-202406250D02*
X219682500Y-203966250D01*
X223706250Y-203966250D02*
X225557500Y-202115000D01*
X225557500Y-202115000D02*
X225742500Y-202115000D01*
X218122500Y-194626104D02*
X218122500Y-202406250D01*
X214948896Y-191452500D02*
X218122500Y-194626104D01*
X205740000Y-191452500D02*
X214948896Y-191452500D01*
%TO.N,Net-(D8-A)*%
X210026250Y-192881250D02*
X215741250Y-192881250D01*
X215741250Y-192881250D02*
X217646250Y-194786250D01*
X242491250Y-204416250D02*
X244792500Y-202115000D01*
X217646250Y-202566396D02*
X219496104Y-204416250D01*
X217646250Y-194786250D02*
X217646250Y-202566396D01*
X219496104Y-204416250D02*
X242491250Y-204416250D01*
%TO.N,Net-(D9-A)*%
X263657500Y-201930000D02*
X263842500Y-202115000D01*
X216520000Y-194310000D02*
X217196250Y-194986250D01*
X217196250Y-194986250D02*
X217196250Y-202752792D01*
X244197926Y-204866250D02*
X247134176Y-201930000D01*
X219309708Y-204866250D02*
X244197926Y-204866250D01*
X247134176Y-201930000D02*
X263657500Y-201930000D01*
X217196250Y-202752792D02*
X219309708Y-204866250D01*
X214312500Y-194310000D02*
X216520000Y-194310000D01*
%TO.N,Net-(D10-A)*%
X281367500Y-203640000D02*
X263210824Y-203640000D01*
X282892500Y-202115000D02*
X281367500Y-203640000D01*
X244384322Y-205316250D02*
X219123312Y-205316250D01*
X247320572Y-202380000D02*
X244384322Y-205316250D01*
X263210824Y-203640000D02*
X261950824Y-202380000D01*
X219123312Y-205316250D02*
X217157062Y-203350000D01*
X261950824Y-202380000D02*
X247320572Y-202380000D01*
X217157062Y-203350000D02*
X205740000Y-203350000D01*
%TO.N,Net-(D11-A)*%
X263024428Y-204090000D02*
X261764428Y-202830000D01*
X299967500Y-204090000D02*
X263024428Y-204090000D01*
X244570718Y-205766250D02*
X218936916Y-205766250D01*
X218936916Y-205766250D02*
X217920666Y-204750000D01*
X217920666Y-204750000D02*
X210026250Y-204750000D01*
X261764428Y-202830000D02*
X247506968Y-202830000D01*
X301942500Y-202115000D02*
X299967500Y-204090000D01*
X247506968Y-202830000D02*
X244570718Y-205766250D01*
%TO.N,Net-(D12-A)*%
X313124458Y-209073750D02*
X312236125Y-208185417D01*
X216279167Y-208185417D02*
X214310000Y-206216250D01*
X328136250Y-202115000D02*
X321177500Y-209073750D01*
X321177500Y-209073750D02*
X313124458Y-209073750D01*
X312236125Y-208185417D02*
X216279167Y-208185417D01*
%TO.N,Net-(D13-A)*%
X73192500Y-205890000D02*
X69367500Y-209715000D01*
X173102573Y-209137427D02*
X169855146Y-205890000D01*
X169855146Y-205890000D02*
X73192500Y-205890000D01*
X69367500Y-209715000D02*
X61673750Y-209715000D01*
X182957427Y-209137427D02*
X173102573Y-209137427D01*
X184300000Y-210480000D02*
X182957427Y-209137427D01*
%TO.N,Net-(D14-A)*%
X181130000Y-213360000D02*
X176688750Y-213360000D01*
X86480000Y-206340000D02*
X83105000Y-209715000D01*
X184308750Y-216538750D02*
X181130000Y-213360000D01*
X184308750Y-217646250D02*
X184308750Y-216538750D01*
X176688750Y-213360000D02*
X169668750Y-206340000D01*
X169668750Y-206340000D02*
X86480000Y-206340000D01*
%TO.N,Net-(D15-A)*%
X180022500Y-216217500D02*
X180022500Y-215282500D01*
X105080000Y-206790000D02*
X102155000Y-209715000D01*
X178550000Y-213810000D02*
X176502354Y-213810000D01*
X169482354Y-206790000D02*
X105080000Y-206790000D01*
X176502354Y-213810000D02*
X169482354Y-206790000D01*
X180022500Y-215282500D02*
X178550000Y-213810000D01*
%TO.N,Net-(D16-A)*%
X123680000Y-207240000D02*
X121205000Y-209715000D01*
X169295958Y-207240000D02*
X123680000Y-207240000D01*
X175736250Y-213680292D02*
X169295958Y-207240000D01*
X175736250Y-214788750D02*
X175736250Y-213680292D01*
%TO.N,Net-(D17-A)*%
X171450000Y-210106323D02*
X169033677Y-207690000D01*
X171450000Y-213360000D02*
X171450000Y-210106323D01*
X169033677Y-207690000D02*
X142280000Y-207690000D01*
X142280000Y-207690000D02*
X140255000Y-209715000D01*
%TO.N,Net-(D18-A)*%
X160880000Y-208140000D02*
X159305000Y-209715000D01*
X166230000Y-208140000D02*
X160880000Y-208140000D01*
X167163750Y-211931250D02*
X167163750Y-209073750D01*
X167163750Y-209073750D02*
X166230000Y-208140000D01*
%TO.N,Net-(D19-A)*%
X218598750Y-221456250D02*
X219551250Y-222408750D01*
X218598750Y-220027500D02*
X218598750Y-221456250D01*
X219551250Y-222408750D02*
X229261250Y-222408750D01*
X229261250Y-222408750D02*
X230505000Y-221165000D01*
%TO.N,Net-(D20-A)*%
X216217500Y-222885000D02*
X247835000Y-222885000D01*
X214312500Y-218598750D02*
X214312500Y-220980000D01*
X247835000Y-222885000D02*
X249555000Y-221165000D01*
X214312500Y-220980000D02*
X216217500Y-222885000D01*
%TO.N,Net-(D21-A)*%
X213043896Y-223361250D02*
X266408750Y-223361250D01*
X266408750Y-223361250D02*
X268605000Y-221165000D01*
X210026250Y-217170000D02*
X210026250Y-220343604D01*
X210026250Y-220343604D02*
X213043896Y-223361250D01*
%TO.N,Net-(D22-A)*%
X210978750Y-221932500D02*
X212883750Y-223837500D01*
X205740000Y-215741250D02*
X205740000Y-220503750D01*
X207168750Y-221932500D02*
X210978750Y-221932500D01*
X212883750Y-223837500D02*
X284982500Y-223837500D01*
X205740000Y-220503750D02*
X207168750Y-221932500D01*
X284982500Y-223837500D02*
X287655000Y-221165000D01*
%TO.N,Net-(D23-A)*%
X220027500Y-225742500D02*
X221456250Y-224313750D01*
X218598750Y-230505000D02*
X220027500Y-229076250D01*
X303556250Y-224313750D02*
X306705000Y-221165000D01*
X221456250Y-224313750D02*
X303556250Y-224313750D01*
X220027500Y-229076250D02*
X220027500Y-225742500D01*
X213360000Y-230505000D02*
X218598750Y-230505000D01*
%TO.N,Net-(D24-A)*%
X326892500Y-224790000D02*
X330517500Y-221165000D01*
X227647500Y-224790000D02*
X326892500Y-224790000D01*
X226218750Y-231933750D02*
X226218750Y-226218750D01*
X226218750Y-226218750D02*
X227647500Y-224790000D01*
%TO.N,Net-(D25-A)*%
X145784468Y-242640000D02*
X146965718Y-241458750D01*
X61436250Y-240215000D02*
X63861250Y-242640000D01*
X178972613Y-242640000D02*
X181592613Y-245260000D01*
X161644282Y-241458750D02*
X162825532Y-242640000D01*
X181592613Y-245260000D02*
X189530000Y-245260000D01*
X63861250Y-242640000D02*
X145784468Y-242640000D01*
X146965718Y-241458750D02*
X161644282Y-241458750D01*
X162825532Y-242640000D02*
X178972613Y-242640000D01*
%TO.N,Net-(D26-A)*%
X185250000Y-243840000D02*
X180809009Y-243840000D01*
X180809009Y-243840000D02*
X179159009Y-242190000D01*
X146805572Y-240982500D02*
X145598072Y-242190000D01*
X161804428Y-240982500D02*
X146805572Y-240982500D01*
X145598072Y-242190000D02*
X89605000Y-242190000D01*
X163011928Y-242190000D02*
X161804428Y-240982500D01*
X179159009Y-242190000D02*
X163011928Y-242190000D01*
X89605000Y-242190000D02*
X87630000Y-240215000D01*
%TO.N,Net-(D27-A)*%
X145411676Y-241740000D02*
X146645426Y-240506250D01*
X163198324Y-241740000D02*
X180300000Y-241740000D01*
X124958324Y-241600000D02*
X125098324Y-241740000D01*
X125098324Y-241740000D02*
X145411676Y-241740000D01*
X161964574Y-240506250D02*
X163198324Y-241740000D01*
X180300000Y-241740000D02*
X180960000Y-242400000D01*
X106680000Y-240215000D02*
X108065000Y-241600000D01*
X108065000Y-241600000D02*
X124958324Y-241600000D01*
X146645426Y-240506250D02*
X161964574Y-240506250D01*
%TO.N,Net-(D28-A)*%
X185261250Y-232410000D02*
X185261250Y-230186802D01*
X185261250Y-230186802D02*
X181319448Y-226245000D01*
X150737354Y-227171250D02*
X132323750Y-227171250D01*
X151663604Y-226245000D02*
X150737354Y-227171250D01*
X132323750Y-227171250D02*
X130730000Y-228765000D01*
X181319448Y-226245000D02*
X151663604Y-226245000D01*
%TO.N,Net-(D29-A)*%
X151850000Y-226695000D02*
X149780000Y-228765000D01*
X180975000Y-229076250D02*
X178593750Y-226695000D01*
X178593750Y-226695000D02*
X151850000Y-226695000D01*
X180975000Y-230981250D02*
X180975000Y-229076250D01*
%TO.N,Net-(D30-A)*%
X176688750Y-229552500D02*
X176688750Y-227647500D01*
X176212500Y-227171250D02*
X170423750Y-227171250D01*
X176688750Y-227647500D02*
X176212500Y-227171250D01*
X170423750Y-227171250D02*
X168830000Y-228765000D01*
%TO.N,Net-(D31-A)*%
X224543230Y-234220000D02*
X231305730Y-240982500D01*
X231305730Y-240982500D02*
X239262500Y-240982500D01*
X239262500Y-240982500D02*
X240030000Y-240215000D01*
X205740000Y-234220000D02*
X224543230Y-234220000D01*
%TO.N,Net-(D32-A)*%
X210026250Y-235648750D02*
X225335584Y-235648750D01*
X225335584Y-235648750D02*
X231426834Y-241740000D01*
X257555000Y-241740000D02*
X259080000Y-240215000D01*
X231426834Y-241740000D02*
X257555000Y-241740000D01*
%TO.N,Net-(D33-A)*%
X259261676Y-242190000D02*
X261421676Y-240030000D01*
X231240438Y-242190000D02*
X259261676Y-242190000D01*
X226127938Y-237077500D02*
X231240438Y-242190000D01*
X277945000Y-240030000D02*
X278130000Y-240215000D01*
X214312500Y-237077500D02*
X226127938Y-237077500D01*
X261421676Y-240030000D02*
X277945000Y-240030000D01*
%TO.N,Net-(D34-A)*%
X280385000Y-240215000D02*
X297180000Y-240215000D01*
X218598750Y-238506250D02*
X226920292Y-238506250D01*
X276238324Y-240480000D02*
X277498324Y-241740000D01*
X231054042Y-242640000D02*
X259448072Y-242640000D01*
X278860000Y-241740000D02*
X280385000Y-240215000D01*
X259448072Y-242640000D02*
X261608072Y-240480000D01*
X277498324Y-241740000D02*
X278860000Y-241740000D01*
X261608072Y-240480000D02*
X276238324Y-240480000D01*
X226920292Y-238506250D02*
X231054042Y-242640000D01*
%TO.N,Net-(D35-A)*%
X230867646Y-243090000D02*
X259634468Y-243090000D01*
X259634468Y-243090000D02*
X261794468Y-240930000D01*
X261794468Y-240930000D02*
X276051928Y-240930000D01*
X279046396Y-242190000D02*
X280571396Y-240665000D01*
X276051928Y-240930000D02*
X277311928Y-242190000D01*
X277311928Y-242190000D02*
X279046396Y-242190000D01*
X295473324Y-240665000D02*
X296548324Y-241740000D01*
X222885000Y-239935000D02*
X227712646Y-239935000D01*
X314705000Y-241740000D02*
X316230000Y-240215000D01*
X227712646Y-239935000D02*
X230867646Y-243090000D01*
X296548324Y-241740000D02*
X314705000Y-241740000D01*
X280571396Y-240665000D02*
X295473324Y-240665000D01*
%TO.N,Net-(D36-A)*%
X280757792Y-241115000D02*
X295286928Y-241115000D01*
X261980864Y-241380000D02*
X275865532Y-241380000D01*
X279232792Y-242640000D02*
X280757792Y-241115000D01*
X228505000Y-241363750D02*
X230681250Y-243540000D01*
X277125532Y-242640000D02*
X279232792Y-242640000D01*
X295286928Y-241115000D02*
X296361928Y-242190000D01*
X296361928Y-242190000D02*
X333305000Y-242190000D01*
X230681250Y-243540000D02*
X259820864Y-243540000D01*
X227171250Y-241363750D02*
X228505000Y-241363750D01*
X333305000Y-242190000D02*
X335280000Y-240215000D01*
X275865532Y-241380000D02*
X277125532Y-242640000D01*
X259820864Y-243540000D02*
X261980864Y-241380000D01*
%TO.N,Net-(D37-A)*%
X120746250Y-261240000D02*
X208342500Y-261240000D01*
X118586250Y-259265000D02*
X118771250Y-259265000D01*
X208342500Y-261240000D02*
X210978750Y-258603750D01*
X118771250Y-259265000D02*
X120746250Y-261240000D01*
%TO.N,Net-(D38-A)*%
X197838750Y-260790000D02*
X143923750Y-260790000D01*
X199548750Y-258603750D02*
X199548750Y-259080000D01*
X199548750Y-259080000D02*
X197838750Y-260790000D01*
X143923750Y-260790000D02*
X142398750Y-259265000D01*
%TO.N,Net-(D40-A)*%
X246406250Y-260032500D02*
X247173750Y-259265000D01*
X235267500Y-260032500D02*
X246406250Y-260032500D01*
X233838750Y-258603750D02*
X235267500Y-260032500D01*
%TO.N,Net-(D41-A)*%
X269266250Y-260800000D02*
X270801250Y-259265000D01*
X270801250Y-259265000D02*
X270986250Y-259265000D01*
X224605000Y-260800000D02*
X269266250Y-260800000D01*
X222408750Y-258603750D02*
X224605000Y-260800000D01*
%TO.N,006*%
X331590000Y-257620000D02*
X331590000Y-251790000D01*
X331590000Y-251790000D02*
X332490000Y-250890000D01*
X329100000Y-260110000D02*
X331590000Y-257620000D01*
X312480000Y-260110000D02*
X329100000Y-260110000D01*
X311981300Y-260618700D02*
X311981300Y-260608700D01*
X310780000Y-261820000D02*
X311981300Y-260618700D01*
X311981300Y-260608700D02*
X312480000Y-260110000D01*
%TO.N,017*%
X339628700Y-263021300D02*
X339921300Y-262728700D01*
X339921300Y-262728700D02*
X339921300Y-259161300D01*
X322141300Y-263021300D02*
X339628700Y-263021300D01*
X339921300Y-259161300D02*
X338370000Y-257610000D01*
X320940000Y-261820000D02*
X322141300Y-263021300D01*
%TO.N,020*%
X335250000Y-256090000D02*
X335250000Y-257110000D01*
X324740000Y-260560000D02*
X323480000Y-261820000D01*
X338380000Y-252960000D02*
X335250000Y-256090000D01*
X334360000Y-258000000D02*
X331846396Y-258000000D01*
X335250000Y-257110000D02*
X334360000Y-258000000D01*
X329286396Y-260560000D02*
X324740000Y-260560000D01*
X331846396Y-258000000D02*
X329286396Y-260560000D01*
%TO.N,101*%
X335920000Y-256056396D02*
X336966396Y-255010000D01*
X333640000Y-259280000D02*
X333716396Y-259280000D01*
X333716396Y-259280000D02*
X335920000Y-257076396D01*
X336966396Y-255010000D02*
X338370000Y-255010000D01*
X335920000Y-257076396D02*
X335920000Y-256056396D01*
%TO.N,102*%
X333950000Y-256740000D02*
X336730000Y-253960000D01*
X337120000Y-250360000D02*
X338380000Y-250360000D01*
X336730000Y-250750000D02*
X337120000Y-250360000D01*
X336730000Y-253960000D02*
X336730000Y-250750000D01*
X333640000Y-256740000D02*
X333950000Y-256740000D01*
%TO.N,107*%
X335090000Y-252750000D02*
X333640000Y-254200000D01*
X335090000Y-250890000D02*
X335090000Y-252750000D01*
%TO.N,rst*%
X292001522Y-245400000D02*
X300191827Y-245400000D01*
X300316827Y-245275000D02*
X314555000Y-245275000D01*
X291420000Y-245981522D02*
X292001522Y-245400000D01*
X291760000Y-261830000D02*
X291420000Y-261490000D01*
X291420000Y-261490000D02*
X291420000Y-245981522D01*
X300191827Y-245400000D02*
X300316827Y-245275000D01*
X292635000Y-261830000D02*
X291760000Y-261830000D01*
X314555000Y-245275000D02*
X315860000Y-246580000D01*
D26*
%TO.N,gnd2*%
X327670000Y-250450000D02*
X329670000Y-248450000D01*
X328894200Y-251700000D02*
X328894200Y-251674200D01*
X310300000Y-249600000D02*
X295550000Y-249600000D01*
X329670000Y-248450000D02*
X329770000Y-248350000D01*
X313320000Y-246580000D02*
X310300000Y-249600000D01*
X328920000Y-251700000D02*
X329540000Y-252320000D01*
X329540000Y-252320000D02*
X329540000Y-256500000D01*
X329540000Y-256500000D02*
X328050000Y-257990000D01*
X317180000Y-250450000D02*
X313320000Y-246590000D01*
X328894200Y-251674200D02*
X327670000Y-250450000D01*
X292595000Y-249750000D02*
X295645000Y-252800000D01*
X327670000Y-250450000D02*
X317180000Y-250450000D01*
X341225000Y-250510000D02*
X342180000Y-250510000D01*
X328894200Y-251700000D02*
X328920000Y-251700000D01*
X295550000Y-249600000D02*
X292595000Y-246645000D01*
X342180000Y-250510000D02*
X343350000Y-251680000D01*
X313320000Y-246590000D02*
X313320000Y-246580000D01*
X328050000Y-257990000D02*
X324310000Y-257990000D01*
X292595000Y-246645000D02*
X292595000Y-249750000D01*
X329770000Y-248350000D02*
X341250000Y-248350000D01*
X324310000Y-257990000D02*
X321960000Y-255640000D01*
D27*
%TO.N,Net-(J10-Pin_2)*%
X342420000Y-254190000D02*
X341250000Y-253020000D01*
X343375000Y-254190000D02*
X342420000Y-254190000D01*
D25*
%TO.N,row0*%
X204380000Y-188970000D02*
X204380000Y-198762500D01*
X210026250Y-212370000D02*
X211492500Y-213836250D01*
X204380000Y-200432500D02*
X205740000Y-199072500D01*
X211492500Y-213836250D02*
X214310000Y-213836250D01*
X172878750Y-203358750D02*
X175736250Y-203358750D01*
X207168750Y-200501250D02*
X210026250Y-200501250D01*
X164306250Y-200501250D02*
X167163750Y-200501250D01*
X175736250Y-203358750D02*
X177165000Y-204787500D01*
X185910000Y-189320000D02*
X188060000Y-187170000D01*
X168592500Y-201930000D02*
X171450000Y-201930000D01*
X184308750Y-206216250D02*
X185261250Y-206216250D01*
X204380000Y-209610000D02*
X204380000Y-200432500D01*
X181451250Y-206216250D02*
X184308750Y-206216250D01*
X210026250Y-200501250D02*
X211455000Y-201930000D01*
X180022500Y-204787500D02*
X181451250Y-206216250D01*
X205740000Y-210970000D02*
X204380000Y-209610000D01*
X202580000Y-187170000D02*
X204380000Y-188970000D01*
X185910000Y-205567500D02*
X185910000Y-189320000D01*
X162877500Y-199072500D02*
X164306250Y-200501250D01*
X185261250Y-206216250D02*
X185910000Y-205567500D01*
X188060000Y-187170000D02*
X202580000Y-187170000D01*
X167163750Y-200501250D02*
X168592500Y-201930000D01*
X204690000Y-199072500D02*
X205740000Y-199072500D01*
X171450000Y-201930000D02*
X172878750Y-203358750D01*
X211455000Y-201930000D02*
X214312500Y-201930000D01*
X205740000Y-210970000D02*
X207140000Y-212370000D01*
X205740000Y-199072500D02*
X207168750Y-200501250D01*
X177165000Y-204787500D02*
X180022500Y-204787500D01*
X207140000Y-212370000D02*
X210026250Y-212370000D01*
X204380000Y-198762500D02*
X204690000Y-199072500D01*
%TO.N,row1*%
X187352646Y-241485000D02*
X203685000Y-241485000D01*
X184308750Y-225266250D02*
X186686250Y-225266250D01*
X175736250Y-222408750D02*
X177165000Y-223837500D01*
X181451250Y-225266250D02*
X184308750Y-225266250D01*
X186780000Y-225360000D02*
X186780000Y-240912354D01*
X186780000Y-240912354D02*
X187352646Y-241485000D01*
X171450000Y-220980000D02*
X172878750Y-222408750D01*
X176680000Y-211780000D02*
X177810000Y-212910000D01*
X210026250Y-224790000D02*
X207168750Y-224790000D01*
X204240000Y-240930000D02*
X204240000Y-231960000D01*
X204240000Y-231960000D02*
X205695000Y-230505000D01*
X172878750Y-222408750D02*
X175736250Y-222408750D01*
X207168750Y-224790000D02*
X205740000Y-223361250D01*
X211455000Y-226218750D02*
X214312500Y-226218750D01*
X177165000Y-223837500D02*
X180022500Y-223837500D01*
X214312500Y-226218750D02*
X215741250Y-227647500D01*
X205695000Y-230505000D02*
X205740000Y-230505000D01*
X168592500Y-220980000D02*
X171450000Y-220980000D01*
X205740000Y-230505000D02*
X207168750Y-231933750D01*
X205740000Y-223361250D02*
X205740000Y-230505000D01*
X181316396Y-212910000D02*
X185700000Y-217293604D01*
X176680000Y-210480000D02*
X176680000Y-211780000D01*
X207168750Y-231933750D02*
X218598750Y-231933750D01*
X167163750Y-219551250D02*
X168592500Y-220980000D01*
X203685000Y-241485000D02*
X204240000Y-240930000D01*
X180022500Y-223837500D02*
X181451250Y-225266250D01*
X177810000Y-212910000D02*
X181316396Y-212910000D01*
X185700000Y-217293604D02*
X185700000Y-223875000D01*
X215741250Y-227647500D02*
X218598750Y-227647500D01*
X185700000Y-223875000D02*
X184308750Y-225266250D01*
X210026250Y-224790000D02*
X211455000Y-226218750D01*
X186686250Y-225266250D02*
X186780000Y-225360000D01*
%TO.N,row2*%
X218598750Y-246126250D02*
X218598750Y-246221250D01*
X215741250Y-246126250D02*
X218598750Y-246126250D01*
X176688750Y-237172500D02*
X178117500Y-238601250D01*
X211455000Y-244697500D02*
X214312500Y-244697500D01*
X187410000Y-252880000D02*
X189530000Y-252880000D01*
X207073750Y-243268750D02*
X210026250Y-243268750D01*
X218598750Y-246221250D02*
X220027500Y-247650000D01*
X178117500Y-238601250D02*
X180975000Y-238601250D01*
X220027500Y-247650000D02*
X222790000Y-247650000D01*
X186690000Y-252900000D02*
X187390000Y-252900000D01*
X185261250Y-240030000D02*
X187166250Y-241935000D01*
X182403750Y-240030000D02*
X185261250Y-240030000D01*
X222885000Y-247555000D02*
X224313750Y-248983750D01*
X187166250Y-241935000D02*
X205645000Y-241935000D01*
X180960000Y-250020000D02*
X182370000Y-251430000D01*
X185250000Y-251460000D02*
X186690000Y-252900000D01*
X205645000Y-241935000D02*
X205740000Y-241840000D01*
X182370000Y-251430000D02*
X182520000Y-251430000D01*
X180975000Y-238601250D02*
X182403750Y-240030000D01*
X187390000Y-252900000D02*
X187410000Y-252880000D01*
X214312500Y-244697500D02*
X215741250Y-246126250D01*
X182550000Y-251460000D02*
X185250000Y-251460000D01*
X180498750Y-250031250D02*
X180975000Y-250031250D01*
X222790000Y-247650000D02*
X222885000Y-247555000D01*
X205740000Y-241935000D02*
X207073750Y-243268750D01*
X224313750Y-248983750D02*
X227171250Y-248983750D01*
X210026250Y-243268750D02*
X211455000Y-244697500D01*
X205740000Y-241840000D02*
X205740000Y-241935000D01*
X182520000Y-251430000D02*
X182550000Y-251460000D01*
%TO.N,row3*%
X214788750Y-258603750D02*
X216217500Y-257175000D01*
X213360000Y-257175000D02*
X214788750Y-258603750D01*
X216217500Y-257175000D02*
X224790000Y-257175000D01*
X201930000Y-257175000D02*
X203358750Y-258603750D01*
X193357500Y-257175000D02*
X201930000Y-257175000D01*
X224790000Y-257175000D02*
X226218750Y-258603750D01*
X190500000Y-257175000D02*
X191928750Y-258603750D01*
X203358750Y-258603750D02*
X204787500Y-257175000D01*
X181927500Y-257175000D02*
X190500000Y-257175000D01*
X204787500Y-257175000D02*
X213360000Y-257175000D01*
X180498750Y-258603750D02*
X181927500Y-257175000D01*
X191928750Y-258603750D02*
X193357500Y-257175000D01*
D26*
%TO.N,Net-(J4-Pin_1)*%
X296800000Y-248350000D02*
X295135000Y-246685000D01*
X299595000Y-248350000D02*
X296800000Y-248350000D01*
X301305000Y-246640000D02*
X299595000Y-248350000D01*
D28*
%TO.N,Net-(J5-Pin_1)*%
X304975000Y-246580000D02*
X310780000Y-246580000D01*
D25*
X304955000Y-246600000D02*
X304975000Y-246580000D01*
%TO.N,Net-(J7-Pin_2)*%
X314658700Y-263021300D02*
X296366300Y-263021300D01*
X315860000Y-261820000D02*
X314658700Y-263021300D01*
X296366300Y-263021300D02*
X295175000Y-261830000D01*
%TO.N,Net-(J3-Pin_1)*%
X342950000Y-249140000D02*
X342940000Y-249150000D01*
X333790000Y-250290000D02*
X334940000Y-249140000D01*
X333790000Y-250890000D02*
X333790000Y-250290000D01*
X334940000Y-249140000D02*
X343350000Y-249140000D01*
%TO.N,Net-(J10-Pin_3)*%
X339600000Y-253965000D02*
X341225000Y-255590000D01*
X341225000Y-255590000D02*
X342395000Y-256760000D01*
X338380000Y-251660000D02*
X338980000Y-251660000D01*
X338980000Y-251660000D02*
X339600000Y-252280000D01*
X342395000Y-256760000D02*
X343350000Y-256760000D01*
X339600000Y-252280000D02*
X339600000Y-253965000D01*
%TO.N,Net-(J10-Pin_4)*%
X341225000Y-258130000D02*
X342395000Y-259300000D01*
X339415000Y-256310000D02*
X339415000Y-256320000D01*
X339415000Y-256320000D02*
X341225000Y-258130000D01*
X341125000Y-258020000D02*
X341595000Y-258020000D01*
X342395000Y-259300000D02*
X343350000Y-259300000D01*
X338370000Y-256310000D02*
X339415000Y-256310000D01*
D28*
%TO.N,gndPM2*%
X97025000Y-253985000D02*
X93165000Y-253985000D01*
X88450000Y-258700000D02*
X72700000Y-258700000D01*
X70980000Y-260420000D02*
X70980000Y-261540000D01*
X93165000Y-253985000D02*
X88450000Y-258700000D01*
X72700000Y-258700000D02*
X70980000Y-260420000D01*
%TO.N,rstPM*%
X70980000Y-246300000D02*
X73980000Y-249300000D01*
X73980000Y-249300000D02*
X94880000Y-249300000D01*
X94880000Y-249300000D02*
X97025000Y-251445000D01*
%TD*%
M02*
