%TF.GenerationSoftware,KiCad,Pcbnew,7.0.7*%
%TF.CreationDate,2023-09-01T02:06:52-04:00*%
%TF.ProjectId,rowStaggeredSplit,726f7753-7461-4676-9765-72656453706c,rev?*%
%TF.SameCoordinates,Original*%
%TF.FileFunction,Soldermask,Top*%
%TF.FilePolarity,Negative*%
%FSLAX46Y46*%
G04 Gerber Fmt 4.6, Leading zero omitted, Abs format (unit mm)*
G04 Created by KiCad (PCBNEW 7.0.7) date 2023-09-01 02:06:52*
%MOMM*%
%LPD*%
G01*
G04 APERTURE LIST*
G04 Aperture macros list*
%AMRoundRect*
0 Rectangle with rounded corners*
0 $1 Rounding radius*
0 $2 $3 $4 $5 $6 $7 $8 $9 X,Y pos of 4 corners*
0 Add a 4 corners polygon primitive as box body*
4,1,4,$2,$3,$4,$5,$6,$7,$8,$9,$2,$3,0*
0 Add four circle primitives for the rounded corners*
1,1,$1+$1,$2,$3*
1,1,$1+$1,$4,$5*
1,1,$1+$1,$6,$7*
1,1,$1+$1,$8,$9*
0 Add four rect primitives between the rounded corners*
20,1,$1+$1,$2,$3,$4,$5,0*
20,1,$1+$1,$4,$5,$6,$7,0*
20,1,$1+$1,$6,$7,$8,$9,0*
20,1,$1+$1,$8,$9,$2,$3,0*%
%AMFreePoly0*
4,1,6,1.000000,0.000000,0.500000,-0.750000,-0.500000,-0.750000,-0.500000,0.750000,0.500000,0.750000,1.000000,0.000000,1.000000,0.000000,$1*%
%AMFreePoly1*
4,1,6,0.500000,-0.750000,-0.650000,-0.750000,-0.150000,0.000000,-0.650000,0.750000,0.500000,0.750000,0.500000,-0.750000,0.500000,-0.750000,$1*%
G04 Aperture macros list end*
%ADD10C,2.200000*%
%ADD11C,4.900000*%
%ADD12RoundRect,0.250000X-0.750000X-0.750000X0.750000X-0.750000X0.750000X0.750000X-0.750000X0.750000X0*%
%ADD13R,1.600000X1.600000*%
%ADD14O,1.600000X1.600000*%
%ADD15R,1.700000X1.700000*%
%ADD16O,1.700000X1.700000*%
%ADD17R,2.200000X2.200000*%
%ADD18C,1.752600*%
%ADD19FreePoly0,180.000000*%
%ADD20FreePoly1,180.000000*%
G04 APERTURE END LIST*
D10*
%TO.C,MX6*%
X154842500Y-196215000D03*
X144242500Y-196215000D03*
D11*
X149542500Y-196215000D03*
%TD*%
D10*
%TO.C,MX24*%
X335817500Y-215265000D03*
X325217500Y-215265000D03*
D11*
X330517500Y-215265000D03*
%TD*%
D10*
%TO.C,MX39*%
X171511250Y-253365000D03*
X160911250Y-253365000D03*
D11*
X166211250Y-253365000D03*
%TD*%
D10*
%TO.C,MX40*%
X252473750Y-253365000D03*
X241873750Y-253365000D03*
D11*
X247173750Y-253365000D03*
%TD*%
D10*
%TO.C,MX14*%
X83405000Y-215265000D03*
X72805000Y-215265000D03*
D11*
X78105000Y-215265000D03*
%TD*%
D10*
%TO.C,MX10*%
X288192500Y-196215000D03*
X277592500Y-196215000D03*
D11*
X282892500Y-196215000D03*
%TD*%
D10*
%TO.C,MX7*%
X231042500Y-196215000D03*
X220442500Y-196215000D03*
D11*
X225742500Y-196215000D03*
%TD*%
D10*
%TO.C,MX11*%
X307242500Y-196215000D03*
X296642500Y-196215000D03*
D11*
X301942500Y-196215000D03*
%TD*%
D10*
%TO.C,MX16*%
X121505000Y-215265000D03*
X110905000Y-215265000D03*
D11*
X116205000Y-215265000D03*
%TD*%
D10*
%TO.C,MX37*%
X123886250Y-253365000D03*
X113286250Y-253365000D03*
D11*
X118586250Y-253365000D03*
%TD*%
D10*
%TO.C,MX33*%
X283430000Y-234315000D03*
X272830000Y-234315000D03*
D11*
X278130000Y-234315000D03*
%TD*%
D10*
%TO.C,MX22*%
X292955000Y-215265000D03*
X282355000Y-215265000D03*
D11*
X287655000Y-215265000D03*
%TD*%
D10*
%TO.C,MX25*%
X66736250Y-234315000D03*
X56136250Y-234315000D03*
D11*
X61436250Y-234315000D03*
%TD*%
D10*
%TO.C,MX2*%
X78642500Y-196215000D03*
X68042500Y-196215000D03*
D11*
X73342500Y-196215000D03*
%TD*%
D10*
%TO.C,MX5*%
X135792500Y-196215000D03*
X125192500Y-196215000D03*
D11*
X130492500Y-196215000D03*
%TD*%
D10*
%TO.C,MX21*%
X273905000Y-215265000D03*
X263305000Y-215265000D03*
D11*
X268605000Y-215265000D03*
%TD*%
D10*
%TO.C,MX1*%
X59592500Y-196215000D03*
X48992500Y-196215000D03*
D11*
X54292500Y-196215000D03*
%TD*%
D10*
%TO.C,MX27*%
X111980000Y-234315000D03*
X101380000Y-234315000D03*
D11*
X106680000Y-234315000D03*
%TD*%
D10*
%TO.C,MX36*%
X340580000Y-234315000D03*
X329980000Y-234315000D03*
D11*
X335280000Y-234315000D03*
%TD*%
D10*
%TO.C,MX13*%
X61973750Y-215265000D03*
X51373750Y-215265000D03*
D11*
X56673750Y-215265000D03*
%TD*%
D10*
%TO.C,MX18*%
X159605000Y-215265000D03*
X149005000Y-215265000D03*
D11*
X154305000Y-215265000D03*
%TD*%
D10*
%TO.C,MX12*%
X333436250Y-196215000D03*
X322836250Y-196215000D03*
D11*
X328136250Y-196215000D03*
%TD*%
D10*
%TO.C,MX9*%
X269142500Y-196215000D03*
X258542500Y-196215000D03*
D11*
X263842500Y-196215000D03*
%TD*%
D10*
%TO.C,MX30*%
X169130000Y-234315000D03*
X158530000Y-234315000D03*
D11*
X163830000Y-234315000D03*
%TD*%
D10*
%TO.C,MX20*%
X254855000Y-215265000D03*
X244255000Y-215265000D03*
D11*
X249555000Y-215265000D03*
%TD*%
D10*
%TO.C,MX38*%
X147698750Y-253365000D03*
X137098750Y-253365000D03*
D11*
X142398750Y-253365000D03*
%TD*%
D10*
%TO.C,MX19*%
X235805000Y-215265000D03*
X225205000Y-215265000D03*
D11*
X230505000Y-215265000D03*
%TD*%
D10*
%TO.C,MX3*%
X97692500Y-196215000D03*
X87092500Y-196215000D03*
D11*
X92392500Y-196215000D03*
%TD*%
D10*
%TO.C,MX32*%
X264380000Y-234315000D03*
X253780000Y-234315000D03*
D11*
X259080000Y-234315000D03*
%TD*%
D10*
%TO.C,MX15*%
X102455000Y-215265000D03*
X91855000Y-215265000D03*
D11*
X97155000Y-215265000D03*
%TD*%
D10*
%TO.C,MX35*%
X321530000Y-234315000D03*
X310930000Y-234315000D03*
D11*
X316230000Y-234315000D03*
%TD*%
D10*
%TO.C,MX29*%
X150080000Y-234315000D03*
X139480000Y-234315000D03*
D11*
X144780000Y-234315000D03*
%TD*%
D10*
%TO.C,MX31*%
X245330000Y-234315000D03*
X234730000Y-234315000D03*
D11*
X240030000Y-234315000D03*
%TD*%
D10*
%TO.C,MX28*%
X131030000Y-234315000D03*
X120430000Y-234315000D03*
D11*
X125730000Y-234315000D03*
%TD*%
D10*
%TO.C,MX4*%
X116742500Y-196215000D03*
X106142500Y-196215000D03*
D11*
X111442500Y-196215000D03*
%TD*%
D10*
%TO.C,MX23*%
X312005000Y-215265000D03*
X301405000Y-215265000D03*
D11*
X306705000Y-215265000D03*
%TD*%
D10*
%TO.C,MX17*%
X140555000Y-215265000D03*
X129955000Y-215265000D03*
D11*
X135255000Y-215265000D03*
%TD*%
D10*
%TO.C,MX8*%
X250092500Y-196215000D03*
X239492500Y-196215000D03*
D11*
X244792500Y-196215000D03*
%TD*%
D10*
%TO.C,MX26*%
X92930000Y-234315000D03*
X82330000Y-234315000D03*
D11*
X87630000Y-234315000D03*
%TD*%
D10*
%TO.C,MX41*%
X276286250Y-253365000D03*
X265686250Y-253365000D03*
D11*
X270986250Y-253365000D03*
%TD*%
D10*
%TO.C,MX34*%
X302480000Y-234315000D03*
X291880000Y-234315000D03*
D11*
X297180000Y-234315000D03*
%TD*%
D12*
%TO.C,J4*%
X301305000Y-246600000D03*
%TD*%
D13*
%TO.C,D12*%
X214310000Y-213836250D03*
D14*
X214310000Y-206216250D03*
%TD*%
D13*
%TO.C,D23*%
X205740000Y-230505000D03*
D14*
X213360000Y-230505000D03*
%TD*%
D15*
%TO.C,J3*%
X343350000Y-249140000D03*
D16*
X343350000Y-251680000D03*
X343350000Y-254220000D03*
X343350000Y-256760000D03*
X343350000Y-259300000D03*
%TD*%
D13*
%TO.C,D33*%
X214312500Y-244697500D03*
D14*
X214312500Y-237077500D03*
%TD*%
D13*
%TO.C,D17*%
X171450000Y-220980000D03*
D14*
X171450000Y-213360000D03*
%TD*%
D13*
%TO.C,D16*%
X175736250Y-222408750D03*
D14*
X175736250Y-214788750D03*
%TD*%
D13*
%TO.C,D25*%
X189530000Y-252880000D03*
D14*
X189530000Y-245260000D03*
%TD*%
D13*
%TO.C,D3*%
X171450000Y-201930000D03*
D14*
X171450000Y-194310000D03*
%TD*%
D13*
%TO.C,D41*%
X214788750Y-258603750D03*
D14*
X222408750Y-258603750D03*
%TD*%
D15*
%TO.C,J6*%
X297675000Y-246645000D03*
D16*
X295135000Y-246645000D03*
X292595000Y-246645000D03*
%TD*%
D13*
%TO.C,D31*%
X205740000Y-241840000D03*
D14*
X205740000Y-234220000D03*
%TD*%
D13*
%TO.C,D40*%
X226218750Y-258603750D03*
D14*
X233838750Y-258603750D03*
%TD*%
D13*
%TO.C,D14*%
X184308750Y-225266250D03*
D14*
X184308750Y-217646250D03*
%TD*%
D13*
%TO.C,D20*%
X214312500Y-226218750D03*
D14*
X214312500Y-218598750D03*
%TD*%
D13*
%TO.C,D28*%
X185261250Y-240030000D03*
D14*
X185261250Y-232410000D03*
%TD*%
D15*
%TO.C,J7*%
X297715000Y-261830000D03*
D16*
X295175000Y-261830000D03*
X292635000Y-261830000D03*
%TD*%
D17*
%TO.C,J1*%
X193357500Y-197577500D03*
D10*
X193357500Y-200347500D03*
X193357500Y-203117500D03*
X193357500Y-205887500D03*
X193357500Y-208657500D03*
X193357500Y-211427500D03*
X193357500Y-214197500D03*
X193357500Y-216967500D03*
X193357500Y-219737500D03*
X193357500Y-222507500D03*
X193357500Y-225277500D03*
X193357500Y-228047500D03*
X193357500Y-230817500D03*
X196197500Y-198962500D03*
X196197500Y-201732500D03*
X196197500Y-204502500D03*
X196197500Y-207272500D03*
X196197500Y-210042500D03*
X196197500Y-212812500D03*
X196197500Y-215582500D03*
X196197500Y-218352500D03*
X196197500Y-221122500D03*
X196197500Y-223892500D03*
X196197500Y-226662500D03*
X196197500Y-229432500D03*
%TD*%
D13*
%TO.C,D30*%
X176688750Y-237172500D03*
D14*
X176688750Y-229552500D03*
%TD*%
D18*
%TO.C,U1*%
X310780000Y-261820000D03*
X313320000Y-261820000D03*
X315860000Y-261820000D03*
X318400000Y-261820000D03*
X320940000Y-261820000D03*
X323480000Y-261820000D03*
X326020000Y-261820000D03*
X328560000Y-261820000D03*
X331100000Y-261820000D03*
X333640000Y-261820000D03*
X336180000Y-261820000D03*
X338720000Y-261820000D03*
X338720000Y-246580000D03*
X336180000Y-246580000D03*
X333640000Y-246580000D03*
X331100000Y-246580000D03*
X328560000Y-246580000D03*
X326020000Y-246580000D03*
X323480000Y-246580000D03*
X320940000Y-246580000D03*
X318400000Y-246580000D03*
X315860000Y-246580000D03*
X313320000Y-246580000D03*
X310780000Y-246580000D03*
X333640000Y-259280000D03*
X333640000Y-256740000D03*
X333640000Y-254200000D03*
%TD*%
D13*
%TO.C,D26*%
X185250000Y-251460000D03*
D14*
X185250000Y-243840000D03*
%TD*%
D19*
%TO.C,JP4*%
X303755000Y-250260000D03*
D20*
X302305000Y-250260000D03*
%TD*%
D13*
%TO.C,D5*%
X180022500Y-204787500D03*
D14*
X180022500Y-197167500D03*
%TD*%
D13*
%TO.C,D24*%
X218598750Y-231933750D03*
D14*
X226218750Y-231933750D03*
%TD*%
D13*
%TO.C,D13*%
X176680000Y-210480000D03*
D14*
X184300000Y-210480000D03*
%TD*%
D13*
%TO.C,D21*%
X210026250Y-224790000D03*
D14*
X210026250Y-217170000D03*
%TD*%
D13*
%TO.C,D9*%
X214312500Y-201930000D03*
D14*
X214312500Y-194310000D03*
%TD*%
D13*
%TO.C,D6*%
X184308750Y-206216250D03*
D14*
X184308750Y-198596250D03*
%TD*%
D13*
%TO.C,D34*%
X218598750Y-246126250D03*
D14*
X218598750Y-238506250D03*
%TD*%
D13*
%TO.C,D29*%
X180975000Y-238601250D03*
D14*
X180975000Y-230981250D03*
%TD*%
D13*
%TO.C,D22*%
X205740000Y-223361250D03*
D14*
X205740000Y-215741250D03*
%TD*%
D13*
%TO.C,D39*%
X180498750Y-258603750D03*
D14*
X188118750Y-258603750D03*
%TD*%
D13*
%TO.C,D4*%
X175736250Y-203358750D03*
D14*
X175736250Y-195738750D03*
%TD*%
D13*
%TO.C,D8*%
X210026250Y-200501250D03*
D14*
X210026250Y-192881250D03*
%TD*%
D13*
%TO.C,D15*%
X180022500Y-223837500D03*
D14*
X180022500Y-216217500D03*
%TD*%
D12*
%TO.C,J5*%
X304955000Y-246600000D03*
%TD*%
D13*
%TO.C,D38*%
X191928750Y-258603750D03*
D14*
X199548750Y-258603750D03*
%TD*%
D13*
%TO.C,D19*%
X218598750Y-227647500D03*
D14*
X218598750Y-220027500D03*
%TD*%
D15*
%TO.C,J9*%
X97025000Y-256525000D03*
D16*
X97025000Y-253985000D03*
X97025000Y-251445000D03*
%TD*%
D13*
%TO.C,D1*%
X162877500Y-199072500D03*
D14*
X162877500Y-191452500D03*
%TD*%
D13*
%TO.C,D7*%
X205740000Y-199072500D03*
D14*
X205740000Y-191452500D03*
%TD*%
D13*
%TO.C,D36*%
X227171250Y-248983750D03*
D14*
X227171250Y-241363750D03*
%TD*%
D13*
%TO.C,D11*%
X210026250Y-212370000D03*
D14*
X210026250Y-204750000D03*
%TD*%
D13*
%TO.C,D32*%
X210026250Y-243268750D03*
D14*
X210026250Y-235648750D03*
%TD*%
D15*
%TO.C,J10*%
X341225000Y-250510000D03*
D16*
X341225000Y-253050000D03*
X341225000Y-255590000D03*
X341225000Y-258130000D03*
%TD*%
D13*
%TO.C,D27*%
X180960000Y-250020000D03*
D14*
X180960000Y-242400000D03*
%TD*%
D13*
%TO.C,D18*%
X167163750Y-219551250D03*
D14*
X167163750Y-211931250D03*
%TD*%
D13*
%TO.C,D2*%
X167163750Y-200501250D03*
D14*
X167163750Y-192881250D03*
%TD*%
D13*
%TO.C,D10*%
X205740000Y-210970000D03*
D14*
X205740000Y-203350000D03*
%TD*%
D13*
%TO.C,D35*%
X222885000Y-247555000D03*
D14*
X222885000Y-239935000D03*
%TD*%
D13*
%TO.C,D37*%
X203358750Y-258603750D03*
D14*
X210978750Y-258603750D03*
%TD*%
D17*
%TO.C,J2*%
X294260000Y-255640000D03*
D10*
X297030000Y-255640000D03*
X299800000Y-255640000D03*
X302570000Y-255640000D03*
X305340000Y-255640000D03*
X308110000Y-255640000D03*
X310880000Y-255640000D03*
X313650000Y-255640000D03*
X316420000Y-255640000D03*
X319190000Y-255640000D03*
X321960000Y-255640000D03*
X324730000Y-255640000D03*
X327500000Y-255640000D03*
X295645000Y-252800000D03*
X298415000Y-252800000D03*
X301185000Y-252800000D03*
X303955000Y-252800000D03*
X306725000Y-252800000D03*
X309495000Y-252800000D03*
X312265000Y-252800000D03*
X315035000Y-252800000D03*
X317805000Y-252800000D03*
X320575000Y-252800000D03*
X323345000Y-252800000D03*
X326115000Y-252800000D03*
%TD*%
D17*
%TO.C,J8*%
X55455000Y-255390000D03*
D10*
X58225000Y-255390000D03*
X60995000Y-255390000D03*
X63765000Y-255390000D03*
X66535000Y-255390000D03*
X69305000Y-255390000D03*
X72075000Y-255390000D03*
X74845000Y-255390000D03*
X77615000Y-255390000D03*
X80385000Y-255390000D03*
X83155000Y-255390000D03*
X85925000Y-255390000D03*
X88695000Y-255390000D03*
X56840000Y-252550000D03*
X59610000Y-252550000D03*
X62380000Y-252550000D03*
X65150000Y-252550000D03*
X67920000Y-252550000D03*
X70690000Y-252550000D03*
X73460000Y-252550000D03*
X76230000Y-252550000D03*
X79000000Y-252550000D03*
X81770000Y-252550000D03*
X84540000Y-252550000D03*
X87310000Y-252550000D03*
%TD*%
M02*
