%TF.GenerationSoftware,KiCad,Pcbnew,7.0.7*%
%TF.CreationDate,2023-09-01T02:06:52-04:00*%
%TF.ProjectId,rowStaggeredSplit,726f7753-7461-4676-9765-72656453706c,rev?*%
%TF.SameCoordinates,Original*%
%TF.FileFunction,Copper,L1,Top*%
%TF.FilePolarity,Positive*%
%FSLAX46Y46*%
G04 Gerber Fmt 4.6, Leading zero omitted, Abs format (unit mm)*
G04 Created by KiCad (PCBNEW 7.0.7) date 2023-09-01 02:06:52*
%MOMM*%
%LPD*%
G01*
G04 APERTURE LIST*
G04 Aperture macros list*
%AMRoundRect*
0 Rectangle with rounded corners*
0 $1 Rounding radius*
0 $2 $3 $4 $5 $6 $7 $8 $9 X,Y pos of 4 corners*
0 Add a 4 corners polygon primitive as box body*
4,1,4,$2,$3,$4,$5,$6,$7,$8,$9,$2,$3,0*
0 Add four circle primitives for the rounded corners*
1,1,$1+$1,$2,$3*
1,1,$1+$1,$4,$5*
1,1,$1+$1,$6,$7*
1,1,$1+$1,$8,$9*
0 Add four rect primitives between the rounded corners*
20,1,$1+$1,$2,$3,$4,$5,0*
20,1,$1+$1,$4,$5,$6,$7,0*
20,1,$1+$1,$6,$7,$8,$9,0*
20,1,$1+$1,$8,$9,$2,$3,0*%
%AMHorizOval*
0 Thick line with rounded ends*
0 $1 width*
0 $2 $3 position (X,Y) of the first rounded end (center of the circle)*
0 $4 $5 position (X,Y) of the second rounded end (center of the circle)*
0 Add line between two ends*
20,1,$1,$2,$3,$4,$5,0*
0 Add two circle primitives to create the rounded ends*
1,1,$1,$2,$3*
1,1,$1,$4,$5*%
%AMFreePoly0*
4,1,6,1.000000,0.000000,0.500000,-0.750000,-0.500000,-0.750000,-0.500000,0.750000,0.500000,0.750000,1.000000,0.000000,1.000000,0.000000,$1*%
%AMFreePoly1*
4,1,6,0.500000,-0.750000,-0.650000,-0.750000,-0.150000,0.000000,-0.650000,0.750000,0.500000,0.750000,0.500000,-0.750000,0.500000,-0.750000,$1*%
G04 Aperture macros list end*
%TA.AperFunction,ComponentPad*%
%ADD10C,2.400000*%
%TD*%
%TA.AperFunction,ComponentPad*%
%ADD11HorizOval,2.400000X0.999962X0.008727X-0.999962X-0.008727X0*%
%TD*%
%TA.AperFunction,ComponentPad*%
%ADD12RoundRect,0.250000X-0.750000X-0.750000X0.750000X-0.750000X0.750000X0.750000X-0.750000X0.750000X0*%
%TD*%
%TA.AperFunction,ComponentPad*%
%ADD13R,1.600000X1.600000*%
%TD*%
%TA.AperFunction,ComponentPad*%
%ADD14O,1.600000X1.600000*%
%TD*%
%TA.AperFunction,ComponentPad*%
%ADD15R,1.700000X1.700000*%
%TD*%
%TA.AperFunction,ComponentPad*%
%ADD16O,1.700000X1.700000*%
%TD*%
%TA.AperFunction,ComponentPad*%
%ADD17C,1.800000*%
%TD*%
%TA.AperFunction,ComponentPad*%
%ADD18RoundRect,0.450000X0.450000X-0.450000X0.450000X0.450000X-0.450000X0.450000X-0.450000X-0.450000X0*%
%TD*%
%TA.AperFunction,ComponentPad*%
%ADD19R,2.200000X2.200000*%
%TD*%
%TA.AperFunction,ComponentPad*%
%ADD20C,2.200000*%
%TD*%
%TA.AperFunction,ComponentPad*%
%ADD21C,1.752600*%
%TD*%
%TA.AperFunction,SMDPad,CuDef*%
%ADD22FreePoly0,180.000000*%
%TD*%
%TA.AperFunction,SMDPad,CuDef*%
%ADD23FreePoly1,180.000000*%
%TD*%
%TA.AperFunction,ViaPad*%
%ADD24C,0.800000*%
%TD*%
%TA.AperFunction,Conductor*%
%ADD25C,0.250000*%
%TD*%
%TA.AperFunction,Conductor*%
%ADD26C,0.750000*%
%TD*%
%TA.AperFunction,Conductor*%
%ADD27C,0.500000*%
%TD*%
G04 APERTURE END LIST*
D10*
%TO.P,MX6,1,1*%
%TO.N,col5*%
X145732500Y-193675000D03*
%TO.P,MX6,2,2*%
%TO.N,Net-(D6-A)*%
X149542500Y-202115000D03*
%TO.P,MX6,1,1*%
%TO.N,col5*%
X144442500Y-200115000D03*
D11*
%TO.P,MX6,2,2*%
%TO.N,Net-(D6-A)*%
X153442542Y-190674599D03*
D10*
X152082500Y-191135000D03*
%TD*%
%TO.P,MX24,1,1*%
%TO.N,col11*%
X326707500Y-212725000D03*
%TO.P,MX24,2,2*%
%TO.N,Net-(D24-A)*%
X330517500Y-221165000D03*
%TO.P,MX24,1,1*%
%TO.N,col11*%
X325417500Y-219165000D03*
D11*
%TO.P,MX24,2,2*%
%TO.N,Net-(D24-A)*%
X334417542Y-209724599D03*
D10*
X333057500Y-210185000D03*
%TD*%
%TO.P,MX39,1,1*%
%TO.N,col5*%
X162401250Y-250825000D03*
%TO.P,MX39,2,2*%
%TO.N,Net-(D39-A)*%
X166211250Y-259265000D03*
%TO.P,MX39,1,1*%
%TO.N,col5*%
X161111250Y-257265000D03*
D11*
%TO.P,MX39,2,2*%
%TO.N,Net-(D39-A)*%
X170111292Y-247824599D03*
D10*
X168751250Y-248285000D03*
%TD*%
%TO.P,MX40,1,1*%
%TO.N,col6*%
X243363750Y-250825000D03*
%TO.P,MX40,2,2*%
%TO.N,Net-(D40-A)*%
X247173750Y-259265000D03*
%TO.P,MX40,1,1*%
%TO.N,col6*%
X242073750Y-257265000D03*
D11*
%TO.P,MX40,2,2*%
%TO.N,Net-(D40-A)*%
X251073792Y-247824599D03*
D10*
X249713750Y-248285000D03*
%TD*%
%TO.P,MX14,1,1*%
%TO.N,col1*%
X74295000Y-212725000D03*
%TO.P,MX14,2,2*%
%TO.N,Net-(D14-A)*%
X78105000Y-221165000D03*
%TO.P,MX14,1,1*%
%TO.N,col1*%
X73005000Y-219165000D03*
D11*
%TO.P,MX14,2,2*%
%TO.N,Net-(D14-A)*%
X82005042Y-209724599D03*
D10*
X80645000Y-210185000D03*
%TD*%
%TO.P,MX10,1,1*%
%TO.N,col9*%
X279082500Y-193675000D03*
%TO.P,MX10,2,2*%
%TO.N,Net-(D10-A)*%
X282892500Y-202115000D03*
%TO.P,MX10,1,1*%
%TO.N,col9*%
X277792500Y-200115000D03*
D11*
%TO.P,MX10,2,2*%
%TO.N,Net-(D10-A)*%
X286792542Y-190674599D03*
D10*
X285432500Y-191135000D03*
%TD*%
%TO.P,MX7,1,1*%
%TO.N,col6*%
X221932500Y-193675000D03*
%TO.P,MX7,2,2*%
%TO.N,Net-(D7-A)*%
X225742500Y-202115000D03*
%TO.P,MX7,1,1*%
%TO.N,col6*%
X220642500Y-200115000D03*
D11*
%TO.P,MX7,2,2*%
%TO.N,Net-(D7-A)*%
X229642542Y-190674599D03*
D10*
X228282500Y-191135000D03*
%TD*%
%TO.P,MX11,1,1*%
%TO.N,col10*%
X298132500Y-193675000D03*
%TO.P,MX11,2,2*%
%TO.N,Net-(D11-A)*%
X301942500Y-202115000D03*
%TO.P,MX11,1,1*%
%TO.N,col10*%
X296842500Y-200115000D03*
D11*
%TO.P,MX11,2,2*%
%TO.N,Net-(D11-A)*%
X305842542Y-190674599D03*
D10*
X304482500Y-191135000D03*
%TD*%
%TO.P,MX16,1,1*%
%TO.N,col3*%
X112395000Y-212725000D03*
%TO.P,MX16,2,2*%
%TO.N,Net-(D16-A)*%
X116205000Y-221165000D03*
%TO.P,MX16,1,1*%
%TO.N,col3*%
X111105000Y-219165000D03*
D11*
%TO.P,MX16,2,2*%
%TO.N,Net-(D16-A)*%
X120105042Y-209724599D03*
D10*
X118745000Y-210185000D03*
%TD*%
%TO.P,MX37,1,1*%
%TO.N,col3*%
X114776250Y-250825000D03*
%TO.P,MX37,2,2*%
%TO.N,Net-(D37-A)*%
X118586250Y-259265000D03*
%TO.P,MX37,1,1*%
%TO.N,col3*%
X113486250Y-257265000D03*
D11*
%TO.P,MX37,2,2*%
%TO.N,Net-(D37-A)*%
X122486292Y-247824599D03*
D10*
X121126250Y-248285000D03*
%TD*%
%TO.P,MX33,1,1*%
%TO.N,col8*%
X274320000Y-231775000D03*
%TO.P,MX33,2,2*%
%TO.N,Net-(D33-A)*%
X278130000Y-240215000D03*
%TO.P,MX33,1,1*%
%TO.N,col8*%
X273030000Y-238215000D03*
D11*
%TO.P,MX33,2,2*%
%TO.N,Net-(D33-A)*%
X282030042Y-228774599D03*
D10*
X280670000Y-229235000D03*
%TD*%
%TO.P,MX22,1,1*%
%TO.N,col9*%
X283845000Y-212725000D03*
%TO.P,MX22,2,2*%
%TO.N,Net-(D22-A)*%
X287655000Y-221165000D03*
%TO.P,MX22,1,1*%
%TO.N,col9*%
X282555000Y-219165000D03*
D11*
%TO.P,MX22,2,2*%
%TO.N,Net-(D22-A)*%
X291555042Y-209724599D03*
D10*
X290195000Y-210185000D03*
%TD*%
%TO.P,MX25,1,1*%
%TO.N,col0*%
X57626250Y-231775000D03*
%TO.P,MX25,2,2*%
%TO.N,Net-(D25-A)*%
X61436250Y-240215000D03*
%TO.P,MX25,1,1*%
%TO.N,col0*%
X56336250Y-238215000D03*
D11*
%TO.P,MX25,2,2*%
%TO.N,Net-(D25-A)*%
X65336292Y-228774599D03*
D10*
X63976250Y-229235000D03*
%TD*%
%TO.P,MX2,1,1*%
%TO.N,col1*%
X69532500Y-193675000D03*
%TO.P,MX2,2,2*%
%TO.N,Net-(D2-A)*%
X73342500Y-202115000D03*
%TO.P,MX2,1,1*%
%TO.N,col1*%
X68242500Y-200115000D03*
D11*
%TO.P,MX2,2,2*%
%TO.N,Net-(D2-A)*%
X77242542Y-190674599D03*
D10*
X75882500Y-191135000D03*
%TD*%
%TO.P,MX5,1,1*%
%TO.N,col4*%
X126682500Y-193675000D03*
%TO.P,MX5,2,2*%
%TO.N,Net-(D5-A)*%
X130492500Y-202115000D03*
%TO.P,MX5,1,1*%
%TO.N,col4*%
X125392500Y-200115000D03*
D11*
%TO.P,MX5,2,2*%
%TO.N,Net-(D5-A)*%
X134392542Y-190674599D03*
D10*
X133032500Y-191135000D03*
%TD*%
%TO.P,MX21,1,1*%
%TO.N,col8*%
X264795000Y-212725000D03*
%TO.P,MX21,2,2*%
%TO.N,Net-(D21-A)*%
X268605000Y-221165000D03*
%TO.P,MX21,1,1*%
%TO.N,col8*%
X263505000Y-219165000D03*
D11*
%TO.P,MX21,2,2*%
%TO.N,Net-(D21-A)*%
X272505042Y-209724599D03*
D10*
X271145000Y-210185000D03*
%TD*%
%TO.P,MX1,1,1*%
%TO.N,col0*%
X50482500Y-193675000D03*
%TO.P,MX1,2,2*%
%TO.N,Net-(D1-A)*%
X54292500Y-202115000D03*
%TO.P,MX1,1,1*%
%TO.N,col0*%
X49192500Y-200115000D03*
D11*
%TO.P,MX1,2,2*%
%TO.N,Net-(D1-A)*%
X58192542Y-190674599D03*
D10*
X56832500Y-191135000D03*
%TD*%
%TO.P,MX27,1,1*%
%TO.N,col2*%
X102870000Y-231775000D03*
%TO.P,MX27,2,2*%
%TO.N,Net-(D27-A)*%
X106680000Y-240215000D03*
%TO.P,MX27,1,1*%
%TO.N,col2*%
X101580000Y-238215000D03*
D11*
%TO.P,MX27,2,2*%
%TO.N,Net-(D27-A)*%
X110580042Y-228774599D03*
D10*
X109220000Y-229235000D03*
%TD*%
%TO.P,MX36,1,1*%
%TO.N,col11*%
X331470000Y-231775000D03*
%TO.P,MX36,2,2*%
%TO.N,Net-(D36-A)*%
X335280000Y-240215000D03*
%TO.P,MX36,1,1*%
%TO.N,col11*%
X330180000Y-238215000D03*
D11*
%TO.P,MX36,2,2*%
%TO.N,Net-(D36-A)*%
X339180042Y-228774599D03*
D10*
X337820000Y-229235000D03*
%TD*%
%TO.P,MX13,1,1*%
%TO.N,col0*%
X52863750Y-212725000D03*
%TO.P,MX13,2,2*%
%TO.N,Net-(D13-A)*%
X56673750Y-221165000D03*
%TO.P,MX13,1,1*%
%TO.N,col0*%
X51573750Y-219165000D03*
D11*
%TO.P,MX13,2,2*%
%TO.N,Net-(D13-A)*%
X60573792Y-209724599D03*
D10*
X59213750Y-210185000D03*
%TD*%
%TO.P,MX18,1,1*%
%TO.N,col5*%
X150495000Y-212725000D03*
%TO.P,MX18,2,2*%
%TO.N,Net-(D18-A)*%
X154305000Y-221165000D03*
%TO.P,MX18,1,1*%
%TO.N,col5*%
X149205000Y-219165000D03*
D11*
%TO.P,MX18,2,2*%
%TO.N,Net-(D18-A)*%
X158205042Y-209724599D03*
D10*
X156845000Y-210185000D03*
%TD*%
%TO.P,MX12,1,1*%
%TO.N,col11*%
X324326250Y-193675000D03*
%TO.P,MX12,2,2*%
%TO.N,Net-(D12-A)*%
X328136250Y-202115000D03*
%TO.P,MX12,1,1*%
%TO.N,col11*%
X323036250Y-200115000D03*
D11*
%TO.P,MX12,2,2*%
%TO.N,Net-(D12-A)*%
X332036292Y-190674599D03*
D10*
X330676250Y-191135000D03*
%TD*%
%TO.P,MX9,1,1*%
%TO.N,col8*%
X260032500Y-193675000D03*
%TO.P,MX9,2,2*%
%TO.N,Net-(D9-A)*%
X263842500Y-202115000D03*
%TO.P,MX9,1,1*%
%TO.N,col8*%
X258742500Y-200115000D03*
D11*
%TO.P,MX9,2,2*%
%TO.N,Net-(D9-A)*%
X267742542Y-190674599D03*
D10*
X266382500Y-191135000D03*
%TD*%
%TO.P,MX30,1,1*%
%TO.N,col5*%
X160020000Y-231775000D03*
%TO.P,MX30,2,2*%
%TO.N,Net-(D30-A)*%
X163830000Y-240215000D03*
%TO.P,MX30,1,1*%
%TO.N,col5*%
X158730000Y-238215000D03*
D11*
%TO.P,MX30,2,2*%
%TO.N,Net-(D30-A)*%
X167730042Y-228774599D03*
D10*
X166370000Y-229235000D03*
%TD*%
%TO.P,MX20,1,1*%
%TO.N,col7*%
X245745000Y-212725000D03*
%TO.P,MX20,2,2*%
%TO.N,Net-(D20-A)*%
X249555000Y-221165000D03*
%TO.P,MX20,1,1*%
%TO.N,col7*%
X244455000Y-219165000D03*
D11*
%TO.P,MX20,2,2*%
%TO.N,Net-(D20-A)*%
X253455042Y-209724599D03*
D10*
X252095000Y-210185000D03*
%TD*%
%TO.P,MX38,1,1*%
%TO.N,col4*%
X138588750Y-250825000D03*
%TO.P,MX38,2,2*%
%TO.N,Net-(D38-A)*%
X142398750Y-259265000D03*
%TO.P,MX38,1,1*%
%TO.N,col4*%
X137298750Y-257265000D03*
D11*
%TO.P,MX38,2,2*%
%TO.N,Net-(D38-A)*%
X146298792Y-247824599D03*
D10*
X144938750Y-248285000D03*
%TD*%
%TO.P,MX19,1,1*%
%TO.N,col6*%
X226695000Y-212725000D03*
%TO.P,MX19,2,2*%
%TO.N,Net-(D19-A)*%
X230505000Y-221165000D03*
%TO.P,MX19,1,1*%
%TO.N,col6*%
X225405000Y-219165000D03*
D11*
%TO.P,MX19,2,2*%
%TO.N,Net-(D19-A)*%
X234405042Y-209724599D03*
D10*
X233045000Y-210185000D03*
%TD*%
%TO.P,MX3,1,1*%
%TO.N,col2*%
X88582500Y-193675000D03*
%TO.P,MX3,2,2*%
%TO.N,Net-(D3-A)*%
X92392500Y-202115000D03*
%TO.P,MX3,1,1*%
%TO.N,col2*%
X87292500Y-200115000D03*
D11*
%TO.P,MX3,2,2*%
%TO.N,Net-(D3-A)*%
X96292542Y-190674599D03*
D10*
X94932500Y-191135000D03*
%TD*%
%TO.P,MX32,1,1*%
%TO.N,col7*%
X255270000Y-231775000D03*
%TO.P,MX32,2,2*%
%TO.N,Net-(D32-A)*%
X259080000Y-240215000D03*
%TO.P,MX32,1,1*%
%TO.N,col7*%
X253980000Y-238215000D03*
D11*
%TO.P,MX32,2,2*%
%TO.N,Net-(D32-A)*%
X262980042Y-228774599D03*
D10*
X261620000Y-229235000D03*
%TD*%
%TO.P,MX15,1,1*%
%TO.N,col2*%
X93345000Y-212725000D03*
%TO.P,MX15,2,2*%
%TO.N,Net-(D15-A)*%
X97155000Y-221165000D03*
%TO.P,MX15,1,1*%
%TO.N,col2*%
X92055000Y-219165000D03*
D11*
%TO.P,MX15,2,2*%
%TO.N,Net-(D15-A)*%
X101055042Y-209724599D03*
D10*
X99695000Y-210185000D03*
%TD*%
%TO.P,MX35,1,1*%
%TO.N,col10*%
X312420000Y-231775000D03*
%TO.P,MX35,2,2*%
%TO.N,Net-(D35-A)*%
X316230000Y-240215000D03*
%TO.P,MX35,1,1*%
%TO.N,col10*%
X311130000Y-238215000D03*
D11*
%TO.P,MX35,2,2*%
%TO.N,Net-(D35-A)*%
X320130042Y-228774599D03*
D10*
X318770000Y-229235000D03*
%TD*%
%TO.P,MX29,1,1*%
%TO.N,col4*%
X140970000Y-231775000D03*
%TO.P,MX29,2,2*%
%TO.N,Net-(D29-A)*%
X144780000Y-240215000D03*
%TO.P,MX29,1,1*%
%TO.N,col4*%
X139680000Y-238215000D03*
D11*
%TO.P,MX29,2,2*%
%TO.N,Net-(D29-A)*%
X148680042Y-228774599D03*
D10*
X147320000Y-229235000D03*
%TD*%
%TO.P,MX31,1,1*%
%TO.N,col6*%
X236220000Y-231775000D03*
%TO.P,MX31,2,2*%
%TO.N,Net-(D31-A)*%
X240030000Y-240215000D03*
%TO.P,MX31,1,1*%
%TO.N,col6*%
X234930000Y-238215000D03*
D11*
%TO.P,MX31,2,2*%
%TO.N,Net-(D31-A)*%
X243930042Y-228774599D03*
D10*
X242570000Y-229235000D03*
%TD*%
%TO.P,MX28,1,1*%
%TO.N,col3*%
X121920000Y-231775000D03*
%TO.P,MX28,2,2*%
%TO.N,Net-(D28-A)*%
X125730000Y-240215000D03*
%TO.P,MX28,1,1*%
%TO.N,col3*%
X120630000Y-238215000D03*
D11*
%TO.P,MX28,2,2*%
%TO.N,Net-(D28-A)*%
X129630042Y-228774599D03*
D10*
X128270000Y-229235000D03*
%TD*%
%TO.P,MX4,1,1*%
%TO.N,col3*%
X107632500Y-193675000D03*
%TO.P,MX4,2,2*%
%TO.N,Net-(D4-A)*%
X111442500Y-202115000D03*
%TO.P,MX4,1,1*%
%TO.N,col3*%
X106342500Y-200115000D03*
D11*
%TO.P,MX4,2,2*%
%TO.N,Net-(D4-A)*%
X115342542Y-190674599D03*
D10*
X113982500Y-191135000D03*
%TD*%
%TO.P,MX23,1,1*%
%TO.N,col10*%
X302895000Y-212725000D03*
%TO.P,MX23,2,2*%
%TO.N,Net-(D23-A)*%
X306705000Y-221165000D03*
%TO.P,MX23,1,1*%
%TO.N,col10*%
X301605000Y-219165000D03*
D11*
%TO.P,MX23,2,2*%
%TO.N,Net-(D23-A)*%
X310605042Y-209724599D03*
D10*
X309245000Y-210185000D03*
%TD*%
%TO.P,MX17,1,1*%
%TO.N,col4*%
X131445000Y-212725000D03*
%TO.P,MX17,2,2*%
%TO.N,Net-(D17-A)*%
X135255000Y-221165000D03*
%TO.P,MX17,1,1*%
%TO.N,col4*%
X130155000Y-219165000D03*
D11*
%TO.P,MX17,2,2*%
%TO.N,Net-(D17-A)*%
X139155042Y-209724599D03*
D10*
X137795000Y-210185000D03*
%TD*%
%TO.P,MX8,1,1*%
%TO.N,col7*%
X240982500Y-193675000D03*
%TO.P,MX8,2,2*%
%TO.N,Net-(D8-A)*%
X244792500Y-202115000D03*
%TO.P,MX8,1,1*%
%TO.N,col7*%
X239692500Y-200115000D03*
D11*
%TO.P,MX8,2,2*%
%TO.N,Net-(D8-A)*%
X248692542Y-190674599D03*
D10*
X247332500Y-191135000D03*
%TD*%
%TO.P,MX26,1,1*%
%TO.N,col1*%
X83820000Y-231775000D03*
%TO.P,MX26,2,2*%
%TO.N,Net-(D26-A)*%
X87630000Y-240215000D03*
%TO.P,MX26,1,1*%
%TO.N,col1*%
X82530000Y-238215000D03*
D11*
%TO.P,MX26,2,2*%
%TO.N,Net-(D26-A)*%
X91530042Y-228774599D03*
D10*
X90170000Y-229235000D03*
%TD*%
%TO.P,MX41,1,1*%
%TO.N,col7*%
X267176250Y-250825000D03*
%TO.P,MX41,2,2*%
%TO.N,Net-(D41-A)*%
X270986250Y-259265000D03*
%TO.P,MX41,1,1*%
%TO.N,col7*%
X265886250Y-257265000D03*
D11*
%TO.P,MX41,2,2*%
%TO.N,Net-(D41-A)*%
X274886292Y-247824599D03*
D10*
X273526250Y-248285000D03*
%TD*%
%TO.P,MX34,1,1*%
%TO.N,col9*%
X293370000Y-231775000D03*
%TO.P,MX34,2,2*%
%TO.N,Net-(D34-A)*%
X297180000Y-240215000D03*
%TO.P,MX34,1,1*%
%TO.N,col9*%
X292080000Y-238215000D03*
D11*
%TO.P,MX34,2,2*%
%TO.N,Net-(D34-A)*%
X301080042Y-228774599D03*
D10*
X299720000Y-229235000D03*
%TD*%
D12*
%TO.P,J4,1,Pin_1*%
%TO.N,Net-(J4-Pin_1)*%
X301305000Y-246600000D03*
%TD*%
D13*
%TO.P,D12,1,K*%
%TO.N,row0*%
X214310000Y-213836250D03*
D14*
%TO.P,D12,2,A*%
%TO.N,Net-(D12-A)*%
X214310000Y-206216250D03*
%TD*%
D13*
%TO.P,D23,1,K*%
%TO.N,row1*%
X205740000Y-230505000D03*
D14*
%TO.P,D23,2,A*%
%TO.N,Net-(D23-A)*%
X213360000Y-230505000D03*
%TD*%
D15*
%TO.P,J3,1,Pin_1*%
%TO.N,Net-(J3-Pin_1)*%
X343350000Y-249140000D03*
D16*
%TO.P,J3,2,Pin_2*%
%TO.N,gnd2*%
X343350000Y-251680000D03*
%TO.P,J3,3,Pin_3*%
%TO.N,Net-(J10-Pin_2)*%
X343350000Y-254220000D03*
%TO.P,J3,4,Pin_4*%
%TO.N,Net-(J10-Pin_3)*%
X343350000Y-256760000D03*
%TO.P,J3,5,Pin_5*%
%TO.N,Net-(J10-Pin_4)*%
X343350000Y-259300000D03*
%TD*%
D13*
%TO.P,D33,1,K*%
%TO.N,row2*%
X214312500Y-244697500D03*
D14*
%TO.P,D33,2,A*%
%TO.N,Net-(D33-A)*%
X214312500Y-237077500D03*
%TD*%
D17*
%TO.P,U2,1,D3-TX*%
%TO.N,d3*%
X65900000Y-261540000D03*
%TO.P,U2,2,D2-RX*%
%TO.N,d2*%
X68440000Y-261540000D03*
D18*
%TO.P,U2,3,GND*%
%TO.N,gndPM2*%
X70980000Y-261540000D03*
%TO.P,U2,4,GND*%
%TO.N,unconnected-(U2-GND-Pad4)*%
X73520000Y-261540000D03*
D17*
%TO.P,U2,5,D1*%
%TO.N,d1*%
X76060000Y-261540000D03*
%TO.P,U2,6,D0*%
%TO.N,d0*%
X78600000Y-261540000D03*
%TO.P,U2,7,D4*%
%TO.N,d4*%
X81140000Y-261540000D03*
%TO.P,U2,8,C6*%
%TO.N,c6*%
X83680000Y-261540000D03*
%TO.P,U2,9,D7*%
%TO.N,d7*%
X86220000Y-261540000D03*
%TO.P,U2,10,E6*%
%TO.N,e6*%
X88760000Y-261540000D03*
%TO.P,U2,11,B4*%
%TO.N,b4*%
X91300000Y-261540000D03*
%TO.P,U2,12,B5*%
%TO.N,b5*%
X93840000Y-261540000D03*
%TO.P,U2,13,B0*%
%TO.N,unconnected-(U2-B0-Pad13)*%
X65900000Y-246300000D03*
D18*
%TO.P,U2,14,GND*%
%TO.N,gndPM*%
X68440000Y-246300000D03*
D17*
%TO.P,U2,15,RST*%
%TO.N,rstPM*%
X70980000Y-246300000D03*
%TO.P,U2,16,VCC*%
%TO.N,vccPM*%
X73520000Y-246300000D03*
%TO.P,U2,17,F4*%
%TO.N,f4*%
X76060000Y-246300000D03*
%TO.P,U2,18,F5*%
%TO.N,f5*%
X78600000Y-246300000D03*
%TO.P,U2,19,F6*%
%TO.N,f6*%
X81140000Y-246300000D03*
%TO.P,U2,20,F7*%
%TO.N,f7*%
X83680000Y-246300000D03*
%TO.P,U2,21,B1*%
%TO.N,b1*%
X86220000Y-246300000D03*
%TO.P,U2,22,B3*%
%TO.N,b3*%
X88760000Y-246300000D03*
%TO.P,U2,23,B2*%
%TO.N,b2*%
X91300000Y-246300000D03*
%TO.P,U2,24,B6*%
%TO.N,b6*%
X93840000Y-246300000D03*
%TD*%
D13*
%TO.P,D17,1,K*%
%TO.N,row1*%
X171450000Y-220980000D03*
D14*
%TO.P,D17,2,A*%
%TO.N,Net-(D17-A)*%
X171450000Y-213360000D03*
%TD*%
D13*
%TO.P,D16,1,K*%
%TO.N,row1*%
X175736250Y-222408750D03*
D14*
%TO.P,D16,2,A*%
%TO.N,Net-(D16-A)*%
X175736250Y-214788750D03*
%TD*%
D13*
%TO.P,D25,1,K*%
%TO.N,row2*%
X189530000Y-252880000D03*
D14*
%TO.P,D25,2,A*%
%TO.N,Net-(D25-A)*%
X189530000Y-245260000D03*
%TD*%
D13*
%TO.P,D3,1,K*%
%TO.N,row0*%
X171450000Y-201930000D03*
D14*
%TO.P,D3,2,A*%
%TO.N,Net-(D3-A)*%
X171450000Y-194310000D03*
%TD*%
D13*
%TO.P,D41,1,K*%
%TO.N,row3*%
X214788750Y-258603750D03*
D14*
%TO.P,D41,2,A*%
%TO.N,Net-(D41-A)*%
X222408750Y-258603750D03*
%TD*%
D15*
%TO.P,J6,1,Pin_1*%
%TO.N,unconnected-(J6-Pin_1-Pad1)*%
X297675000Y-246645000D03*
D16*
%TO.P,J6,2,Pin_2*%
%TO.N,Net-(J4-Pin_1)*%
X295135000Y-246645000D03*
%TO.P,J6,3,Pin_3*%
%TO.N,gnd2*%
X292595000Y-246645000D03*
%TD*%
D13*
%TO.P,D31,1,K*%
%TO.N,row2*%
X205740000Y-241840000D03*
D14*
%TO.P,D31,2,A*%
%TO.N,Net-(D31-A)*%
X205740000Y-234220000D03*
%TD*%
D13*
%TO.P,D40,1,K*%
%TO.N,row3*%
X226218750Y-258603750D03*
D14*
%TO.P,D40,2,A*%
%TO.N,Net-(D40-A)*%
X233838750Y-258603750D03*
%TD*%
D13*
%TO.P,D14,1,K*%
%TO.N,row1*%
X184308750Y-225266250D03*
D14*
%TO.P,D14,2,A*%
%TO.N,Net-(D14-A)*%
X184308750Y-217646250D03*
%TD*%
D13*
%TO.P,D20,1,K*%
%TO.N,row1*%
X214312500Y-226218750D03*
D14*
%TO.P,D20,2,A*%
%TO.N,Net-(D20-A)*%
X214312500Y-218598750D03*
%TD*%
D13*
%TO.P,D28,1,K*%
%TO.N,row2*%
X185261250Y-240030000D03*
D14*
%TO.P,D28,2,A*%
%TO.N,Net-(D28-A)*%
X185261250Y-232410000D03*
%TD*%
D15*
%TO.P,J7,1,Pin_1*%
%TO.N,unconnected-(J7-Pin_1-Pad1)*%
X297715000Y-261830000D03*
D16*
%TO.P,J7,2,Pin_2*%
%TO.N,Net-(J7-Pin_2)*%
X295175000Y-261830000D03*
%TO.P,J7,3,Pin_3*%
%TO.N,rst*%
X292635000Y-261830000D03*
%TD*%
D19*
%TO.P,J1,1,1*%
%TO.N,unconnected-(J1-Pad1)*%
X193357500Y-197577500D03*
D20*
%TO.P,J1,2,2*%
%TO.N,col0*%
X193357500Y-200347500D03*
%TO.P,J1,3,3*%
%TO.N,unconnected-(J1-Pad3)*%
X193357500Y-203117500D03*
%TO.P,J1,4,4*%
%TO.N,unconnected-(J1-Pad4)*%
X193357500Y-205887500D03*
%TO.P,J1,5,5*%
%TO.N,col1*%
X193357500Y-208657500D03*
%TO.P,J1,6,6*%
%TO.N,col2*%
X193357500Y-211427500D03*
%TO.P,J1,7,7*%
%TO.N,col3*%
X193357500Y-214197500D03*
%TO.P,J1,8,8*%
%TO.N,col4*%
X193357500Y-216967500D03*
%TO.P,J1,9,9*%
%TO.N,col5*%
X193357500Y-219737500D03*
%TO.P,J1,10,10*%
%TO.N,row3*%
X193357500Y-222507500D03*
%TO.P,J1,11,11*%
%TO.N,unconnected-(J1-Pad11)*%
X193357500Y-225277500D03*
%TO.P,J1,12,12*%
%TO.N,unconnected-(J1-Pad12)*%
X193357500Y-228047500D03*
%TO.P,J1,13,13*%
%TO.N,row1*%
X193357500Y-230817500D03*
%TO.P,J1,14,P14*%
%TO.N,unconnected-(J1-P14-Pad14)*%
X196197500Y-198962500D03*
%TO.P,J1,15,P15*%
%TO.N,unconnected-(J1-P15-Pad15)*%
X196197500Y-201732500D03*
%TO.P,J1,16,P16*%
%TO.N,unconnected-(J1-P16-Pad16)*%
X196197500Y-204502500D03*
%TO.P,J1,17,P17*%
%TO.N,col11*%
X196197500Y-207272500D03*
%TO.P,J1,18,P18*%
%TO.N,col10*%
X196197500Y-210042500D03*
%TO.P,J1,19,P19*%
%TO.N,col9*%
X196197500Y-212812500D03*
%TO.P,J1,20,P20*%
%TO.N,col8*%
X196197500Y-215582500D03*
%TO.P,J1,21,P21*%
%TO.N,col7*%
X196197500Y-218352500D03*
%TO.P,J1,22,P22*%
%TO.N,col6*%
X196197500Y-221122500D03*
%TO.P,J1,23,P23*%
%TO.N,unconnected-(J1-P23-Pad23)*%
X196197500Y-223892500D03*
%TO.P,J1,24,P24*%
%TO.N,row2*%
X196197500Y-226662500D03*
%TO.P,J1,25,P25*%
%TO.N,row0*%
X196197500Y-229432500D03*
%TD*%
D13*
%TO.P,D30,1,K*%
%TO.N,row2*%
X176688750Y-237172500D03*
D14*
%TO.P,D30,2,A*%
%TO.N,Net-(D30-A)*%
X176688750Y-229552500D03*
%TD*%
D21*
%TO.P,U1,1,TX0/P0.06*%
%TO.N,006*%
X310780000Y-261820000D03*
%TO.P,U1,2,RX1/P0.08*%
%TO.N,008*%
X313320000Y-261820000D03*
%TO.P,U1,3,GND*%
%TO.N,Net-(J7-Pin_2)*%
X315860000Y-261820000D03*
%TO.P,U1,4,GND*%
%TO.N,gnd*%
X318400000Y-261820000D03*
%TO.P,U1,5,P0.17*%
%TO.N,017*%
X320940000Y-261820000D03*
%TO.P,U1,6,P0.20*%
%TO.N,020*%
X323480000Y-261820000D03*
%TO.P,U1,7,P0.22*%
%TO.N,022*%
X326020000Y-261820000D03*
%TO.P,U1,8,P0.24*%
%TO.N,024*%
X328560000Y-261820000D03*
%TO.P,U1,9,P1.00*%
%TO.N,100*%
X331100000Y-261820000D03*
%TO.P,U1,10,P0.11*%
%TO.N,011*%
X333640000Y-261820000D03*
%TO.P,U1,11,P1.04*%
%TO.N,004*%
X336180000Y-261820000D03*
%TO.P,U1,12,P1.06*%
%TO.N,106*%
X338720000Y-261820000D03*
%TO.P,U1,13,NFC1/P0.09*%
%TO.N,009*%
X338720000Y-246580000D03*
%TO.P,U1,14,NFC2/P0.10*%
%TO.N,010*%
X336180000Y-246580000D03*
%TO.P,U1,15,P1.11*%
%TO.N,111*%
X333640000Y-246580000D03*
%TO.P,U1,16,P1.13*%
%TO.N,113*%
X331100000Y-246580000D03*
%TO.P,U1,17,P1.15*%
%TO.N,115*%
X328560000Y-246580000D03*
%TO.P,U1,18,AIN0/P0.02*%
%TO.N,002*%
X326020000Y-246580000D03*
%TO.P,U1,19,AIN5/P0.29*%
%TO.N,029*%
X323480000Y-246580000D03*
%TO.P,U1,20,AIN7/P0.31*%
%TO.N,031*%
X320940000Y-246580000D03*
%TO.P,U1,21,VCC*%
%TO.N,Net-(J10-Pin_2)*%
X318400000Y-246580000D03*
%TO.P,U1,22,RST*%
%TO.N,rst*%
X315860000Y-246580000D03*
%TO.P,U1,23,GND*%
%TO.N,gnd2*%
X313320000Y-246580000D03*
%TO.P,U1,24,BATIN/P0.04*%
%TO.N,Net-(J5-Pin_1)*%
X310780000Y-246580000D03*
%TO.P,U1,31,P1.01*%
%TO.N,101*%
X333640000Y-259280000D03*
%TO.P,U1,32,P1.02*%
%TO.N,102*%
X333640000Y-256740000D03*
%TO.P,U1,33,P1.07*%
%TO.N,107*%
X333640000Y-254200000D03*
%TD*%
D13*
%TO.P,D26,1,K*%
%TO.N,row2*%
X185250000Y-251460000D03*
D14*
%TO.P,D26,2,A*%
%TO.N,Net-(D26-A)*%
X185250000Y-243840000D03*
%TD*%
D22*
%TO.P,JP4,1,A*%
%TO.N,Net-(J10-Pin_2)*%
X303755000Y-250260000D03*
D23*
%TO.P,JP4,2,B*%
%TO.N,vccJ*%
X302305000Y-250260000D03*
%TD*%
D13*
%TO.P,D5,1,K*%
%TO.N,row0*%
X180022500Y-204787500D03*
D14*
%TO.P,D5,2,A*%
%TO.N,Net-(D5-A)*%
X180022500Y-197167500D03*
%TD*%
D13*
%TO.P,D24,1,K*%
%TO.N,row1*%
X218598750Y-231933750D03*
D14*
%TO.P,D24,2,A*%
%TO.N,Net-(D24-A)*%
X226218750Y-231933750D03*
%TD*%
D13*
%TO.P,D13,1,K*%
%TO.N,row1*%
X176680000Y-210480000D03*
D14*
%TO.P,D13,2,A*%
%TO.N,Net-(D13-A)*%
X184300000Y-210480000D03*
%TD*%
D13*
%TO.P,D21,1,K*%
%TO.N,row1*%
X210026250Y-224790000D03*
D14*
%TO.P,D21,2,A*%
%TO.N,Net-(D21-A)*%
X210026250Y-217170000D03*
%TD*%
D13*
%TO.P,D9,1,K*%
%TO.N,row0*%
X214312500Y-201930000D03*
D14*
%TO.P,D9,2,A*%
%TO.N,Net-(D9-A)*%
X214312500Y-194310000D03*
%TD*%
D13*
%TO.P,D6,1,K*%
%TO.N,row0*%
X184308750Y-206216250D03*
D14*
%TO.P,D6,2,A*%
%TO.N,Net-(D6-A)*%
X184308750Y-198596250D03*
%TD*%
D13*
%TO.P,D34,1,K*%
%TO.N,row2*%
X218598750Y-246126250D03*
D14*
%TO.P,D34,2,A*%
%TO.N,Net-(D34-A)*%
X218598750Y-238506250D03*
%TD*%
D13*
%TO.P,D29,1,K*%
%TO.N,row2*%
X180975000Y-238601250D03*
D14*
%TO.P,D29,2,A*%
%TO.N,Net-(D29-A)*%
X180975000Y-230981250D03*
%TD*%
D13*
%TO.P,D22,1,K*%
%TO.N,row1*%
X205740000Y-223361250D03*
D14*
%TO.P,D22,2,A*%
%TO.N,Net-(D22-A)*%
X205740000Y-215741250D03*
%TD*%
D13*
%TO.P,D39,1,K*%
%TO.N,row3*%
X180498750Y-258603750D03*
D14*
%TO.P,D39,2,A*%
%TO.N,Net-(D39-A)*%
X188118750Y-258603750D03*
%TD*%
D13*
%TO.P,D4,1,K*%
%TO.N,row0*%
X175736250Y-203358750D03*
D14*
%TO.P,D4,2,A*%
%TO.N,Net-(D4-A)*%
X175736250Y-195738750D03*
%TD*%
D13*
%TO.P,D8,1,K*%
%TO.N,row0*%
X210026250Y-200501250D03*
D14*
%TO.P,D8,2,A*%
%TO.N,Net-(D8-A)*%
X210026250Y-192881250D03*
%TD*%
D13*
%TO.P,D15,1,K*%
%TO.N,row1*%
X180022500Y-223837500D03*
D14*
%TO.P,D15,2,A*%
%TO.N,Net-(D15-A)*%
X180022500Y-216217500D03*
%TD*%
D12*
%TO.P,J5,1,Pin_1*%
%TO.N,Net-(J5-Pin_1)*%
X304955000Y-246600000D03*
%TD*%
D13*
%TO.P,D38,1,K*%
%TO.N,row3*%
X191928750Y-258603750D03*
D14*
%TO.P,D38,2,A*%
%TO.N,Net-(D38-A)*%
X199548750Y-258603750D03*
%TD*%
D13*
%TO.P,D19,1,K*%
%TO.N,row1*%
X218598750Y-227647500D03*
D14*
%TO.P,D19,2,A*%
%TO.N,Net-(D19-A)*%
X218598750Y-220027500D03*
%TD*%
D15*
%TO.P,J9,1,Pin_1*%
%TO.N,unconnected-(J9-Pin_1-Pad1)*%
X97025000Y-256525000D03*
D16*
%TO.P,J9,2,Pin_2*%
%TO.N,gndPM2*%
X97025000Y-253985000D03*
%TO.P,J9,3,Pin_3*%
%TO.N,rstPM*%
X97025000Y-251445000D03*
%TD*%
D13*
%TO.P,D1,1,K*%
%TO.N,row0*%
X162877500Y-199072500D03*
D14*
%TO.P,D1,2,A*%
%TO.N,Net-(D1-A)*%
X162877500Y-191452500D03*
%TD*%
D13*
%TO.P,D7,1,K*%
%TO.N,row0*%
X205740000Y-199072500D03*
D14*
%TO.P,D7,2,A*%
%TO.N,Net-(D7-A)*%
X205740000Y-191452500D03*
%TD*%
D13*
%TO.P,D36,1,K*%
%TO.N,row2*%
X227171250Y-248983750D03*
D14*
%TO.P,D36,2,A*%
%TO.N,Net-(D36-A)*%
X227171250Y-241363750D03*
%TD*%
D13*
%TO.P,D11,1,K*%
%TO.N,row0*%
X210026250Y-212370000D03*
D14*
%TO.P,D11,2,A*%
%TO.N,Net-(D11-A)*%
X210026250Y-204750000D03*
%TD*%
D13*
%TO.P,D32,1,K*%
%TO.N,row2*%
X210026250Y-243268750D03*
D14*
%TO.P,D32,2,A*%
%TO.N,Net-(D32-A)*%
X210026250Y-235648750D03*
%TD*%
D15*
%TO.P,J10,1,Pin_1*%
%TO.N,gnd2*%
X341225000Y-250510000D03*
D16*
%TO.P,J10,2,Pin_2*%
%TO.N,Net-(J10-Pin_2)*%
X341225000Y-253050000D03*
%TO.P,J10,3,Pin_3*%
%TO.N,Net-(J10-Pin_3)*%
X341225000Y-255590000D03*
%TO.P,J10,4,Pin_4*%
%TO.N,Net-(J10-Pin_4)*%
X341225000Y-258130000D03*
%TD*%
D13*
%TO.P,D27,1,K*%
%TO.N,row2*%
X180960000Y-250020000D03*
D14*
%TO.P,D27,2,A*%
%TO.N,Net-(D27-A)*%
X180960000Y-242400000D03*
%TD*%
D13*
%TO.P,D18,1,K*%
%TO.N,row1*%
X167163750Y-219551250D03*
D14*
%TO.P,D18,2,A*%
%TO.N,Net-(D18-A)*%
X167163750Y-211931250D03*
%TD*%
D13*
%TO.P,D2,1,K*%
%TO.N,row0*%
X167163750Y-200501250D03*
D14*
%TO.P,D2,2,A*%
%TO.N,Net-(D2-A)*%
X167163750Y-192881250D03*
%TD*%
D13*
%TO.P,D10,1,K*%
%TO.N,row0*%
X205740000Y-210970000D03*
D14*
%TO.P,D10,2,A*%
%TO.N,Net-(D10-A)*%
X205740000Y-203350000D03*
%TD*%
D13*
%TO.P,D35,1,K*%
%TO.N,row2*%
X222885000Y-247555000D03*
D14*
%TO.P,D35,2,A*%
%TO.N,Net-(D35-A)*%
X222885000Y-239935000D03*
%TD*%
D13*
%TO.P,D37,1,K*%
%TO.N,row3*%
X203358750Y-258603750D03*
D14*
%TO.P,D37,2,A*%
%TO.N,Net-(D37-A)*%
X210978750Y-258603750D03*
%TD*%
D19*
%TO.P,J2,1,1*%
%TO.N,006*%
X294260000Y-255640000D03*
D20*
%TO.P,J2,2,2*%
%TO.N,008*%
X297030000Y-255640000D03*
%TO.P,J2,3,3*%
%TO.N,017*%
X299800000Y-255640000D03*
%TO.P,J2,4,4*%
%TO.N,020*%
X302570000Y-255640000D03*
%TO.P,J2,5,5*%
%TO.N,022*%
X305340000Y-255640000D03*
%TO.P,J2,6,6*%
%TO.N,024*%
X308110000Y-255640000D03*
%TO.P,J2,7,7*%
%TO.N,100*%
X310880000Y-255640000D03*
%TO.P,J2,8,8*%
%TO.N,011*%
X313650000Y-255640000D03*
%TO.P,J2,9,9*%
%TO.N,004*%
X316420000Y-255640000D03*
%TO.P,J2,10,10*%
%TO.N,106*%
X319190000Y-255640000D03*
%TO.P,J2,11,11*%
%TO.N,gnd2*%
X321960000Y-255640000D03*
%TO.P,J2,12,12*%
%TO.N,101*%
X324730000Y-255640000D03*
%TO.P,J2,13,13*%
%TO.N,102*%
X327500000Y-255640000D03*
%TO.P,J2,14,P14*%
%TO.N,gnd2*%
X295645000Y-252800000D03*
%TO.P,J2,15,P15*%
%TO.N,rst*%
X298415000Y-252800000D03*
%TO.P,J2,16,P16*%
%TO.N,vccJ*%
X301185000Y-252800000D03*
%TO.P,J2,17,P17*%
%TO.N,031*%
X303955000Y-252800000D03*
%TO.P,J2,18,P18*%
%TO.N,029*%
X306725000Y-252800000D03*
%TO.P,J2,19,P19*%
%TO.N,002*%
X309495000Y-252800000D03*
%TO.P,J2,20,P20*%
%TO.N,115*%
X312265000Y-252800000D03*
%TO.P,J2,21,P21*%
%TO.N,113*%
X315035000Y-252800000D03*
%TO.P,J2,22,P22*%
%TO.N,111*%
X317805000Y-252800000D03*
%TO.P,J2,23,P23*%
%TO.N,010*%
X320575000Y-252800000D03*
%TO.P,J2,24,P24*%
%TO.N,009*%
X323345000Y-252800000D03*
%TO.P,J2,25,P25*%
%TO.N,107*%
X326115000Y-252800000D03*
%TD*%
D19*
%TO.P,J8,1,1*%
%TO.N,unconnected-(J8-Pad1)*%
X55455000Y-255390000D03*
D20*
%TO.P,J8,2,2*%
%TO.N,d3*%
X58225000Y-255390000D03*
%TO.P,J8,3,3*%
%TO.N,unconnected-(J8-Pad3)*%
X60995000Y-255390000D03*
%TO.P,J8,4,4*%
%TO.N,unconnected-(J8-Pad4)*%
X63765000Y-255390000D03*
%TO.P,J8,5,5*%
%TO.N,d2*%
X66535000Y-255390000D03*
%TO.P,J8,6,6*%
%TO.N,d4*%
X69305000Y-255390000D03*
%TO.P,J8,7,7*%
%TO.N,c6*%
X72075000Y-255390000D03*
%TO.P,J8,8,8*%
%TO.N,d7*%
X74845000Y-255390000D03*
%TO.P,J8,9,9*%
%TO.N,e6*%
X77615000Y-255390000D03*
%TO.P,J8,10,10*%
%TO.N,b4*%
X80385000Y-255390000D03*
%TO.P,J8,11,11*%
%TO.N,unconnected-(J8-Pad11)*%
X83155000Y-255390000D03*
%TO.P,J8,12,12*%
%TO.N,unconnected-(J8-Pad12)*%
X85925000Y-255390000D03*
%TO.P,J8,13,13*%
%TO.N,b5*%
X88695000Y-255390000D03*
%TO.P,J8,14,P14*%
%TO.N,gndPM*%
X56840000Y-252550000D03*
%TO.P,J8,15,P15*%
%TO.N,rstPM*%
X59610000Y-252550000D03*
%TO.P,J8,16,P16*%
%TO.N,vccPM*%
X62380000Y-252550000D03*
%TO.P,J8,17,P17*%
%TO.N,f4*%
X65150000Y-252550000D03*
%TO.P,J8,18,P18*%
%TO.N,f5*%
X67920000Y-252550000D03*
%TO.P,J8,19,P19*%
%TO.N,f6*%
X70690000Y-252550000D03*
%TO.P,J8,20,P20*%
%TO.N,f7*%
X73460000Y-252550000D03*
%TO.P,J8,21,P21*%
%TO.N,b1*%
X76230000Y-252550000D03*
%TO.P,J8,22,P22*%
%TO.N,b3*%
X79000000Y-252550000D03*
%TO.P,J8,23,P23*%
%TO.N,unconnected-(J8-P23-Pad23)*%
X81770000Y-252550000D03*
%TO.P,J8,24,P24*%
%TO.N,b2*%
X84540000Y-252550000D03*
%TO.P,J8,25,P25*%
%TO.N,b6*%
X87310000Y-252550000D03*
%TD*%
D24*
%TO.N,gnd2*%
X341250000Y-248350000D03*
%TD*%
D25*
%TO.N,row2*%
X200322500Y-222537500D02*
X196197500Y-226662500D01*
X200322500Y-197253869D02*
X200322500Y-222537500D01*
X200320000Y-191010000D02*
X200320000Y-197251369D01*
X201460000Y-189870000D02*
X200320000Y-191010000D01*
X218370000Y-189870000D02*
X201460000Y-189870000D01*
X218967500Y-190467500D02*
X218370000Y-189870000D01*
X218967500Y-203167500D02*
X218967500Y-190467500D01*
X223500000Y-207700000D02*
X218967500Y-203167500D01*
X223500000Y-221700000D02*
X223500000Y-207700000D01*
X228190000Y-222250000D02*
X224050000Y-222250000D01*
X233130000Y-240870000D02*
X233130000Y-227190000D01*
X233130000Y-227190000D02*
X228190000Y-222250000D01*
X224050000Y-222250000D02*
X223500000Y-221700000D01*
X232700000Y-241300000D02*
X233130000Y-240870000D01*
X230600000Y-241300000D02*
X232700000Y-241300000D01*
X227171250Y-244728750D02*
X230600000Y-241300000D01*
X227171250Y-248983750D02*
X227171250Y-244728750D01*
X200320000Y-197251369D02*
X200322500Y-197253869D01*
%TO.N,Net-(D1-A)*%
X57626250Y-191928750D02*
X57626250Y-198781250D01*
X57626250Y-198781250D02*
X54292500Y-202115000D01*
X56832500Y-191135000D02*
X57626250Y-191928750D01*
%TO.N,Net-(D2-A)*%
X76676250Y-198781250D02*
X73342500Y-202115000D01*
X75882500Y-191135000D02*
X76676250Y-191928750D01*
X76676250Y-191928750D02*
X76676250Y-198781250D01*
%TO.N,Net-(D3-A)*%
X95726250Y-191928750D02*
X95726250Y-198781250D01*
X94932500Y-191135000D02*
X95726250Y-191928750D01*
X95726250Y-198781250D02*
X92392500Y-202115000D01*
%TO.N,Net-(D4-A)*%
X114776250Y-191928750D02*
X114776250Y-198781250D01*
X114776250Y-198781250D02*
X111442500Y-202115000D01*
X113982500Y-191135000D02*
X114776250Y-191928750D01*
%TO.N,Net-(D5-A)*%
X133826250Y-199165000D02*
X130876250Y-202115000D01*
X133032500Y-191135000D02*
X133826250Y-191928750D01*
X133826250Y-191928750D02*
X133826250Y-199165000D01*
X130876250Y-202115000D02*
X130492500Y-202115000D01*
%TO.N,Net-(D6-A)*%
X152876250Y-198781250D02*
X149542500Y-202115000D01*
X152876250Y-191928750D02*
X152876250Y-198781250D01*
X152082500Y-191135000D02*
X152876250Y-191928750D01*
%TO.N,Net-(D7-A)*%
X228282500Y-191135000D02*
X229076250Y-191928750D01*
X229076250Y-191928750D02*
X229076250Y-198781250D01*
X229076250Y-198781250D02*
X225742500Y-202115000D01*
%TO.N,Net-(D8-A)*%
X248126250Y-191928750D02*
X248126250Y-198781250D01*
X247332500Y-191135000D02*
X248126250Y-191928750D01*
X248126250Y-198781250D02*
X244792500Y-202115000D01*
%TO.N,Net-(D9-A)*%
X267176250Y-191928750D02*
X267176250Y-198781250D01*
X267176250Y-198781250D02*
X263842500Y-202115000D01*
X266382500Y-191135000D02*
X267176250Y-191928750D01*
%TO.N,Net-(D10-A)*%
X285432500Y-191135000D02*
X286226250Y-191928750D01*
X286226250Y-191928750D02*
X286226250Y-198781250D01*
X286226250Y-198781250D02*
X282892500Y-202115000D01*
%TO.N,Net-(D11-A)*%
X305276250Y-198781250D02*
X301942500Y-202115000D01*
X305276250Y-191928750D02*
X305276250Y-198781250D01*
X304482500Y-191135000D02*
X305276250Y-191928750D01*
%TO.N,Net-(D12-A)*%
X330676250Y-191135000D02*
X331470000Y-191928750D01*
X331470000Y-191928750D02*
X331470000Y-198781250D01*
X331470000Y-198781250D02*
X328136250Y-202115000D01*
%TO.N,Net-(D13-A)*%
X59213750Y-210185000D02*
X60007500Y-210978750D01*
X60007500Y-217831250D02*
X56673750Y-221165000D01*
X60007500Y-210978750D02*
X60007500Y-217831250D01*
%TO.N,Net-(D14-A)*%
X80645000Y-210185000D02*
X81438750Y-210978750D01*
X81438750Y-217831250D02*
X78105000Y-221165000D01*
X81438750Y-210978750D02*
X81438750Y-217831250D01*
%TO.N,Net-(D15-A)*%
X100488750Y-217831250D02*
X97155000Y-221165000D01*
X99695000Y-210185000D02*
X100488750Y-210978750D01*
X100488750Y-210978750D02*
X100488750Y-217831250D01*
%TO.N,Net-(D16-A)*%
X119538750Y-210978750D02*
X119538750Y-217831250D01*
X119538750Y-217831250D02*
X116205000Y-221165000D01*
X118745000Y-210185000D02*
X119538750Y-210978750D01*
%TO.N,Net-(D17-A)*%
X138588750Y-210978750D02*
X138588750Y-217831250D01*
X137795000Y-210185000D02*
X138588750Y-210978750D01*
X138588750Y-217831250D02*
X135255000Y-221165000D01*
%TO.N,Net-(D18-A)*%
X157638750Y-210978750D02*
X157638750Y-217831250D01*
X156845000Y-210185000D02*
X157638750Y-210978750D01*
X157638750Y-217831250D02*
X154305000Y-221165000D01*
%TO.N,Net-(D19-A)*%
X233838750Y-217831250D02*
X230505000Y-221165000D01*
X233838750Y-210978750D02*
X233838750Y-217831250D01*
X233045000Y-210185000D02*
X233838750Y-210978750D01*
%TO.N,Net-(D20-A)*%
X249846250Y-221165000D02*
X249555000Y-221165000D01*
X252888750Y-210978750D02*
X252888750Y-218122500D01*
X252095000Y-210185000D02*
X252888750Y-210978750D01*
X252888750Y-218122500D02*
X249846250Y-221165000D01*
%TO.N,Net-(D21-A)*%
X271938750Y-217831250D02*
X268605000Y-221165000D01*
X271145000Y-210185000D02*
X271938750Y-210978750D01*
X271938750Y-210978750D02*
X271938750Y-217831250D01*
%TO.N,Net-(D22-A)*%
X290988750Y-217831250D02*
X287655000Y-221165000D01*
X290988750Y-210978750D02*
X290988750Y-217831250D01*
X290195000Y-210185000D02*
X290988750Y-210978750D01*
%TO.N,Net-(D23-A)*%
X310038750Y-210978750D02*
X310038750Y-217831250D01*
X309245000Y-210185000D02*
X310038750Y-210978750D01*
X310038750Y-217831250D02*
X306705000Y-221165000D01*
%TO.N,Net-(D24-A)*%
X333057500Y-210185000D02*
X333851250Y-210978750D01*
X333851250Y-217831250D02*
X330517500Y-221165000D01*
X333851250Y-210978750D02*
X333851250Y-217831250D01*
%TO.N,Net-(D25-A)*%
X63976250Y-229235000D02*
X64770000Y-230028750D01*
X64770000Y-230028750D02*
X64770000Y-236881250D01*
X64770000Y-236881250D02*
X61436250Y-240215000D01*
%TO.N,Net-(D26-A)*%
X90170000Y-229235000D02*
X90963750Y-230028750D01*
X90963750Y-230028750D02*
X90963750Y-236881250D01*
X90963750Y-236881250D02*
X87630000Y-240215000D01*
%TO.N,Net-(D27-A)*%
X110013750Y-236881250D02*
X106680000Y-240215000D01*
X110013750Y-230028750D02*
X110013750Y-236881250D01*
X109220000Y-229235000D02*
X110013750Y-230028750D01*
%TO.N,Net-(D28-A)*%
X129063750Y-230028750D02*
X129063750Y-236881250D01*
X128270000Y-229235000D02*
X129063750Y-230028750D01*
X129063750Y-236881250D02*
X125730000Y-240215000D01*
%TO.N,Net-(D29-A)*%
X148113750Y-236881250D02*
X144780000Y-240215000D01*
X147320000Y-229235000D02*
X148113750Y-230028750D01*
X148113750Y-230028750D02*
X148113750Y-236881250D01*
%TO.N,Net-(D30-A)*%
X166370000Y-229235000D02*
X167163750Y-230028750D01*
X167163750Y-230028750D02*
X167163750Y-236881250D01*
X167163750Y-236881250D02*
X163830000Y-240215000D01*
%TO.N,Net-(D31-A)*%
X243363750Y-236881250D02*
X240030000Y-240215000D01*
X243363750Y-230028750D02*
X243363750Y-236881250D01*
X242570000Y-229235000D02*
X243363750Y-230028750D01*
%TO.N,Net-(D32-A)*%
X262413750Y-230028750D02*
X262413750Y-236881250D01*
X262413750Y-236881250D02*
X259080000Y-240215000D01*
X263610000Y-229235000D02*
X264080000Y-228765000D01*
X261620000Y-229235000D02*
X263610000Y-229235000D01*
X261620000Y-229235000D02*
X262413750Y-230028750D01*
%TO.N,Net-(D33-A)*%
X281463750Y-230028750D02*
X281463750Y-236881250D01*
X280670000Y-229235000D02*
X281463750Y-230028750D01*
X281463750Y-236881250D02*
X278130000Y-240215000D01*
%TO.N,Net-(D34-A)*%
X300513750Y-236881250D02*
X297180000Y-240215000D01*
X300513750Y-230028750D02*
X300513750Y-236881250D01*
X299720000Y-229235000D02*
X300513750Y-230028750D01*
%TO.N,Net-(D35-A)*%
X319563750Y-230028750D02*
X319563750Y-236881250D01*
X318770000Y-229235000D02*
X319563750Y-230028750D01*
X319563750Y-236881250D02*
X316230000Y-240215000D01*
%TO.N,Net-(D36-A)*%
X337820000Y-229235000D02*
X338613750Y-230028750D01*
X338613750Y-230028750D02*
X338613750Y-236881250D01*
X338613750Y-236881250D02*
X335280000Y-240215000D01*
%TO.N,Net-(D37-A)*%
X121126250Y-248285000D02*
X121920000Y-249078750D01*
X121920000Y-255931250D02*
X118586250Y-259265000D01*
X121920000Y-249078750D02*
X121920000Y-255931250D01*
%TO.N,Net-(D38-A)*%
X144938750Y-248285000D02*
X146138750Y-249485000D01*
X146138750Y-255525000D02*
X142398750Y-259265000D01*
X146138750Y-249485000D02*
X146138750Y-255525000D01*
%TO.N,Net-(D39-A)*%
X169545000Y-249078750D02*
X169545000Y-255931250D01*
X169545000Y-255931250D02*
X166211250Y-259265000D01*
X168751250Y-248285000D02*
X169545000Y-249078750D01*
%TO.N,Net-(D40-A)*%
X250507500Y-255931250D02*
X247173750Y-259265000D01*
X249713750Y-248285000D02*
X250507500Y-249078750D01*
X250507500Y-249078750D02*
X250507500Y-255931250D01*
%TO.N,Net-(D41-A)*%
X273526250Y-248285000D02*
X274320000Y-249078750D01*
X274320000Y-255931250D02*
X270986250Y-259265000D01*
X274320000Y-249078750D02*
X274320000Y-255931250D01*
%TO.N,006*%
X309800000Y-260840000D02*
X310780000Y-261820000D01*
X299460000Y-260840000D02*
X309800000Y-260840000D01*
X294260000Y-255640000D02*
X299460000Y-260840000D01*
%TO.N,008*%
X297030000Y-256560000D02*
X300860000Y-260390000D01*
X297030000Y-255640000D02*
X297030000Y-256560000D01*
X311981300Y-261322405D02*
X311981300Y-261341300D01*
X311981300Y-261341300D02*
X312460000Y-261820000D01*
X312460000Y-261820000D02*
X313320000Y-261820000D01*
X300860000Y-260390000D02*
X311048895Y-260390000D01*
X311048895Y-260390000D02*
X311981300Y-261322405D01*
%TO.N,017*%
X299800000Y-255640000D02*
X299800000Y-256590000D01*
X319335000Y-260215000D02*
X320940000Y-261820000D01*
X311510291Y-260215000D02*
X319335000Y-260215000D01*
X311235291Y-259940000D02*
X311510291Y-260215000D01*
X303150000Y-259940000D02*
X311235291Y-259940000D01*
X299800000Y-256590000D02*
X303150000Y-259940000D01*
%TO.N,020*%
X321425000Y-259765000D02*
X323480000Y-261820000D01*
X302570000Y-256550000D02*
X305510000Y-259490000D01*
X311696687Y-259765000D02*
X321425000Y-259765000D01*
X305510000Y-259490000D02*
X311421687Y-259490000D01*
X302570000Y-255640000D02*
X302570000Y-256550000D01*
X311421687Y-259490000D02*
X311696687Y-259765000D01*
%TO.N,022*%
X305340000Y-256600000D02*
X307780000Y-259040000D01*
X326020000Y-261810000D02*
X326020000Y-261820000D01*
X311608083Y-259040000D02*
X311883083Y-259315000D01*
X311883083Y-259315000D02*
X323525000Y-259315000D01*
X307780000Y-259040000D02*
X311608083Y-259040000D01*
X323525000Y-259315000D02*
X326020000Y-261810000D01*
X305340000Y-255640000D02*
X305340000Y-256600000D01*
%TO.N,024*%
X311794479Y-258590000D02*
X312069479Y-258865000D01*
X325585000Y-258865000D02*
X328540000Y-261820000D01*
X312069479Y-258865000D02*
X325585000Y-258865000D01*
X328540000Y-261820000D02*
X328560000Y-261820000D01*
X308110000Y-255640000D02*
X308110000Y-256560000D01*
X310140000Y-258590000D02*
X311794479Y-258590000D01*
X308110000Y-256560000D02*
X310140000Y-258590000D01*
%TO.N,100*%
X327685000Y-258415000D02*
X331090000Y-261820000D01*
X310880000Y-255640000D02*
X310880000Y-256610000D01*
X312685000Y-258415000D02*
X327685000Y-258415000D01*
X331090000Y-261820000D02*
X331100000Y-261820000D01*
X310880000Y-256610000D02*
X312685000Y-258415000D01*
%TO.N,011*%
X314965000Y-257965000D02*
X329745000Y-257965000D01*
X329745000Y-257965000D02*
X333600000Y-261820000D01*
X333600000Y-261820000D02*
X333640000Y-261820000D01*
X313650000Y-255640000D02*
X313650000Y-256650000D01*
X313650000Y-256650000D02*
X314965000Y-257965000D01*
%TO.N,004*%
X333279805Y-260618700D02*
X334178700Y-260618700D01*
X334178700Y-260618700D02*
X335380000Y-261820000D01*
X316420000Y-256610000D02*
X317325000Y-257515000D01*
X332438700Y-259777595D02*
X333279805Y-260618700D01*
X335380000Y-261820000D02*
X336180000Y-261820000D01*
X316420000Y-255640000D02*
X316420000Y-256610000D01*
X317325000Y-257515000D02*
X330195000Y-257515000D01*
X316420000Y-255640000D02*
X317174745Y-255640000D01*
X332438700Y-259758700D02*
X332438700Y-259777595D01*
X330195000Y-257515000D02*
X332438700Y-259758700D01*
%TO.N,106*%
X331755553Y-254215000D02*
X333010553Y-255470000D01*
X335400000Y-255470000D02*
X338720000Y-258790000D01*
X319580000Y-255640000D02*
X321005000Y-254215000D01*
X326909745Y-254215000D02*
X331755553Y-254215000D01*
X325524745Y-254225000D02*
X326899745Y-254225000D01*
X326899745Y-254225000D02*
X326909745Y-254215000D01*
X319190000Y-255640000D02*
X319580000Y-255640000D01*
X338720000Y-258790000D02*
X338720000Y-261820000D01*
X333010553Y-255470000D02*
X335400000Y-255470000D01*
X323935255Y-254225000D02*
X323945255Y-254215000D01*
X321005000Y-254215000D02*
X322744745Y-254215000D01*
X322754745Y-254225000D02*
X323935255Y-254225000D01*
X323945255Y-254215000D02*
X325514745Y-254215000D01*
X322744745Y-254215000D02*
X322754745Y-254225000D01*
X325514745Y-254215000D02*
X325524745Y-254225000D01*
%TO.N,101*%
X325245000Y-257065000D02*
X331425000Y-257065000D01*
X331425000Y-257065000D02*
X333640000Y-259280000D01*
X324730000Y-255640000D02*
X324730000Y-256550000D01*
X324730000Y-256550000D02*
X325245000Y-257065000D01*
%TO.N,102*%
X332540000Y-255640000D02*
X333640000Y-256740000D01*
X327500000Y-255640000D02*
X332540000Y-255640000D01*
%TO.N,031*%
X318415000Y-249105000D02*
X319738700Y-247781300D01*
X320940000Y-247360000D02*
X320940000Y-246580000D01*
X303955000Y-252800000D02*
X307650000Y-249105000D01*
X320518700Y-247781300D02*
X320940000Y-247360000D01*
X319738700Y-247781300D02*
X320518700Y-247781300D01*
X307650000Y-249105000D02*
X318415000Y-249105000D01*
%TO.N,029*%
X318601396Y-249555000D02*
X319925096Y-248231300D01*
X323480000Y-247400000D02*
X323480000Y-246580000D01*
X319925096Y-248231300D02*
X322648700Y-248231300D01*
X309970000Y-249555000D02*
X318601396Y-249555000D01*
X322648700Y-248231300D02*
X323480000Y-247400000D01*
X306725000Y-252800000D02*
X309970000Y-249555000D01*
%TO.N,002*%
X324728700Y-248681300D02*
X326020000Y-247390000D01*
X326020000Y-247390000D02*
X326020000Y-246580000D01*
X312305000Y-250005000D02*
X318787792Y-250005000D01*
X318787792Y-250005000D02*
X320111492Y-248681300D01*
X309510000Y-252800000D02*
X312305000Y-250005000D01*
X309495000Y-252800000D02*
X309510000Y-252800000D01*
X320111492Y-248681300D02*
X324728700Y-248681300D01*
%TO.N,115*%
X326808700Y-249131300D02*
X328560000Y-247380000D01*
X312265000Y-252785000D02*
X314595000Y-250455000D01*
X314595000Y-250455000D02*
X318974188Y-250455000D01*
X312265000Y-252800000D02*
X312265000Y-252785000D01*
X328560000Y-247380000D02*
X328560000Y-246580000D01*
X318974188Y-250455000D02*
X320297888Y-249131300D01*
X320297888Y-249131300D02*
X326808700Y-249131300D01*
%TO.N,113*%
X319160584Y-250905000D02*
X320484284Y-249581300D01*
X331100000Y-247350000D02*
X331100000Y-246580000D01*
X320484284Y-249581300D02*
X328868700Y-249581300D01*
X315060000Y-252800000D02*
X316955000Y-250905000D01*
X316955000Y-250905000D02*
X319160584Y-250905000D01*
X315035000Y-252800000D02*
X315060000Y-252800000D01*
X328868700Y-249581300D02*
X331100000Y-247350000D01*
%TO.N,111*%
X333640000Y-247370000D02*
X333640000Y-246580000D01*
X317901980Y-252800000D02*
X320670680Y-250031300D01*
X330978700Y-250031300D02*
X333640000Y-247370000D01*
X317805000Y-252800000D02*
X317901980Y-252800000D01*
X320670680Y-250031300D02*
X330978700Y-250031300D01*
%TO.N,010*%
X336180000Y-247340000D02*
X336180000Y-246580000D01*
X322918700Y-250481300D02*
X333038700Y-250481300D01*
X320575000Y-252800000D02*
X320600000Y-252800000D01*
X320600000Y-252800000D02*
X322918700Y-250481300D01*
X333038700Y-250481300D02*
X336180000Y-247340000D01*
%TO.N,009*%
X335178700Y-250931300D02*
X338720000Y-247390000D01*
X325213700Y-250931300D02*
X335178700Y-250931300D01*
X338720000Y-247390000D02*
X338720000Y-246580000D01*
X323345000Y-252800000D02*
X325213700Y-250931300D01*
%TO.N,107*%
X332240000Y-252800000D02*
X333640000Y-254200000D01*
X326115000Y-252800000D02*
X332240000Y-252800000D01*
%TO.N,rst*%
X306095000Y-247955000D02*
X315265000Y-247955000D01*
X315265000Y-247955000D02*
X315860000Y-247360000D01*
X299790000Y-248670000D02*
X305380000Y-248670000D01*
X298415000Y-252800000D02*
X298415000Y-250045000D01*
X305380000Y-248670000D02*
X306095000Y-247955000D01*
X315860000Y-247360000D02*
X315860000Y-246580000D01*
X298415000Y-250045000D02*
X299790000Y-248670000D01*
D26*
%TO.N,gnd2*%
X341250000Y-250485000D02*
X341225000Y-250510000D01*
X341250000Y-248350000D02*
X341250000Y-250485000D01*
D27*
%TO.N,Net-(J10-Pin_2)*%
X304910000Y-250260000D02*
X303755000Y-250260000D01*
X316450000Y-248530000D02*
X306640000Y-248530000D01*
X339269372Y-245253700D02*
X319726300Y-245253700D01*
X306640000Y-248530000D02*
X304910000Y-250260000D01*
X319726300Y-245253700D02*
X318400000Y-246580000D01*
X339925000Y-247250672D02*
X339925000Y-251750000D01*
X339925000Y-251750000D02*
X341225000Y-253050000D01*
X340046300Y-246030628D02*
X340046300Y-247129372D01*
X318400000Y-246580000D02*
X316450000Y-248530000D01*
X340046300Y-246030628D02*
X339269372Y-245253700D01*
X340046300Y-247129372D02*
X339925000Y-247250672D01*
%TO.N,vccJ*%
X301185000Y-250945000D02*
X301185000Y-252800000D01*
X301870000Y-250260000D02*
X302305000Y-250260000D01*
X301185000Y-250945000D02*
X301870000Y-250260000D01*
X301185000Y-252800000D02*
X301185000Y-252795000D01*
D25*
%TO.N,row0*%
X200772500Y-197067473D02*
X200772500Y-224857500D01*
X217680000Y-201930000D02*
X218517500Y-201092500D01*
X200770000Y-191196396D02*
X200770000Y-197064973D01*
X214312500Y-201930000D02*
X217680000Y-201930000D01*
X218517500Y-201092500D02*
X218517500Y-190717500D01*
X201646396Y-190320000D02*
X200770000Y-191196396D01*
X200772500Y-224857500D02*
X196197500Y-229432500D01*
X218120000Y-190320000D02*
X201646396Y-190320000D01*
X200770000Y-197064973D02*
X200772500Y-197067473D01*
X218517500Y-190717500D02*
X218120000Y-190320000D01*
%TO.N,row1*%
X156770000Y-203810000D02*
X156770000Y-190630000D01*
X161530000Y-208570000D02*
X156770000Y-203810000D01*
X157364583Y-190035417D02*
X187650645Y-190035417D01*
X162531250Y-219551250D02*
X161530000Y-218550000D01*
X156770000Y-190630000D02*
X157364583Y-190035417D01*
X188690000Y-191074772D02*
X188690000Y-226150000D01*
X188690000Y-226150000D02*
X193357500Y-230817500D01*
X167163750Y-219551250D02*
X162531250Y-219551250D01*
X161530000Y-218550000D02*
X161530000Y-208570000D01*
X187650645Y-190035417D02*
X188690000Y-191074772D01*
%TO.N,row3*%
X170820000Y-243980000D02*
X173290000Y-246450000D01*
X157114583Y-189585417D02*
X156320000Y-190380000D01*
X189140000Y-218290000D02*
X189140000Y-190888376D01*
X173290000Y-257790000D02*
X174103750Y-258603750D01*
X170820000Y-227750000D02*
X170820000Y-243980000D01*
X193357500Y-222507500D02*
X189140000Y-218290000D01*
X170270000Y-227200000D02*
X170820000Y-227750000D01*
X173290000Y-246450000D02*
X173290000Y-257790000D01*
X187837041Y-189585417D02*
X157114583Y-189585417D01*
X156320000Y-203996396D02*
X161080000Y-208756396D01*
X156320000Y-190380000D02*
X156320000Y-203996396D01*
X174103750Y-258603750D02*
X180498750Y-258603750D01*
X166000000Y-227200000D02*
X170270000Y-227200000D01*
X161080000Y-208756396D02*
X161080000Y-222280000D01*
X161080000Y-222280000D02*
X166000000Y-227200000D01*
X189140000Y-190888376D02*
X187837041Y-189585417D01*
%TO.N,col0*%
X58102500Y-236448750D02*
X56336250Y-238215000D01*
X192602755Y-200347500D02*
X193357500Y-200347500D01*
X49192500Y-200115000D02*
X49192500Y-209053750D01*
X53340000Y-213201250D02*
X53340000Y-217398750D01*
X50482500Y-193675000D02*
X50958750Y-194151250D01*
X191840000Y-189770000D02*
X191840000Y-198830000D01*
X51573750Y-219165000D02*
X51573750Y-225722500D01*
X58102500Y-232251250D02*
X58102500Y-236448750D01*
X51573750Y-225722500D02*
X57626250Y-231775000D01*
X191840000Y-198830000D02*
X193357500Y-200347500D01*
X50958750Y-194151250D02*
X50958750Y-198348750D01*
X53340000Y-217398750D02*
X51573750Y-219165000D01*
X50958750Y-198348750D02*
X49192500Y-200115000D01*
X50482500Y-193675000D02*
X57272083Y-186885417D01*
X52863750Y-212725000D02*
X53340000Y-213201250D01*
X49192500Y-209053750D02*
X52863750Y-212725000D01*
X57272083Y-186885417D02*
X188955417Y-186885417D01*
X188955417Y-186885417D02*
X191840000Y-189770000D01*
X57626250Y-231775000D02*
X58102500Y-232251250D01*
%TO.N,col1*%
X74771250Y-217398750D02*
X73005000Y-219165000D01*
X191390000Y-189956396D02*
X191390000Y-206690000D01*
X74771250Y-213201250D02*
X74771250Y-217398750D01*
X69532500Y-193675000D02*
X70008750Y-194151250D01*
X68242500Y-200115000D02*
X68242500Y-206672500D01*
X70008750Y-198348750D02*
X68242500Y-200115000D01*
X83820000Y-231775000D02*
X84296250Y-232251250D01*
X188769021Y-187335417D02*
X191390000Y-189956396D01*
X75872083Y-187335417D02*
X188769021Y-187335417D01*
X70008750Y-194151250D02*
X70008750Y-198348750D01*
X68242500Y-206672500D02*
X74295000Y-212725000D01*
X84296250Y-232251250D02*
X84296250Y-236696250D01*
X74295000Y-212725000D02*
X74771250Y-213201250D01*
X69532500Y-193675000D02*
X75872083Y-187335417D01*
X73005000Y-219165000D02*
X73005000Y-220960000D01*
X191390000Y-206690000D02*
X193357500Y-208657500D01*
X73005000Y-220960000D02*
X83820000Y-231775000D01*
X82777500Y-238215000D02*
X82530000Y-238215000D01*
X84296250Y-236696250D02*
X82777500Y-238215000D01*
%TO.N,col2*%
X92055000Y-220960000D02*
X102870000Y-231775000D01*
X93821250Y-213201250D02*
X93821250Y-217398750D01*
X190940000Y-209010000D02*
X193357500Y-211427500D01*
X89058750Y-198348750D02*
X87292500Y-200115000D01*
X87292500Y-200115000D02*
X87292500Y-206672500D01*
X92055000Y-219165000D02*
X92055000Y-220960000D01*
X102870000Y-231775000D02*
X103346250Y-232251250D01*
X88582500Y-193675000D02*
X94472083Y-187785417D01*
X89058750Y-194151250D02*
X89058750Y-198348750D01*
X94472083Y-187785417D02*
X188582625Y-187785417D01*
X190940000Y-190142792D02*
X190940000Y-209010000D01*
X87292500Y-206672500D02*
X93345000Y-212725000D01*
X93821250Y-217398750D02*
X92055000Y-219165000D01*
X103346250Y-232251250D02*
X103346250Y-236448750D01*
X188582625Y-187785417D02*
X190940000Y-190142792D01*
X103346250Y-236448750D02*
X101580000Y-238215000D01*
X93345000Y-212725000D02*
X93821250Y-213201250D01*
X88582500Y-193675000D02*
X89058750Y-194151250D01*
%TO.N,col3*%
X113072083Y-188235417D02*
X188396229Y-188235417D01*
X108108750Y-198348750D02*
X106342500Y-200115000D01*
X106342500Y-206672500D02*
X112395000Y-212725000D01*
X188396229Y-188235417D02*
X190490000Y-190329188D01*
X107632500Y-193675000D02*
X113072083Y-188235417D01*
X122396250Y-236448750D02*
X120630000Y-238215000D01*
X107632500Y-193675000D02*
X108108750Y-194151250D01*
X114776250Y-250825000D02*
X115252500Y-251301250D01*
X190490000Y-190329188D02*
X190490000Y-211330000D01*
X120630000Y-238215000D02*
X120630000Y-244971250D01*
X115252500Y-255498750D02*
X113486250Y-257265000D01*
X108108750Y-194151250D02*
X108108750Y-198348750D01*
X122396250Y-232251250D02*
X122396250Y-236448750D01*
X111105000Y-219165000D02*
X111105000Y-220960000D01*
X112871250Y-213201250D02*
X112871250Y-217398750D01*
X120630000Y-244971250D02*
X114776250Y-250825000D01*
X190490000Y-211330000D02*
X193357500Y-214197500D01*
X121920000Y-231775000D02*
X122396250Y-232251250D01*
X112395000Y-212725000D02*
X112871250Y-213201250D01*
X111105000Y-220960000D02*
X121920000Y-231775000D01*
X115252500Y-251301250D02*
X115252500Y-255498750D01*
X106342500Y-200115000D02*
X106342500Y-206672500D01*
X112871250Y-217398750D02*
X111105000Y-219165000D01*
%TO.N,col4*%
X131672083Y-188685417D02*
X188209833Y-188685417D01*
X131445000Y-212725000D02*
X131921250Y-213201250D01*
X131921250Y-213201250D02*
X131921250Y-217398750D01*
X139680000Y-238215000D02*
X139680000Y-249733750D01*
X127158750Y-198348750D02*
X125392500Y-200115000D01*
X188209833Y-188685417D02*
X190040000Y-190515584D01*
X125392500Y-206672500D02*
X131445000Y-212725000D01*
X130155000Y-220960000D02*
X140970000Y-231775000D01*
X138588750Y-250825000D02*
X139065000Y-251301250D01*
X190040000Y-190515584D02*
X190040000Y-213650000D01*
X130155000Y-219165000D02*
X130155000Y-220960000D01*
X140970000Y-231775000D02*
X141446250Y-232251250D01*
X190040000Y-213650000D02*
X193357500Y-216967500D01*
X141446250Y-236448750D02*
X139680000Y-238215000D01*
X126682500Y-193675000D02*
X131672083Y-188685417D01*
X125392500Y-200115000D02*
X125392500Y-206672500D01*
X127158750Y-194151250D02*
X127158750Y-198348750D01*
X141446250Y-232251250D02*
X141446250Y-236448750D01*
X139065000Y-251301250D02*
X139065000Y-255498750D01*
X131921250Y-217398750D02*
X130155000Y-219165000D01*
X139680000Y-249733750D02*
X138588750Y-250825000D01*
X126682500Y-193675000D02*
X127158750Y-194151250D01*
X139065000Y-255498750D02*
X137298750Y-257265000D01*
%TO.N,col5*%
X145732500Y-193675000D02*
X150272083Y-189135417D01*
X149205000Y-219165000D02*
X149205000Y-220960000D01*
X150495000Y-212725000D02*
X150971250Y-213201250D01*
X150272083Y-189135417D02*
X188023437Y-189135417D01*
X162401250Y-250825000D02*
X162877500Y-251301250D01*
X150971250Y-213201250D02*
X150971250Y-217398750D01*
X189590000Y-215970000D02*
X193357500Y-219737500D01*
X160496250Y-232251250D02*
X160496250Y-236448750D01*
X188023437Y-189135417D02*
X189590000Y-190701980D01*
X149205000Y-220960000D02*
X160020000Y-231775000D01*
X158730000Y-238215000D02*
X158730000Y-247153750D01*
X145732500Y-193675000D02*
X146208750Y-194151250D01*
X144442500Y-206672500D02*
X150495000Y-212725000D01*
X162877500Y-251301250D02*
X162877500Y-255498750D01*
X162877500Y-255498750D02*
X161111250Y-257265000D01*
X144442500Y-200115000D02*
X144442500Y-206672500D01*
X146208750Y-198348750D02*
X144442500Y-200115000D01*
X146208750Y-194151250D02*
X146208750Y-198348750D01*
X160496250Y-236448750D02*
X158730000Y-238215000D01*
X160020000Y-231775000D02*
X160496250Y-232251250D01*
X189590000Y-190701980D02*
X189590000Y-215970000D01*
X158730000Y-247153750D02*
X162401250Y-250825000D01*
X150971250Y-217398750D02*
X149205000Y-219165000D01*
%TO.N,col6*%
X220642500Y-202162500D02*
X226695000Y-208215000D01*
X201273604Y-189420000D02*
X199870000Y-190823604D01*
X236696250Y-236448750D02*
X234930000Y-238215000D01*
X199870000Y-197437765D02*
X199872500Y-197440265D01*
X221932500Y-192732500D02*
X218620000Y-189420000D01*
X243363750Y-249723750D02*
X243363750Y-250825000D01*
X227171250Y-217398750D02*
X225405000Y-219165000D01*
X225405000Y-219165000D02*
X226275000Y-219165000D01*
X226275000Y-219165000D02*
X236220000Y-229110000D01*
X222408750Y-194151250D02*
X222408750Y-198348750D01*
X221932500Y-193675000D02*
X222408750Y-194151250D01*
X236220000Y-229110000D02*
X236220000Y-231775000D01*
X199870000Y-190823604D02*
X199870000Y-197437765D01*
X220642500Y-200115000D02*
X220642500Y-202162500D01*
X236220000Y-231775000D02*
X236696250Y-232251250D01*
X221932500Y-193675000D02*
X221932500Y-192732500D01*
X234930000Y-241290000D02*
X243363750Y-249723750D01*
X222408750Y-198348750D02*
X220642500Y-200115000D01*
X226695000Y-212725000D02*
X227171250Y-213201250D01*
X243840000Y-255498750D02*
X242073750Y-257265000D01*
X199872500Y-197440265D02*
X199872500Y-217447500D01*
X218620000Y-189420000D02*
X201273604Y-189420000D01*
X243363750Y-250825000D02*
X243840000Y-251301250D01*
X243840000Y-251301250D02*
X243840000Y-255498750D01*
X227171250Y-213201250D02*
X227171250Y-217398750D01*
X234930000Y-238215000D02*
X234930000Y-241290000D01*
X199872500Y-217447500D02*
X196197500Y-221122500D01*
X226695000Y-208215000D02*
X226695000Y-212725000D01*
X236696250Y-232251250D02*
X236696250Y-236448750D01*
%TO.N,col7*%
X255746250Y-232251250D02*
X255746250Y-236448750D01*
X246221250Y-217398750D02*
X244455000Y-219165000D01*
X267652500Y-251301250D02*
X267652500Y-255498750D01*
X240982500Y-193675000D02*
X241458750Y-194151250D01*
X255746250Y-236448750D02*
X253980000Y-238215000D01*
X199422500Y-215127500D02*
X196197500Y-218352500D01*
X241458750Y-194151250D02*
X241458750Y-198348750D01*
X246221250Y-213201250D02*
X246221250Y-217398750D01*
X241458750Y-198348750D02*
X239692500Y-200115000D01*
X239692500Y-206672500D02*
X245745000Y-212725000D01*
X201087208Y-188970000D02*
X199420000Y-190637208D01*
X240982500Y-193675000D02*
X236277500Y-188970000D01*
X244455000Y-220960000D02*
X255270000Y-231775000D01*
X199422500Y-197626661D02*
X199422500Y-215127500D01*
X239692500Y-200115000D02*
X239692500Y-206672500D01*
X244455000Y-219165000D02*
X244455000Y-220960000D01*
X199420000Y-190637208D02*
X199420000Y-197624161D01*
X267176250Y-250825000D02*
X267652500Y-251301250D01*
X255270000Y-231775000D02*
X255746250Y-232251250D01*
X254407500Y-238215000D02*
X267017500Y-250825000D01*
X267017500Y-250825000D02*
X267176250Y-250825000D01*
X245745000Y-212725000D02*
X246221250Y-213201250D01*
X236277500Y-188970000D02*
X201087208Y-188970000D01*
X199420000Y-197624161D02*
X199422500Y-197626661D01*
X267652500Y-255498750D02*
X265886250Y-257265000D01*
X253980000Y-238215000D02*
X254407500Y-238215000D01*
%TO.N,col8*%
X263505000Y-220975000D02*
X274305000Y-231775000D01*
X265271250Y-213201250D02*
X265271250Y-217398750D01*
X265271250Y-217398750D02*
X263505000Y-219165000D01*
X260508750Y-194151250D02*
X260508750Y-198348750D01*
X198970000Y-190450812D02*
X198970000Y-197810557D01*
X198972500Y-197813057D02*
X198972500Y-212807500D01*
X274305000Y-231775000D02*
X274320000Y-231775000D01*
X258742500Y-206672500D02*
X264795000Y-212725000D01*
X274320000Y-231775000D02*
X274796250Y-232251250D01*
X258742500Y-200115000D02*
X258742500Y-206672500D01*
X198972500Y-212807500D02*
X196197500Y-215582500D01*
X260032500Y-193675000D02*
X260508750Y-194151250D01*
X198970000Y-197810557D02*
X198972500Y-197813057D01*
X274796250Y-236448750D02*
X273030000Y-238215000D01*
X263505000Y-219165000D02*
X263505000Y-220975000D01*
X260032500Y-193675000D02*
X254877500Y-188520000D01*
X260508750Y-198348750D02*
X258742500Y-200115000D01*
X264795000Y-212725000D02*
X265271250Y-213201250D01*
X274796250Y-232251250D02*
X274796250Y-236448750D01*
X254877500Y-188520000D02*
X200900812Y-188520000D01*
X200900812Y-188520000D02*
X198970000Y-190450812D01*
%TO.N,col9*%
X293846250Y-232251250D02*
X293846250Y-236448750D01*
X198520000Y-190264416D02*
X198520000Y-197996953D01*
X293370000Y-231775000D02*
X293846250Y-232251250D01*
X293846250Y-236448750D02*
X292080000Y-238215000D01*
X279558750Y-194151250D02*
X279558750Y-198348750D01*
X198520000Y-197996953D02*
X198522500Y-197999453D01*
X284321250Y-217398750D02*
X282555000Y-219165000D01*
X200714416Y-188070000D02*
X198520000Y-190264416D01*
X279082500Y-193675000D02*
X273477500Y-188070000D01*
X273477500Y-188070000D02*
X200714416Y-188070000D01*
X282555000Y-220960000D02*
X293370000Y-231775000D01*
X198522500Y-197999453D02*
X198522500Y-210487500D01*
X284321250Y-213201250D02*
X284321250Y-217398750D01*
X198522500Y-210487500D02*
X196197500Y-212812500D01*
X279082500Y-193675000D02*
X279558750Y-194151250D01*
X279558750Y-198348750D02*
X277792500Y-200115000D01*
X277792500Y-206672500D02*
X283845000Y-212725000D01*
X283845000Y-212725000D02*
X284321250Y-213201250D01*
X277792500Y-200115000D02*
X277792500Y-206672500D01*
X282555000Y-219165000D02*
X282555000Y-220960000D01*
%TO.N,col10*%
X198070000Y-198183349D02*
X198072500Y-198185849D01*
X200528020Y-187620000D02*
X198070000Y-190078020D01*
X296842500Y-206672500D02*
X302895000Y-212725000D01*
X301605000Y-219165000D02*
X301605000Y-220960000D01*
X298132500Y-193675000D02*
X298608750Y-194151250D01*
X312896250Y-236448750D02*
X311130000Y-238215000D01*
X292077500Y-187620000D02*
X200528020Y-187620000D01*
X198072500Y-198185849D02*
X198072500Y-208167500D01*
X302895000Y-212725000D02*
X303371250Y-213201250D01*
X301605000Y-220960000D02*
X312420000Y-231775000D01*
X298608750Y-198348750D02*
X296842500Y-200115000D01*
X298608750Y-194151250D02*
X298608750Y-198348750D01*
X312420000Y-231775000D02*
X312896250Y-232251250D01*
X296842500Y-200115000D02*
X296842500Y-206672500D01*
X303371250Y-213201250D02*
X303371250Y-217398750D01*
X303371250Y-217398750D02*
X301605000Y-219165000D01*
X198072500Y-208167500D02*
X196197500Y-210042500D01*
X198070000Y-190078020D02*
X198070000Y-198183349D01*
X312896250Y-232251250D02*
X312896250Y-236448750D01*
X298132500Y-193675000D02*
X292077500Y-187620000D01*
%TO.N,col11*%
X197622500Y-198372245D02*
X197622500Y-205847500D01*
X324802500Y-194151250D02*
X324802500Y-198348750D01*
X327183750Y-217398750D02*
X325417500Y-219165000D01*
X197622500Y-205847500D02*
X196197500Y-207272500D01*
X323036250Y-209053750D02*
X326707500Y-212725000D01*
X317821250Y-187170000D02*
X200341624Y-187170000D01*
X326707500Y-212725000D02*
X327183750Y-213201250D01*
X324326250Y-193675000D02*
X317821250Y-187170000D01*
X197620000Y-198369745D02*
X197622500Y-198372245D01*
X324802500Y-198348750D02*
X323036250Y-200115000D01*
X200341624Y-187170000D02*
X197620000Y-189891624D01*
X331946250Y-236448750D02*
X330180000Y-238215000D01*
X327183750Y-213201250D02*
X327183750Y-217398750D01*
X197620000Y-189891624D02*
X197620000Y-198369745D01*
X325417500Y-219165000D02*
X325417500Y-222297500D01*
X325417500Y-222297500D02*
X331470000Y-228350000D01*
X331946250Y-232251250D02*
X331946250Y-236448750D01*
X324326250Y-193675000D02*
X324802500Y-194151250D01*
X331470000Y-228350000D02*
X331470000Y-231775000D01*
X323036250Y-200115000D02*
X323036250Y-209053750D01*
X331470000Y-231775000D02*
X331946250Y-232251250D01*
%TO.N,b6*%
X87310000Y-252550000D02*
X93560000Y-246300000D01*
X93560000Y-246300000D02*
X93840000Y-246300000D01*
%TO.N,b2*%
X84540000Y-252550000D02*
X90790000Y-246300000D01*
X90790000Y-246300000D02*
X91300000Y-246300000D01*
%TO.N,b3*%
X83935000Y-251125000D02*
X88760000Y-246300000D01*
X79000000Y-252550000D02*
X80425000Y-251125000D01*
X80425000Y-251125000D02*
X83935000Y-251125000D01*
%TO.N,b1*%
X78105000Y-250675000D02*
X81845000Y-250675000D01*
X76230000Y-252550000D02*
X78105000Y-250675000D01*
X81845000Y-250675000D02*
X86220000Y-246300000D01*
%TO.N,f7*%
X73460000Y-252550000D02*
X75785000Y-250225000D01*
X75785000Y-250225000D02*
X79755000Y-250225000D01*
X79755000Y-250225000D02*
X83680000Y-246300000D01*
%TO.N,f6*%
X73465000Y-249775000D02*
X77665000Y-249775000D01*
X70690000Y-252550000D02*
X73465000Y-249775000D01*
X77665000Y-249775000D02*
X81140000Y-246300000D01*
%TO.N,f5*%
X75575000Y-249325000D02*
X78600000Y-246300000D01*
X67920000Y-252550000D02*
X71145000Y-249325000D01*
X71145000Y-249325000D02*
X75575000Y-249325000D01*
%TO.N,f4*%
X65150000Y-252550000D02*
X68825000Y-248875000D01*
X68825000Y-248875000D02*
X73485000Y-248875000D01*
X73485000Y-248875000D02*
X76060000Y-246300000D01*
%TO.N,vccPM*%
X71395000Y-248425000D02*
X66505000Y-248425000D01*
X73520000Y-246300000D02*
X71395000Y-248425000D01*
X66505000Y-248425000D02*
X62380000Y-252550000D01*
%TO.N,rstPM*%
X59610000Y-252550000D02*
X64185000Y-247975000D01*
X64185000Y-247975000D02*
X69305000Y-247975000D01*
X69305000Y-247975000D02*
X70980000Y-246300000D01*
%TO.N,b5*%
X93840000Y-260535000D02*
X93840000Y-261540000D01*
X88695000Y-255390000D02*
X93840000Y-260535000D01*
%TO.N,b4*%
X86575000Y-256815000D02*
X91300000Y-261540000D01*
X81810000Y-256815000D02*
X86575000Y-256815000D01*
X80385000Y-255390000D02*
X81810000Y-256815000D01*
%TO.N,e6*%
X84485000Y-257265000D02*
X88760000Y-261540000D01*
X77615000Y-255390000D02*
X79490000Y-257265000D01*
X79490000Y-257265000D02*
X84485000Y-257265000D01*
%TO.N,d7*%
X82395000Y-257715000D02*
X86220000Y-261540000D01*
X77170000Y-257715000D02*
X82395000Y-257715000D01*
X86220000Y-261225000D02*
X86220000Y-261540000D01*
X74845000Y-255390000D02*
X77170000Y-257715000D01*
%TO.N,c6*%
X80305000Y-258165000D02*
X83680000Y-261540000D01*
X83680000Y-261455000D02*
X83680000Y-261540000D01*
X72075000Y-255390000D02*
X74850000Y-258165000D01*
X74850000Y-258165000D02*
X80305000Y-258165000D01*
%TO.N,d4*%
X72530000Y-258615000D02*
X78215000Y-258615000D01*
X78215000Y-258615000D02*
X81140000Y-261540000D01*
X80995000Y-261540000D02*
X81140000Y-261540000D01*
X69305000Y-255390000D02*
X72530000Y-258615000D01*
X69305000Y-255390000D02*
X69910000Y-255390000D01*
%TO.N,d0*%
X78225000Y-261540000D02*
X78600000Y-261540000D01*
%TO.N,d2*%
X66535000Y-259635000D02*
X68440000Y-261540000D01*
X66535000Y-255390000D02*
X66535000Y-259635000D01*
%TO.N,d3*%
X59740000Y-261540000D02*
X65900000Y-261540000D01*
X58225000Y-260025000D02*
X59740000Y-261540000D01*
X58225000Y-255390000D02*
X58225000Y-260025000D01*
%TO.N,gndPM*%
X67215000Y-247525000D02*
X68440000Y-246300000D01*
X56840000Y-252550000D02*
X61865000Y-247525000D01*
X61865000Y-247525000D02*
X67215000Y-247525000D01*
%TD*%
M02*
